<svg class="animated" id="freepik_stories-flamenco-dance" xmlns="http://www.w3.org/2000/svg" viewBox="0 0 500 500" version="1.1" xmlns:xlink="http://www.w3.org/1999/xlink" xmlns:svgjs="http://svgjs.com/svgjs"><style>svg#freepik_stories-flamenco-dance:not(.animated) .animable {opacity: 0;}svg#freepik_stories-flamenco-dance.animated #freepik--background-complete--inject-99 {animation: 1s 1 forwards cubic-bezier(.36,-0.01,.5,1.38) slideLeft;animation-delay: 0s;}svg#freepik_stories-flamenco-dance.animated #freepik--Floor--inject-99 {animation: 1s 1 forwards cubic-bezier(.36,-0.01,.5,1.38) lightSpeedLeft;animation-delay: 0s;}svg#freepik_stories-flamenco-dance.animated #freepik--character-2--inject-99 {animation: 1s 1 forwards cubic-bezier(.36,-0.01,.5,1.38) slideUp;animation-delay: 0s;}svg#freepik_stories-flamenco-dance.animated #freepik--character-1--inject-99 {animation: 1s 1 forwards cubic-bezier(.36,-0.01,.5,1.38) slideUp;animation-delay: 0s;}            @keyframes slideLeft {                0% {                    opacity: 0;                    transform: translateX(-30px);                }                100% {                    opacity: 1;                    transform: translateX(0);                }            }                    @keyframes lightSpeedLeft {              from {                transform: translate3d(-50%, 0, 0) skewX(20deg);                opacity: 0;              }              60% {                transform: skewX(-10deg);                opacity: 1;              }              80% {                transform: skewX(2deg);              }              to {                opacity: 1;                transform: translate3d(0, 0, 0);              }            }                    @keyframes slideUp {                0% {                    opacity: 0;                    transform: translateY(30px);                }                100% {                    opacity: 1;                    transform: inherit;                }            }        </style><g id="freepik--background-complete--inject-99" class="animable" style="transform-origin: 244.285px 249.706px;"><rect x="406.96" y="377.3" width="54.18" height="94.01" style="fill: rgb(235, 235, 235); transform-origin: 434.05px 424.305px;" id="elvlj1rwsewoa" class="animable"></rect><rect x="390.3" y="377.3" width="16.66" height="94.01" style="fill: rgb(224, 224, 224); transform-origin: 398.63px 424.305px;" id="eljs3u1lqydd" class="animable"></rect><g id="el9viub7rl7so"><circle cx="436.28" cy="405.2" r="15.48" style="fill: rgb(224, 224, 224); transform-origin: 436.28px 405.2px; transform: rotate(-19.57deg);" class="animable"></circle></g><path d="M440.13,405.2a3.85,3.85,0,1,1-3.85-3.85A3.84,3.84,0,0,1,440.13,405.2Z" style="fill: rgb(245, 245, 245); transform-origin: 436.28px 405.2px;" id="elah0telifnuc" class="animable"></path><g id="elp2r9xnrm3jb"><circle cx="436.28" cy="447.5" r="15.48" style="fill: rgb(224, 224, 224); transform-origin: 436.28px 447.5px; transform: rotate(-81.4deg);" class="animable"></circle></g><path d="M440.13,447.5a3.85,3.85,0,1,1-3.85-3.85A3.85,3.85,0,0,1,440.13,447.5Z" style="fill: rgb(245, 245, 245); transform-origin: 436.28px 447.5px;" id="el0wsfj0thq6j" class="animable"></path><g id="el8w1c46e6n9o"><rect x="27.43" y="377.3" width="54.18" height="94.01" style="fill: rgb(235, 235, 235); transform-origin: 54.52px 424.305px; transform: rotate(180deg);" class="animable"></rect></g><g id="els25mrucpxvk"><rect x="81.61" y="377.3" width="16.66" height="94.01" style="fill: rgb(224, 224, 224); transform-origin: 89.94px 424.305px; transform: rotate(180deg);" class="animable"></rect></g><g id="eluf0q8xbqzle"><circle cx="52.29" cy="405.2" r="15.48" style="fill: rgb(224, 224, 224); transform-origin: 52.29px 405.2px; transform: rotate(-42.5deg);" class="animable"></circle></g><path d="M48.44,405.2a3.85,3.85,0,1,0,3.85-3.85A3.84,3.84,0,0,0,48.44,405.2Z" style="fill: rgb(245, 245, 245); transform-origin: 52.29px 405.2px;" id="elikme2cu64ee" class="animable"></path><g id="elu9klkfilm09"><circle cx="52.29" cy="447.5" r="15.48" style="fill: rgb(224, 224, 224); transform-origin: 52.29px 447.5px; transform: rotate(-13.8deg);" class="animable"></circle></g><path d="M48.44,447.5a3.85,3.85,0,1,0,3.85-3.85A3.85,3.85,0,0,0,48.44,447.5Z" style="fill: rgb(245, 245, 245); transform-origin: 52.29px 447.5px;" id="el7szx0r66bxe" class="animable"></path><path d="M373.48,188.19a3.33,3.33,0,1,1-2.75-3.82A3.33,3.33,0,0,1,373.48,188.19Z" style="fill: rgb(235, 235, 235); transform-origin: 370.193px 187.656px;" id="el2fdei4owr5" class="animable"></path><path d="M373.18,187c-.18.09-1.87-3-3.24-7.05s-2.41-7.32-2.24-7.4,1.59,3.12,2.94,7.16S373.36,186.93,373.18,187Z" style="fill: rgb(235, 235, 235); transform-origin: 370.439px 179.775px;" id="elrvxunvws759" class="animable"></path><path d="M374.35,169.94c.17.08-.81,1.69-2.85,2.56s-3.87.54-3.82.35,1.69-.2,3.52-1S374.18,169.8,374.35,169.94Z" style="fill: rgb(235, 235, 235); transform-origin: 371.024px 171.501px;" id="el5p8u0gde7c6" class="animable"></path><path d="M375.27,173.26c.18.08-.73,1.71-2.78,2.43s-3.78,0-3.68-.13,1.64.1,3.44-.56S375.1,173.13,375.27,173.26Z" style="fill: rgb(235, 235, 235); transform-origin: 372.049px 174.628px;" id="els2rg1rlet28" class="animable"></path><path d="M302.6,59.73a6,6,0,1,1-3.25-7.81A6,6,0,0,1,302.6,59.73Z" style="fill: rgb(235, 235, 235); transform-origin: 297.046px 57.46px;" id="elg6bhuy26f14" class="animable"></path><path d="M302.56,57.56c-.35.1-2.06-6-2.79-13.65S298.54,30.1,298.86,30s1.51,6.11,2.22,13.73S302.91,57.47,302.56,57.56Z" style="fill: rgb(235, 235, 235); transform-origin: 300.694px 43.78px;" id="el356oz2u12a8" class="animable"></path><path d="M311.57,28.14c.26.23-2.11,2.63-6,3.34s-7-.66-6.82-1,3,.35,6.58-.34S311.34,27.83,311.57,28.14Z" style="fill: rgb(235, 235, 235); transform-origin: 305.166px 29.8912px;" id="el1546sb16bmu" class="animable"></path><path d="M311.82,34.34c.3.2-2,2.7-5.84,3.11s-6.64-1.46-6.4-1.72,2.84.84,6.25.41S311.59,34,311.82,34.34Z" style="fill: rgb(235, 235, 235); transform-origin: 305.706px 35.902px;" id="elwgd7tv6y3" class="animable"></path><path d="M132.73,251.41a3.33,3.33,0,1,1,.84-4.63A3.33,3.33,0,0,1,132.73,251.41Z" style="fill: rgb(235, 235, 235); transform-origin: 130.831px 248.674px;" id="elenud2h8hkk5" class="animable"></path><path d="M133.36,250.38c-.19-.06.85-3.42,2.83-7.22s3.59-6.83,3.76-6.76-1.13,3.31-3.11,7.09S133.56,250.44,133.36,250.38Z" style="fill: rgb(235, 235, 235); transform-origin: 136.651px 243.39px;" id="eltgqadgdmn7b" class="animable"></path><path d="M146.47,239.36c.05.18-1.78.59-3.83-.27s-3.07-2.42-2.9-2.51,1.32,1.08,3.18,1.83S146.45,239.14,146.47,239.36Z" style="fill: rgb(235, 235, 235); transform-origin: 143.096px 238.096px;" id="elx3o8rmm0nq8" class="animable"></path><path d="M144.71,242.33c.08.18-1.73.67-3.67-.31s-2.66-2.69-2.47-2.74,1.07,1.25,2.8,2.08S144.69,242.12,144.71,242.33Z" style="fill: rgb(235, 235, 235); transform-origin: 141.627px 240.946px;" id="el6mxmo9d5f4k" class="animable"></path><path d="M436,226.19a5.26,5.26,0,1,1-2.2-7.11A5.26,5.26,0,0,1,436,226.19Z" style="fill: rgb(224, 224, 224); transform-origin: 431.349px 223.734px;" id="elfnwfeiz39v" class="animable"></path><path d="M436.13,224.29c-.31.05-1.31-5.41-1.31-12.19s.08-12.2.36-12.23.82,5.47.8,12.22S436.45,224.24,436.13,224.29Z" style="fill: rgb(224, 224, 224); transform-origin: 435.529px 212.08px;" id="el07tnvyu7ycx5" class="animable"></path><path d="M446.48,199.26c.21.22-2.07,2.13-5.57,2.42s-6.07-1.15-5.9-1.4,2.64.55,5.8.25S446.3,199,446.48,199.26Z" style="fill: rgb(224, 224, 224); transform-origin: 440.748px 200.471px;" id="elc5e4e573o4j" class="animable"></path><path d="M446.19,204.72c.23.2-1.95,2.19-5.39,2.23s-5.69-1.83-5.46-2,2.42,1,5.44.89S446,204.43,446.19,204.72Z" style="fill: rgb(224, 224, 224); transform-origin: 440.765px 205.814px;" id="ela4qpdmcr4s" class="animable"></path><path d="M83.46,323.48a5.26,5.26,0,1,1-6.08-4.3A5.26,5.26,0,0,1,83.46,323.48Z" style="fill: rgb(224, 224, 224); transform-origin: 78.2747px 324.363px;" id="elt2rygs2o3or" class="animable"></path><path d="M82.41,321.88c-.22.23-4.33-3.49-8.47-8.87s-7.37-9.72-7.16-9.92,4,3.84,8.08,9.2S82.63,321.65,82.41,321.88Z" style="fill: rgb(224, 224, 224); transform-origin: 74.5948px 312.486px;" id="elm7bntd67ar" class="animable"></path><path d="M75.37,295.73c.29,0-.35,2.94-2.94,5.31s-5.52,2.78-5.54,2.48,2.43-1.17,4.75-3.33S75.05,295.61,75.37,295.73Z" style="fill: rgb(224, 224, 224); transform-origin: 71.1621px 299.666px;" id="elditmucpgxrj" class="animable"></path><path d="M78.46,300.23c.31,0-.21,2.93-2.91,5.06s-5.63,2-5.57,1.7,2.5-.69,4.85-2.61S78.14,300.12,78.46,300.23Z" style="fill: rgb(224, 224, 224); transform-origin: 74.2593px 303.692px;" id="el5kgq71b20or" class="animable"></path><path d="M403,117.55a4.49,4.49,0,1,1,.25-6.34A4.49,4.49,0,0,1,403,117.55Z" style="fill: rgb(224, 224, 224); transform-origin: 399.95px 114.255px;" id="elp0bntkr1huo" class="animable"></path><path d="M403.61,116.06c-.43-.07.2-4.8,2.13-10.27s3.64-9.74,4-9.64-.63,4.73-2.55,10.14S404,116.14,403.61,116.06Z" style="fill: rgb(224, 224, 224); transform-origin: 406.647px 106.105px;" id="elzepvs0wdnu" class="animable"></path><path d="M422.33,103.48c0,.36-3.68.84-7.79-1.09a10.52,10.52,0,0,1-4.4-3.65c-.83-1.28-.81-2.29-.63-2.32s.58.71,1.5,1.65a14.43,14.43,0,0,0,4.2,2.91C418.89,102.74,422.37,103,422.33,103.48Z" style="fill: rgb(224, 224, 224); transform-origin: 415.87px 100.114px;" id="elckjqin3lfdv" class="animable"></path><path d="M415.51,124.89a4.49,4.49,0,1,1,.25-6.34A4.48,4.48,0,0,1,415.51,124.89Z" style="fill: rgb(224, 224, 224); transform-origin: 412.462px 121.595px;" id="eli0zn9vncc1" class="animable"></path><path d="M416.17,123.4c-.43-.08.2-4.8,2.13-10.27s3.64-9.75,4-9.65-.63,4.73-2.55,10.15S416.59,123.48,416.17,123.4Z" style="fill: rgb(224, 224, 224); transform-origin: 419.207px 113.44px;" id="elhiitkz60kzd" class="animable"></path><path d="M421.45,106.42c.09.4-3.44,1.09-7.35-.59s-5.89-4.66-5.54-4.87,2.61,2,6.15,3.43S421.43,106,421.45,106.42Z" style="fill: rgb(224, 224, 224); transform-origin: 414.986px 103.926px;" id="eltl9t6bnlhn" class="animable"></path><path d="M69.77,196.69a4.52,4.52,0,1,1-3.51-5.35A4.51,4.51,0,0,1,69.77,196.69Z" style="fill: rgb(224, 224, 224); transform-origin: 65.3463px 195.766px;" id="el0nunliffg2v9" class="animable"></path><path d="M69.44,195.08c-.4.19-2.65-4.05-4.27-9.67s-2.73-10.11-2.35-10.26,2.26,4.25,3.85,9.81S69.83,194.9,69.44,195.08Z" style="fill: rgb(224, 224, 224); transform-origin: 66.1227px 185.116px;" id="elp0zxam2nfca" class="animable"></path><path d="M77.41,173.8c.24.28-2.52,2.85-7,3.67a10.57,10.57,0,0,1-5.74-.41c-1.42-.56-2-1.4-1.87-1.53s.89.25,2.19.47a14.45,14.45,0,0,0,5.15-.07C74.15,175.21,77.15,173.38,77.41,173.8Z" style="fill: rgb(224, 224, 224); transform-origin: 70.1034px 175.714px;" id="elwok732pzjs" class="animable"></path><path d="M84.37,195.34A4.52,4.52,0,1,1,80.85,190,4.53,4.53,0,0,1,84.37,195.34Z" style="fill: rgb(224, 224, 224); transform-origin: 79.9421px 194.428px;" id="elsl088qb435h" class="animable"></path><path d="M84,193.73c-.39.19-2.65-4-4.27-9.66S77,174,77.41,173.8s2.26,4.25,3.85,9.81S84.42,193.55,84,193.73Z" style="fill: rgb(224, 224, 224); transform-origin: 80.6967px 183.765px;" id="el5lfg1dq4q1c" class="animable"></path><path d="M78.41,176.73c.3.27-2.18,2.9-6.37,3.82s-7.56-.36-7.4-.74,3.3.08,7-.79S78.12,176.36,78.41,176.73Z" style="fill: rgb(224, 224, 224); transform-origin: 71.5345px 178.778px;" id="el37rktb33jvx" class="animable"></path><path d="M415.27,307.21a3.45,3.45,0,1,1-1-4.77A3.45,3.45,0,0,1,415.27,307.21Z" style="fill: rgb(224, 224, 224); transform-origin: 412.38px 305.326px;" id="el0d0g26ucsvgt" class="animable"></path><path d="M415.47,306c-.33,0-.77-3.61-.38-8s.83-7.94,1.14-7.95.44,3.64,0,8S415.8,306,415.47,306Z" style="fill: rgb(224, 224, 224); transform-origin: 415.725px 298.025px;" id="elj6h5m04ashd" class="animable"></path><path d="M427,293c.1.26-2.58,1.33-6,.68a8,8,0,0,1-4-1.87c-.86-.79-1.05-1.54-.91-1.6s.56.42,1.43.93a10.79,10.79,0,0,0,3.68,1.37C424.28,293.14,426.91,292.66,427,293Z" style="fill: rgb(224, 224, 224); transform-origin: 421.525px 292.046px;" id="elrtm8crnafxa" class="animable"></path><path d="M426,310.25a3.45,3.45,0,1,1-1-4.76A3.44,3.44,0,0,1,426,310.25Z" style="fill: rgb(224, 224, 224); transform-origin: 423.107px 308.373px;" id="elihemszf5v4" class="animable"></path><path d="M426.21,309c-.33,0-.77-3.61-.38-8S426.67,293,427,293s.44,3.64,0,8S426.54,309,426.21,309Z" style="fill: rgb(224, 224, 224); transform-origin: 426.484px 301px;" id="elzeousrpkxb" class="animable"></path><path d="M426.88,295.38c.15.28-2.34,1.47-5.57,1S416,294,416.25,293.8s2.32,1,5.23,1.37S426.78,295.05,426.88,295.38Z" style="fill: rgb(224, 224, 224); transform-origin: 421.558px 295.133px;" id="ely1zp6avm0zr" class="animable"></path><path d="M106.24,88.41a3.45,3.45,0,1,1,1-4.78A3.44,3.44,0,0,1,106.24,88.41Z" style="fill: rgb(224, 224, 224); transform-origin: 104.356px 85.5209px;" id="elbfboii9969j" class="animable"></path><path d="M106.92,87.36c-.32-.11.73-3.62,2.84-7.53s3.93-7,4.21-6.84-1,3.52-3.15,7.39S107.23,87.47,106.92,87.36Z" style="fill: rgb(224, 224, 224); transform-origin: 110.436px 80.1734px;" id="el64cuepe8s7o" class="animable"></path><path d="M122.62,80.06c0,.28-2.89.2-5.78-1.76a8.15,8.15,0,0,1-2.9-3.29c-.47-1.07-.34-1.84-.19-1.84s.35.61.94,1.43a10.72,10.72,0,0,0,2.83,2.71C120.1,79.08,122.71,79.69,122.62,80.06Z" style="fill: rgb(224, 224, 224); transform-origin: 118.117px 76.6744px;" id="ely2rwiok70io" class="animable"></path><path d="M114.89,95.48a3.45,3.45,0,1,1,1-4.78A3.45,3.45,0,0,1,114.89,95.48Z" style="fill: rgb(224, 224, 224); transform-origin: 113.004px 92.5909px;" id="el39lw9trdphx" class="animable"></path><path d="M115.57,94.42c-.32-.1.72-3.61,2.84-7.53s3.93-7,4.21-6.83-1,3.51-3.15,7.39S115.88,94.53,115.57,94.42Z" style="fill: rgb(224, 224, 224); transform-origin: 119.086px 87.238px;" id="el6p01fpzhcra" class="animable"></path><path d="M121.6,82.18c0,.31-2.73.41-5.5-1.33s-3.91-4.23-3.62-4.35,1.74,1.81,4.25,3.34S121.64,81.83,121.6,82.18Z" style="fill: rgb(224, 224, 224); transform-origin: 117.018px 79.4272px;" id="elqrbat41gekd" class="animable"></path></g><g id="freepik--Floor--inject-99" class="animable" style="transform-origin: 250.405px 470.68px;"><path d="M456.81,470.68c0,.14-92.43.26-206.42.26S44,470.82,44,470.68s92.4-.26,206.43-.26S456.81,470.54,456.81,470.68Z" style="fill: rgb(69, 90, 100); transform-origin: 250.405px 470.68px;" id="el5ki8mms014u" class="animable"></path></g><g id="freepik--character-2--inject-99" class="animable" style="transform-origin: 305.996px 265.111px;"><path d="M244.23,100.29a45.56,45.56,0,0,1,.35-12.85c1.22-6,2.8-10.5,3.1-13.49s-1.17-13.74-1.17-13.74.89-2.2,2.33,1a61.82,61.82,0,0,1,2.76,9.23l15.23-4s.85,2.79-4.94,4.35a16.09,16.09,0,0,0-5.28,2.56s10.44-2,11.12-.08c0,0-.29,1.09-.55,1.16a73.8,73.8,0,0,1-7.13,2.3,33.17,33.17,0,0,0-5.19,1.57l-.05,3.23a12.93,12.93,0,0,1,2.55-2.35c1.36-.89,4.3-2.85,6.25-1.9s-.87,1.45-2.38,4.23S257,90.1,254.71,92.31s-1.85,2-1.85,2l.78,3.69Z" style="fill: rgb(193, 117, 96); transform-origin: 255.831px 79.8813px;" id="elypmihzjeej" class="animable"></path><path d="M255,81.45s-.06.22-.35.51a1.22,1.22,0,0,1-.66.39.75.75,0,0,1-.53-.12,1.28,1.28,0,0,1-.37-.43,2.93,2.93,0,0,1-.35-1.15c-.05-.42-.09-.85-.14-1.3-.09-.93-.18-1.92-.28-3a53.14,53.14,0,0,0-.72-5.33,14,14,0,0,1-.42-2.2A7.23,7.23,0,0,1,252,71a33.33,33.33,0,0,1,.88,5.36c.09,1,.17,2,.24,3,0,.44.06.88.09,1.29a2.88,2.88,0,0,0,.24,1c.14.29.34.45.55.43a1.15,1.15,0,0,0,.56-.25C254.86,81.58,255,81.42,255,81.45Z" style="fill: rgb(124, 66, 54); transform-origin: 253.09px 75.5891px;" id="el4i71h2skcny" class="animable"></path><path d="M254,79.86c-.15,0,.13-1.82.2-4,0-.27,0-.53,0-.8v-.17l.16-.06a16,16,0,0,0,2.69-1.67,4.43,4.43,0,0,1-2.5,2.14l.16-.24c0,.27,0,.54,0,.81A10,10,0,0,1,254,79.86Z" style="fill: rgb(124, 66, 54); transform-origin: 255.503px 76.51px;" id="elwrml57nl3gg" class="animable"></path><path d="M243.26,107.56,242.16,94l12.71,1.56,2.46,9.41s10.36-1.51,12.7,4.29,12.47,47.41,12.47,47.41l14.41,21.62-18.31,13S253.34,171,248.83,152.75,233.63,112.92,243.26,107.56Z" style="fill: rgb(224, 224, 224); transform-origin: 268.136px 142.645px;" id="elx1i1r7svw3k" class="animable"></path><path d="M259.37,104.83c0,.18-3.84,0-8.47.67a32.49,32.49,0,0,0-5.8,1.45c-1.45.5-2.32.9-2.35.83A8.15,8.15,0,0,1,245,106.6a25.58,25.58,0,0,1,5.85-1.62,34,34,0,0,1,6.05-.39A9.91,9.91,0,0,1,259.37,104.83Z" style="fill: rgb(69, 90, 100); transform-origin: 251.06px 106.184px;" id="el82m4g1382a7" class="animable"></path><path d="M362.14,436.78,370.19,462l-.08,8.68-43.43-.18c.27-4.15,22.77-12.39,22.77-12.39L343.21,445Z" style="fill: rgb(69, 90, 100); transform-origin: 348.435px 453.73px;" id="ellm350d1xfib" class="animable"></path><path d="M362.89,456.29a1.77,1.77,0,0,1,1.22,2,1.7,1.7,0,0,1-2,1.22,1.86,1.86,0,0,1-1.28-2.15,1.78,1.78,0,0,1,2.22-1.05" style="fill: rgb(255, 255, 255); transform-origin: 362.465px 457.884px;" id="ely42acy2j07" class="animable"></path><path d="M370.11,470.75l.05-3.73-41.77,1.41s-1.93.85-1.71,2.21Z" style="fill: rgb(38, 50, 56); transform-origin: 348.411px 468.885px;" id="elhwe4jj8ndr" class="animable"></path><path d="M349.33,458.09c0,.22,1.07.32,2.11,1s1.59,1.58,1.79,1.5-.12-1.31-1.39-2.12S349.29,457.9,349.33,458.09Z" style="fill: rgb(38, 50, 56); transform-origin: 351.307px 459.249px;" id="elx4mirvwdo3d" class="animable"></path><path d="M344.19,460.4c-.05.21.86.57,1.58,1.47s.92,1.85,1.13,1.84.35-1.2-.56-2.31S344.19,460.2,344.19,460.4Z" style="fill: rgb(38, 50, 56); transform-origin: 345.622px 462.013px;" id="elduwgng1ogo" class="animable"></path><path d="M341.58,465.68c.19.05.49-1-.05-2.17s-1.53-1.64-1.62-1.46.52.8.95,1.76S341.37,465.66,341.58,465.68Z" style="fill: rgb(38, 50, 56); transform-origin: 340.869px 463.847px;" id="elmv5p2fsym4j" class="animable"></path><path d="M347.82,454.76c.18.12.85-.65,1.91-1.21s2-.74,2-.95-1.17-.38-2.41.3S347.64,454.67,347.82,454.76Z" style="fill: rgb(38, 50, 56); transform-origin: 349.756px 453.593px;" id="el91aw7ctxajq" class="animable"></path><path d="M293.08,436.78,301.13,462l-.08,8.68-43.44-.18c.28-4.15,22.78-12.39,22.78-12.39L274.15,445Z" style="fill: rgb(69, 90, 100); transform-origin: 279.37px 453.73px;" id="elr8vj01soc" class="animable"></path><path d="M293.83,456.29a1.78,1.78,0,0,1,1.22,2,1.7,1.7,0,0,1-2,1.22,1.85,1.85,0,0,1-1.28-2.15,1.77,1.77,0,0,1,2.22-1.05" style="fill: rgb(255, 255, 255); transform-origin: 293.403px 457.883px;" id="elocmhf6rr02e" class="animable"></path><path d="M301.05,470.75l.05-3.73-41.77,1.41s-1.93.85-1.71,2.21Z" style="fill: rgb(38, 50, 56); transform-origin: 279.351px 468.885px;" id="elkjgm3a084kb" class="animable"></path><path d="M280.27,458.09c0,.22,1.07.32,2.11,1s1.59,1.58,1.79,1.5-.12-1.31-1.39-2.12S280.23,457.9,280.27,458.09Z" style="fill: rgb(38, 50, 56); transform-origin: 282.247px 459.249px;" id="elmzxj4sramdt" class="animable"></path><path d="M275.12,460.4c-.05.21.87.57,1.59,1.47s.92,1.85,1.13,1.84.35-1.2-.56-2.31S275.13,460.2,275.12,460.4Z" style="fill: rgb(38, 50, 56); transform-origin: 276.557px 462.013px;" id="elawixnvmqcqv" class="animable"></path><path d="M272.51,465.68c.2.05.5-1,0-2.17s-1.53-1.64-1.62-1.46.52.8.95,1.76S272.3,465.66,272.51,465.68Z" style="fill: rgb(38, 50, 56); transform-origin: 271.832px 463.847px;" id="elexwdrl5hmn6" class="animable"></path><path d="M278.75,454.76c.18.12.85-.65,1.91-1.21s2.06-.74,2-.95-1.16-.38-2.4.3S278.58,454.67,278.75,454.76Z" style="fill: rgb(38, 50, 56); transform-origin: 280.689px 453.593px;" id="el9bhggtgy3v" class="animable"></path><path d="M273.07,274.74c-1.33.84-30.17,64.66-31.95,77.61S273.9,455.82,273.9,455.82l29.21-7.29-24.87-84,21.35-47.18Z" style="fill: rgb(38, 50, 56); transform-origin: 272.082px 365.28px;" id="el5r5s7ohvwgf" class="animable"></path><path d="M262.24,231.61s-4.56,16.1-3.54,26.81a225.22,225.22,0,0,0,4.22,23.9,38.34,38.34,0,0,0,2.17,6.79l38.32,90.28,38.7,76.42,24.8-11.22S342,372.38,337.24,361.4s-12.73-25-17-40.56c-1.88-6.83-3.12-11.56-3.12-11.56s7.19-23.35,1.74-37.82c-4-10.53-15.75-20-15.75-20l2.45-8.63s-11.2-11.12-24.38-9.11S262.24,231.61,262.24,231.61Z" style="fill: rgb(38, 50, 56); transform-origin: 312.731px 343.71px;" id="el4q3eagi8ucu" class="animable"></path><path d="M291.48,352a5.86,5.86,0,0,1-.38-.81l-1-2.36c-.85-2.06-2.13-5-3.72-8.68-3.18-7.31-7.82-17.3-12.61-28.49-2.37-5.61-4.5-11-6.28-16-.85-2.5-1.69-4.86-2.36-7.11-.34-1.13-.69-2.2-1-3.25s-.56-2.06-.82-3c-.56-1.92-.93-3.69-1.3-5.23s-.64-2.88-.83-4-.35-1.91-.46-2.53a4.82,4.82,0,0,1-.12-.89,8.76,8.76,0,0,1,.22.87c.14.62.33,1.45.56,2.51s.51,2.42.92,3.95.79,3.29,1.36,5.2c.27,1,.56,2,.86,3s.67,2.12,1,3.24c.68,2.24,1.54,4.59,2.39,7.08,1.81,4.95,3.94,10.33,6.31,15.93,4.78,11.18,9.38,21.2,12.47,28.56,1.54,3.67,2.77,6.66,3.57,8.74.38,1,.69,1.81.92,2.4A5.1,5.1,0,0,1,291.48,352Z" style="fill: rgb(69, 90, 100); transform-origin: 276.04px 310.825px;" id="elokie1n74s2" class="animable"></path><path d="M303.11,251.79a7.85,7.85,0,0,1-1.4-.15c-.89-.14-2.18-.31-3.77-.48a69.19,69.19,0,0,0-24.87,1.9c-1.56.41-2.81.77-3.66,1a7.86,7.86,0,0,1-1.36.36,7.6,7.6,0,0,1,1.29-.55c.84-.34,2.08-.75,3.63-1.21a61.44,61.44,0,0,1,25-1.9c1.6.21,2.89.43,3.77.64A6.89,6.89,0,0,1,303.11,251.79Z" style="fill: rgb(69, 90, 100); transform-origin: 285.58px 252.332px;" id="elm9o1hfkyce" class="animable"></path><path d="M366.76,278.82A45.56,45.56,0,0,1,369,291.48c0,6.07-.61,10.85-.3,13.83s3.93,13.23,3.93,13.23-.43,2.33-2.5-.55a62.23,62.23,0,0,1-4.57-8.48l-14.11,7s-1.39-2.56,4-5.27a15.85,15.85,0,0,0,4.65-3.57s-9.82,4.06-10.87,2.33c0,0,.06-1.13.3-1.24a70.25,70.25,0,0,1,6.52-3.7,33.27,33.27,0,0,0,4.76-2.59l-.6-3.17a13.37,13.37,0,0,1-2,2.82c-1.15,1.14-3.64,3.66-5.74,3.12s.56-1.6,1.47-4.62,2.45-9.23,4.22-11.85,1.41-2.3,1.41-2.3L358,283Z" style="fill: rgb(193, 117, 96); transform-origin: 360.93px 299.125px;" id="el47lmvl4o7ja" class="animable"></path><path d="M360,299.46s0-.23.24-.57a1.16,1.16,0,0,1,.57-.51.72.72,0,0,1,.54,0,1.4,1.4,0,0,1,.45.35,3.09,3.09,0,0,1,.58,1.06l.4,1.24c.27.9.56,1.85.87,2.84a52.27,52.27,0,0,0,1.79,5.08,15.05,15.05,0,0,1,.85,2.07,7.42,7.42,0,0,1-1.19-1.92,32.27,32.27,0,0,1-1.95-5.07c-.29-1-.57-2-.84-2.87-.12-.43-.23-.85-.34-1.25a2.74,2.74,0,0,0-.45-.94c-.19-.26-.42-.38-.62-.32a1.06,1.06,0,0,0-.5.37C360.14,299.29,360,299.49,360,299.46Z" style="fill: rgb(124, 66, 54); transform-origin: 363.145px 304.674px;" id="el9t7luqt5nld" class="animable"></path><path d="M361.32,300.81c.15,0,.24,1.81.62,4l.15.78,0,.17-.14.09a15.92,15.92,0,0,0-2.31,2.18,4.49,4.49,0,0,1,2-2.6l-.1.26-.16-.79A9.92,9.92,0,0,1,361.32,300.81Z" style="fill: rgb(124, 66, 54); transform-origin: 360.865px 304.42px;" id="elioto9bh82z" class="animable"></path><path d="M285.58,129a4.63,4.63,0,0,1-1.5-9.09,4.81,4.81,0,0,1,4.6-7.9,5.77,5.77,0,0,1,8.93-4.28,6.47,6.47,0,0,1,8,.24,4.61,4.61,0,0,1,3.67,8" style="fill: rgb(38, 50, 56); transform-origin: 295.734px 117.735px;" id="eloywsngp2cpn" class="animable"></path><path d="M293.75,176.12l-1.49-8.88s-10.45-2.16-10.06-12.7c.19-5.09,1.44-15.53,2.67-25a19.65,19.65,0,0,1,20.46-17.07l1,.05c10.92,1.18,16,11.12,14.53,22l-3.62,39.6" style="fill: rgb(193, 117, 96); transform-origin: 301.649px 144.283px;" id="eltoq6ywgu4aj" class="animable"></path><path d="M292.18,167.22a25.58,25.58,0,0,0,14-3.35s-3.63,7.42-14.09,5.95Z" style="fill: rgb(124, 66, 54); transform-origin: 299.135px 166.941px;" id="el3wmo222fpxk" class="animable"></path><path d="M287.16,139.28a1.51,1.51,0,0,0,1.38,1.59,1.44,1.44,0,0,0,1.61-1.28,1.5,1.5,0,0,0-1.37-1.59A1.44,1.44,0,0,0,287.16,139.28Z" style="fill: rgb(38, 50, 56); transform-origin: 288.655px 139.434px;" id="elf418yimp21f" class="animable"></path><path d="M286.88,134.83c.18.2,1.36-.58,3-.5s2.76.95,2.95.76-.08-.44-.58-.84a4.16,4.16,0,0,0-2.35-.86,4,4,0,0,0-2.38.64C287,134.39,286.79,134.74,286.88,134.83Z" style="fill: rgb(38, 50, 56); transform-origin: 289.875px 134.251px;" id="el8zl3uv1uq7x" class="animable"></path><path d="M301.67,139.69a1.51,1.51,0,0,0,1.37,1.59,1.44,1.44,0,0,0,1.62-1.28,1.5,1.5,0,0,0-1.37-1.59A1.43,1.43,0,0,0,301.67,139.69Z" style="fill: rgb(38, 50, 56); transform-origin: 303.165px 139.844px;" id="elgq4xdy5doag" class="animable"></path><path d="M302.77,135.92c.18.21,1.36-.58,3-.5s2.77,1,2.95.77-.08-.45-.58-.85a4.16,4.16,0,0,0-2.35-.86,4,4,0,0,0-2.38.64C302.87,135.48,302.69,135.83,302.77,135.92Z" style="fill: rgb(38, 50, 56); transform-origin: 305.764px 135.351px;" id="elpru98zbvlbr" class="animable"></path><path d="M296.3,147.63a10.23,10.23,0,0,0-2.6-.6c-.41-.07-.8-.17-.85-.45a2.09,2.09,0,0,1,.33-1.22l1.38-3.08c1.92-4.4,3.33-8,3.15-8.1s-1.87,3.43-3.79,7.83c-.47,1.08-.91,2.11-1.33,3.1a2.39,2.39,0,0,0-.3,1.61,1,1,0,0,0,.65.64,2.49,2.49,0,0,0,.7.13A10.74,10.74,0,0,0,296.3,147.63Z" style="fill: rgb(38, 50, 56); transform-origin: 294.991px 140.918px;" id="elmfofoi2i0l" class="animable"></path><path d="M301.68,129.62c.19.42,1.6,0,3.31.08s3.14.38,3.31,0c.08-.2-.2-.58-.8-.94a5.07,5.07,0,0,0-2.54-.66,4.93,4.93,0,0,0-2.51.63C301.87,129,301.6,129.42,301.68,129.62Z" style="fill: rgb(38, 50, 56); transform-origin: 304.99px 128.994px;" id="el9ayopj3x0i8" class="animable"></path><path d="M287.13,128.15c.33.38,1.68.07,3.29.13s2.95.4,3.29,0c.14-.18,0-.56-.63-.94a5.12,5.12,0,0,0-2.64-.73,5.23,5.23,0,0,0-2.66.6C287.2,127.59,287,128,287.13,128.15Z" style="fill: rgb(38, 50, 56); transform-origin: 290.426px 127.539px;" id="elumqlb3158k" class="animable"></path><path d="M286.13,124.78s3.1-6.45,6.36-7.84c3.94-1.67,5.39,2.64,9.11,1.8s7.48-2.45,11.09.57c3.95,3.31,1.92,5.39,1.94,10.08.09,19,3.28,24.52,4.71,15.65.16-1,2.91-1.62,3.52-5.73.78-5.33,1.31-11.82.3-15.68-.84-3.25-2.56-5.56-5.71-8.16-5-4.11-12.08-4.55-16.93-4.3S286.1,116.5,286.13,124.78Z" style="fill: rgb(38, 50, 56); transform-origin: 304.923px 130.141px;" id="eloz3cnva5wd" class="animable"></path><path d="M318.68,144.72a2.86,2.86,0,0,1,3.23-2.6c1.95.28,4.08,1.51,3.75,5.56-.59,7.19-7.68,5.11-7.68,4.91S318.41,147.73,318.68,144.72Z" style="fill: rgb(193, 117, 96); transform-origin: 321.837px 147.558px;" id="el3uqbvlcs6ev" class="animable"></path><path d="M319.77,150s.11.1.32.21a1.25,1.25,0,0,0,.93.1,3.12,3.12,0,0,0,1.66-2.67,4.18,4.18,0,0,0-.2-1.82,1.44,1.44,0,0,0-.86-1,.63.63,0,0,0-.77.28c-.11.19-.08.34-.12.35s-.14-.14-.06-.43a.77.77,0,0,1,.32-.42.93.93,0,0,1,.71-.13,1.75,1.75,0,0,1,1.21,1.22,4.26,4.26,0,0,1,.27,2c-.16,1.44-1,2.74-2.08,2.95a1.35,1.35,0,0,1-1.13-.28C319.76,150.18,319.74,150,319.77,150Z" style="fill: rgb(124, 66, 54); transform-origin: 321.481px 147.558px;" id="elgjp1ipi2mar" class="animable"></path><path d="M319.23,130.76a6.87,6.87,0,0,1-3.11,1.26,2.37,2.37,0,0,1-2.53-1.78c-.06-.51.09-1.08-.22-1.49s-1.1-.37-1.71-.34c-2.1.12-4.43-2.31-4.86-4.37a1.89,1.89,0,0,1-2.54.39,6.76,6.76,0,0,1-1.66-1.63,3,3,0,0,0-2.41-1.36,7.37,7.37,0,0,1-1.58.27c-.94-.13-1.35-1.26-1.45-2.21s-.15-2-.93-2.59a3.73,3.73,0,0,0-2.57-.2c-.87.08-2-.18-2.17-1a1.73,1.73,0,0,1,.39-1.29,4.66,4.66,0,0,1,5.59-1.49,6.34,6.34,0,0,1,11.68-.65,6.41,6.41,0,0,1,10.13,2.85,4.65,4.65,0,0,1,4.91,7,4.42,4.42,0,0,1,2.25,3.64c0,1.49-1.57,2.9-3,2.44a2.58,2.58,0,0,1-4.58,2.35" style="fill: rgb(38, 50, 56); transform-origin: 308.96px 120.369px;" id="elboxgxlkmpg" class="animable"></path><path d="M296.83,115a.45.45,0,0,0,0,.13,3.13,3.13,0,0,0,0,.39,4.34,4.34,0,0,0,.46,1.41,5.15,5.15,0,0,0,1.51,1.79,4.79,4.79,0,0,0,2.91,1l-.12-.16a2.6,2.6,0,0,0,.05,2,7.65,7.65,0,0,0,1.14,1.83,5.59,5.59,0,0,0,.77.87,2.5,2.5,0,0,0,1.12.48,2.66,2.66,0,0,0,2.36-.71l-.27-.1a5.41,5.41,0,0,0,2.11,3.86,4,4,0,0,0,2.32.89,7.3,7.3,0,0,0,2.36-.4l-.19-.09a5.7,5.7,0,0,0,1.59,2.3,3,3,0,0,0,2.48.81,4,4,0,0,0,3.21-2.95l-.17.07a3.67,3.67,0,0,0,2.45.48,3.89,3.89,0,0,0,1.77-.68,3.52,3.52,0,0,0,.85-.84,2.19,2.19,0,0,0,.2-.36,4.59,4.59,0,0,1-1.12,1.1,4,4,0,0,1-1.72.61,3.5,3.5,0,0,1-2.31-.5l-.13-.08,0,.15a3.75,3.75,0,0,1-3,2.73,2.72,2.72,0,0,1-2.25-.76,5.28,5.28,0,0,1-1.49-2.19l-.05-.13-.14,0a6.92,6.92,0,0,1-2.26.38,3.68,3.68,0,0,1-2.14-.83,5.12,5.12,0,0,1-2-3.63l0-.34-.24.25a2.33,2.33,0,0,1-2.08.63,2.18,2.18,0,0,1-1-.42,5.69,5.69,0,0,1-.72-.81,7.6,7.6,0,0,1-1.12-1.75,2.38,2.38,0,0,1-.06-1.81l.06-.17h-.18a4.63,4.63,0,0,1-2.79-.9,5,5,0,0,1-1.5-1.69A5.34,5.34,0,0,1,296.83,115Z" style="fill: rgb(69, 90, 100); transform-origin: 311.282px 123.163px;" id="el4snc62c59h5" class="animable"></path><path d="M296.38,153.19c.06-.27,1.81.19,3.45-1s1.94-3.09,2.18-3,.23.5.05,1.3a4.5,4.5,0,0,1-1.73,2.56,3.94,3.94,0,0,1-2.86.71C296.72,153.61,296.34,153.3,296.38,153.19Z" style="fill: rgb(38, 50, 56); transform-origin: 299.285px 151.493px;" id="elp7mp9epl51h" class="animable"></path><path d="M314.25,176.77s8.18-5,13.44,6.72,11.39,22.7,11.39,22.7S357.2,221,362.75,230.77s12.57,35.46,7.89,45.55l-18.12,5.09s-6.72.16-11.68-13.35-8.18-27.79-13.15-33.65a98.43,98.43,0,0,0-12.27-11.57s-17.24-16-12.86-30.69S314.25,176.77,314.25,176.77Z" style="fill: rgb(224, 224, 224); transform-origin: 337.01px 228.56px;" id="elhjcn8zx3kxk" class="animable"></path><polygon points="350.79 272.05 356.05 287.29 370.15 285.55 367.74 270.5 350.79 272.05" style="fill: rgb(224, 224, 224); transform-origin: 360.47px 278.895px;" id="elm5pkp7nzg5" class="animable"></polygon><path d="M289.36,176.12c.19-.14,2.88-4.82,2.88-4.82L318,167.42l3.16,5.37-2.42,1.07s-.2-.87,2,2.21-1,45.89-1,45.89-11.27,29.8-13.58,28.57-19.94-4.81-25.12-4.63-21.42,7.19-22.51,5.62-3.57-5.4-2.43-8.67,4.52-28.28,10-37.94S280.47,184,280.47,184Z" style="fill: rgb(224, 224, 224); transform-origin: 288.66px 209.585px;" id="el1if8jb1y2d4h" class="animable"></path><path d="M314.92,177a2.48,2.48,0,0,1-.61.14,14,14,0,0,0-1.74.39,15,15,0,0,0-5.65,3.16,18.22,18.22,0,0,0-5.2,8,22.06,22.06,0,0,0-.2,11.69,33.62,33.62,0,0,0,4.85,10.77,61.09,61.09,0,0,0,6.1,7.59c1.89,2,3.49,3.62,4.58,4.72l1.25,1.28a3.29,3.29,0,0,1,.42.47,2.47,2.47,0,0,1-.49-.39l-1.32-1.21c-1.14-1.06-2.78-2.61-4.71-4.62a58.75,58.75,0,0,1-6.23-7.57,33.36,33.36,0,0,1-5-10.92,22.34,22.34,0,0,1,.24-12,18.25,18.25,0,0,1,5.42-8.12,14.75,14.75,0,0,1,5.83-3.09,12,12,0,0,1,1.78-.3A4.94,4.94,0,0,1,314.92,177Z" style="fill: rgb(69, 90, 100); transform-origin: 309.492px 201.096px;" id="elhhgavf06e1t" class="animable"></path><path d="M287.75,175.15a4.21,4.21,0,0,1-.68.94l-2,2.46c-1.67,2.08-3.95,4.95-6.39,8.19s-4.57,6.22-6.11,8.39c-.71,1-1.32,1.88-1.82,2.57a4.5,4.5,0,0,1-.72.91,5.2,5.2,0,0,1,.55-1c.39-.64,1-1.55,1.69-2.66,1.46-2.23,3.55-5.26,6-8.5s4.78-6.1,6.51-8.11c.87-1,1.59-1.81,2.1-2.36A5.32,5.32,0,0,1,287.75,175.15Z" style="fill: rgb(69, 90, 100); transform-origin: 278.89px 186.88px;" id="elbf9xlropmo5" class="animable"></path><path d="M321.14,172.79a9.85,9.85,0,0,1-1.49.58c-1,.32-2.4.76-4.18,1.2-3.56.9-8.56,1.8-14.06,2.78-2.52.46-4.92.92-7.11,1.4l-.22.05-.07-.21c-.75-2.32-1.44-4.43-2-6.24h.37a16.37,16.37,0,0,1-1.91,4.33,12.15,12.15,0,0,1-.74,1.06,1.57,1.57,0,0,1-.31.33s.32-.53.87-1.49a18.12,18.12,0,0,0,1.72-4.33l.16-.61.2.6,2.13,6.21-.28-.16c2.19-.51,4.6-1,7.13-1.44,5.51-1,10.5-1.82,14.06-2.63,1.79-.39,3.22-.78,4.21-1A8.94,8.94,0,0,1,321.14,172.79Z" style="fill: rgb(69, 90, 100); transform-origin: 305.28px 175.22px;" id="elerjrmunxego" class="animable"></path><path d="M322.73,198.81a33.45,33.45,0,0,0,1.72,3.36,21.86,21.86,0,0,0,6.38,6.34,49.22,49.22,0,0,0,8.09,4.15,29.17,29.17,0,0,1,3.47,1.54,4.46,4.46,0,0,1-1-.27c-.63-.2-1.53-.51-2.62-.93a40.68,40.68,0,0,1-8.25-4.06,20.52,20.52,0,0,1-6.41-6.58,13.58,13.58,0,0,1-1.16-2.55A3.46,3.46,0,0,1,322.73,198.81Z" style="fill: rgb(69, 90, 100); transform-origin: 332.56px 206.505px;" id="elp7ufxjuu2b" class="animable"></path><path d="M370.81,276.12a12.28,12.28,0,0,1-2.42,1.13c-1.53.62-3.68,1.39-6.09,2.1s-4.65,1.21-6.27,1.51a12.06,12.06,0,0,1-2.65.35,16,16,0,0,1,2.57-.71c1.6-.39,3.8-.95,6.2-1.65s4.56-1.42,6.12-1.94A15.68,15.68,0,0,1,370.81,276.12Z" style="fill: rgb(69, 90, 100); transform-origin: 362.095px 278.665px;" id="elmrhkrjb6xzq" class="animable"></path></g><g id="freepik--character-1--inject-99" class="animable" style="transform-origin: 196.275px 252.589px;"><polygon points="197.63 125.66 188.12 101.22 187.75 97.54 194.15 96.77 197.72 102.31 215.02 125.66 197.63 125.66" style="fill: rgb(255, 191, 157); transform-origin: 201.385px 111.215px;" id="elotku3gionhd" class="animable"></polygon><path d="M196.1,69.29s.33,5.34-.14,6.88a20,20,0,0,1-2.11,3.93l-.72,9.36L199,87.88s-1-5-.22-7.14,4-3.9,4.75-4.7a2.83,2.83,0,0,0,.49-3l-1.56,1s2.16-2.68,1.49-4.08-1.07-.88-1.07-.88l-4.51,5.09s.49-4.29-.4-4.89A1.74,1.74,0,0,0,196.1,69.29Z" style="fill: rgb(255, 191, 157); transform-origin: 198.689px 79.2228px;" id="el2c0pey54528" class="animable"></path><path d="M195,87.75s9.24-3,10.95-2.49,1.21,1.52,1.21,1.52a25.52,25.52,0,0,1-3.57,1.52c-.91.18-5.38,2.86-5.73,4.2a6.27,6.27,0,0,1-2.63,4.36c-2.06,1.43-5.81,1.7-5.81,1.7Z" style="fill: rgb(255, 191, 157); transform-origin: 198.324px 91.8808px;" id="elik9an1pjnz" class="animable"></path><path d="M189.78,68.75s1.33,0,2.15,2.74,1.54,7.56,1.71,8a27.34,27.34,0,0,1,1,4.41c.13,1.28-.42,2.64.1,3.68s.18,8,.18,8l-5.54,3a2.53,2.53,0,0,1-1.54-2.79c.16-2.25,3-13.16,2.83-14.28S189.78,68.75,189.78,68.75Z" style="fill: rgb(255, 191, 157); transform-origin: 191.415px 83.665px;" id="elwcy9byr13x" class="animable"></path><path d="M213.39,122.42s5-9.51,9-11.5a14.87,14.87,0,0,0-10.32-6.66c-2-.28-4.39.06-5.35,1.82-.53,1-.51,2.18-1.16,3.06-1.08,1.45-3.3,1.22-5,.74s-3.84-1-5.19.25c-1.55,1.38-1.16,4.26-2.89,5.4-1.48,1-3.84.19-4.94,1.57-.78,1-.4,2.4-.76,3.58-.53,1.8-2.55,2.63-3.79,4-2.1,2.38-1.69,6-1.15,9.13,4.72-2.53,13-2.29,17.75.11C199.55,134,200.68,124.46,213.39,122.42Z" style="fill: rgb(154, 50, 37); transform-origin: 201.897px 119.047px;" id="elijeo57t3j0t" class="animable"></path><path d="M213.39,122.42a1.31,1.31,0,0,1-.32.09l-1,.23a12.14,12.14,0,0,0-1.57.42,17.26,17.26,0,0,0-2.07.75,15.56,15.56,0,0,0-5,3.25,13,13,0,0,0-3.71,6.83l0,.26-.24-.11a20.67,20.67,0,0,0-8.18-1.84,19.39,19.39,0,0,0-9.36,1.77l-.3.15-.06-.33a22.81,22.81,0,0,1-.43-4.8,7.15,7.15,0,0,1,1.79-4.72c1.19-1.26,2.89-2,3.5-3.56a11.39,11.39,0,0,0,.34-2.54,2.91,2.91,0,0,1,.53-1.34,2.45,2.45,0,0,1,1.23-.79c1.11-.33,2.2-.22,3.15-.54a2.89,2.89,0,0,0,1.82-2.1,12.74,12.74,0,0,1,1.14-3,3.34,3.34,0,0,1,2.81-1.43c2.13,0,3.95,1,5.81.87a2.68,2.68,0,0,0,2.23-1.16,19.41,19.41,0,0,0,.9-2.58,3.56,3.56,0,0,1,2.07-1.89,6.8,6.8,0,0,1,2.65-.41,14,14,0,0,1,4.86,1.21,15.07,15.07,0,0,1,6.58,5.67l.1.16-.17.08a10,10,0,0,0-2.51,2,25.69,25.69,0,0,0-1.88,2.2c-1.1,1.44-2,2.74-2.64,3.8s-1.18,1.9-1.52,2.47l-.39.65a1.87,1.87,0,0,1-.14.21.89.89,0,0,1,.1-.24l.34-.67c.31-.58.79-1.44,1.45-2.52s1.5-2.4,2.59-3.86a25.63,25.63,0,0,1,1.87-2.26,10.31,10.31,0,0,1,2.58-2.11l-.07.25a14.71,14.71,0,0,0-6.45-5.46,13.64,13.64,0,0,0-4.71-1.15,6.31,6.31,0,0,0-2.47.39,3.06,3.06,0,0,0-1.8,1.65,19.69,19.69,0,0,1-.93,2.65,3.19,3.19,0,0,1-2.61,1.39c-2,.15-3.9-.91-5.83-.85a2.79,2.79,0,0,0-2.39,1.21,12.15,12.15,0,0,0-1.08,2.83,5,5,0,0,1-.74,1.47,2.86,2.86,0,0,1-1.41,1c-1.08.34-2.19.24-3.15.53a1.92,1.92,0,0,0-1.41,1.72,11.57,11.57,0,0,1-.37,2.65,5.21,5.21,0,0,1-1.69,2.09,22.56,22.56,0,0,0-1.92,1.64,6.65,6.65,0,0,0-1.66,4.38,22.22,22.22,0,0,0,.41,4.7l-.36-.17a19.78,19.78,0,0,1,9.62-1.78,21,21,0,0,1,8.34,1.93l-.28.15a13.22,13.22,0,0,1,3.88-7,15.26,15.26,0,0,1,5.14-3.23,15.77,15.77,0,0,1,2.1-.71,11.61,11.61,0,0,1,1.58-.36l1-.18A2.07,2.07,0,0,1,213.39,122.42Z" style="fill: rgb(38, 50, 56); transform-origin: 201.903px 119.072px;" id="elt82qkyq43" class="animable"></path><path d="M207.66,106.74c.15,0,0,2.59.12,5.76s.39,5.73.24,5.76a20.61,20.61,0,0,1-.76-5.74A20.59,20.59,0,0,1,207.66,106.74Z" style="fill: rgb(38, 50, 56); transform-origin: 207.635px 112.5px;" id="elu91xtli7tu" class="animable"></path><path d="M204.55,112.62a15,15,0,0,1,1.25,3.71,15,15,0,0,1,.75,3.85,15,15,0,0,1-1.25-3.71A14.53,14.53,0,0,1,204.55,112.62Z" style="fill: rgb(38, 50, 56); transform-origin: 205.55px 116.4px;" id="el8t9oe2j4eri" class="animable"></path><path d="M195.6,113.28a35.59,35.59,0,0,0,2.6,5.54,36.63,36.63,0,0,0,3.91,4.7,12.48,12.48,0,0,1-4.35-4.42A12.31,12.31,0,0,1,195.6,113.28Z" style="fill: rgb(38, 50, 56); transform-origin: 198.855px 118.4px;" id="elsftrs917qc" class="animable"></path><path d="M189.17,120.15a17.45,17.45,0,0,1,5.18,2.32,17.65,17.65,0,0,1,4.52,3.44c-.09.12-2.11-1.41-4.78-3S189.11,120.29,189.17,120.15Z" style="fill: rgb(38, 50, 56); transform-origin: 194.019px 123.033px;" id="eluwvrd9jph5" class="animable"></path><path d="M188.28,122.78a10.7,10.7,0,0,1,6.94,2.94c-.09.12-1.5-.82-3.41-1.62S188.25,122.93,188.28,122.78Z" style="fill: rgb(38, 50, 56); transform-origin: 191.75px 124.255px;" id="el3onx4mqtl2i" class="animable"></path><path d="M224.62,196.38l-6.84-14.25s8.61-35.5,6.44-43.65S213,120.91,213,120.91l-12.35,6.42s5.79,13,6.82,17.62-5.49,30.11-5.49,30.11l5.35,18.48Z" style="fill: rgb(154, 50, 37); transform-origin: 212.635px 158.645px;" id="el3bbaddj19f6" class="animable"></path><path d="M222.64,146.93a4.67,4.67,0,1,1-4.67-4.67A4.67,4.67,0,0,1,222.64,146.93Z" style="fill: rgb(255, 255, 255); transform-origin: 217.97px 146.93px;" id="el5h2kwd7tpq8" class="animable"></path><path d="M218.45,130a4.67,4.67,0,1,1-4.67-4.66A4.67,4.67,0,0,1,218.45,130Z" style="fill: rgb(255, 255, 255); transform-origin: 213.78px 130.01px;" id="el6slfj6k4z05" class="animable"></path><g id="elngs4ktwrr0r"><g style="opacity: 0.3; transform-origin: 206.849px 156.598px;" class="animable"><path d="M212.66,185.93a28.08,28.08,0,0,0,6.63-13.48,41.56,41.56,0,0,0,.3-13.81,72.43,72.43,0,0,0-3.18-12.76,43,43,0,0,0-5.35-11.09c-1.5-2.08-3.87-3.55-5.87-5.15s-7.05-2.65-9.59-2.31l-1.93,20.3Z" id="elkuz4bol0zwo" class="animable" style="transform-origin: 206.849px 156.598px;"></path></g></g><path d="M213.31,123.16a24.11,24.11,0,0,0-6.4,1.78,23.55,23.55,0,0,0-5.37,3.9,5.05,5.05,0,0,1,1.22-1.58,14.36,14.36,0,0,1,8.55-4.13A5.33,5.33,0,0,1,213.31,123.16Z" style="fill: rgb(38, 50, 56); transform-origin: 207.425px 125.945px;" id="elp9y3soqkq3" class="animable"></path><path d="M187.88,90l-9.57-.25s-21,33.37-22.12,39.87,6.52,41.91,11.05,52.42l18.7,2.53c-3.25-2.83-14.69-50.89-14.69-50.89Z" style="fill: rgb(255, 191, 157); transform-origin: 171.98px 137.16px;" id="el6le2lw363os" class="animable"></path><path d="M139.93,116.4l33.49-38.33,7.67-32.74L183,25s-35.3-5.65-53,25.43S131.58,109.36,139.93,116.4Z" style="fill: rgb(154, 50, 37); transform-origin: 152.88px 70.4992px;" id="elpvl2r5btdg" class="animable"></path><path d="M154.77,101.61C155,101.82,174.4,80,174.4,80s2.53,2.28,4.67-.08a3.31,3.31,0,0,0,.2-4.31,3.15,3.15,0,0,0-2.65-1.21h0l6.21-28.64-1-.48,3.67-19.91-3.43-.59L180,45.15S157,42.94,147.11,62.85,151.1,98.37,154.77,101.61Z" style="fill: rgb(154, 50, 37); transform-origin: 164.559px 63.1958px;" id="elh2827rptj2m" class="animable"></path><path d="M154.77,101.61a27.9,27.9,0,0,1-4.24-4.6,41.22,41.22,0,0,1-3.86-6.33,32.38,32.38,0,0,1-2.9-9.44,30,30,0,0,1,.73-12,33.44,33.44,0,0,1,6.26-12.46,30.87,30.87,0,0,1,5.53-5.28,33.1,33.1,0,0,1,7-3.87,37.63,37.63,0,0,1,8-2.24,38.12,38.12,0,0,1,8.64-.49l-.27.23c.57-5.55,1.18-11.33,1.79-17.23.11-1.05.22-2.09.33-3.11l0-.28.27.05,3.44.6.26,0-.05.26c-1.27,6.86-2.5,13.53-3.68,19.91l-.14-.27,1,.48.18.08,0,.19c-1.73,7.91-3.36,15.4-4.88,22.33-.37,1.73-.75,3.43-1.11,5.08l-.14.63-.06.3,0,.16v.11h0c-.1-.11.21.27-.22-.25h0a3.64,3.64,0,0,1,1.31.21,3.37,3.37,0,0,1,1.88,1.73,3.55,3.55,0,0,1,.22,2.48,3.78,3.78,0,0,1-1.41,2,2.92,2.92,0,0,1-2.29.56,4.37,4.37,0,0,1-2.06-1h.26c-6,6.72-10.91,12.12-14.33,15.83-1.71,1.86-3,3.29-4,4.25a8.13,8.13,0,0,1-1.47,1.38,2.76,2.76,0,0,0,.37-.35l1-1.11,3.89-4.3L174.27,79.9l.12-.13.14.12a4,4,0,0,0,1.87.9,2.58,2.58,0,0,0,2-.5,3.42,3.42,0,0,0,1.26-1.77,3.2,3.2,0,0,0-.21-2.19,3,3,0,0,0-2.8-1.69h0c-.44-.52-.12-.15-.22-.27h0v0l0-.07,0-.16.07-.31.13-.62c.36-1.66.72-3.35,1.1-5.09,1.49-6.93,3.11-14.42,4.82-22.33l.13.27-1-.47-.17-.09,0-.18c1.17-6.39,2.4-13.05,3.66-19.91l.21.3-3.44-.6.31-.23L182,27.94c-.62,5.9-1.22,11.68-1.8,17.23l0,.25-.25,0a39,39,0,0,0-16.46,2.67,33.26,33.26,0,0,0-6.92,3.8,30.28,30.28,0,0,0-5.46,5.18,33.1,33.1,0,0,0-6.23,12.28,29.91,29.91,0,0,0-.77,11.87,32,32,0,0,0,2.8,9.37,41.73,41.73,0,0,0,3.77,6.33,39.52,39.52,0,0,0,3,3.56c.35.39.65.66.84.85S154.77,101.61,154.77,101.61Z" style="fill: rgb(38, 50, 56); transform-origin: 164.611px 63.06px;" id="eljro9qgp8bf" class="animable"></path><g id="elxeh8il6o25"><g style="opacity: 0.3; transform-origin: 164.559px 63.1958px;" class="animable"><path d="M154.77,101.61C155,101.82,174.4,80,174.4,80s2.53,2.28,4.67-.08a3.31,3.31,0,0,0,.2-4.31,3.15,3.15,0,0,0-2.65-1.21h0l6.21-28.64-1-.48,3.67-19.91-3.43-.59L180,45.15S157,42.94,147.11,62.85,151.1,98.37,154.77,101.61Z" id="elglrjl6cg9ia" class="animable" style="transform-origin: 164.559px 63.1958px;"></path></g></g><path d="M178.83,45.09a9.23,9.23,0,0,1-.08,1.68c-.1,1.18-.23,2.72-.4,4.59-.36,3.87-.87,9.21-1.72,15.09-.42,2.93-.89,5.72-1.38,8.25-.24,1.26-.49,2.46-.73,3.57a2,2,0,0,0,0,1.46,1.07,1.07,0,0,0,1.1.46c.83-.32.77-1.39.87-2.11a16.37,16.37,0,0,0,0-2,9.21,9.21,0,0,1,0-1.26c0-.29.06-.44.08-.43s0,.6.09,1.68a13.29,13.29,0,0,1,.07,2,12.09,12.09,0,0,1-.13,1.25,1.54,1.54,0,0,1-.91,1.19,1.19,1.19,0,0,1-.87-.05,1.68,1.68,0,0,1-.69-.54,2.3,2.3,0,0,1-.08-1.76c.21-1.13.44-2.33.68-3.58.46-2.52.92-5.31,1.34-8.24.84-5.86,1.41-11.19,1.87-15.05.23-1.86.42-3.4.56-4.57A11.83,11.83,0,0,1,178.83,45.09Z" style="fill: rgb(38, 50, 56); transform-origin: 176.376px 62.8297px;" id="el6l127pswwah" class="animable"></path><path d="M175.14,45.16c.14,0,.12,7.18,0,16s-.42,16-.56,16-.13-7.18,0-16S175,45.15,175.14,45.16Z" style="fill: rgb(38, 50, 56); transform-origin: 174.858px 61.16px;" id="el6a6opo4van" class="animable"></path><path d="M161.84,26.33c.14,0,3.09,11.31,6.59,25.34s6.22,25.45,6.08,25.48-3.08-11.31-6.58-25.35S161.7,26.36,161.84,26.33Z" style="fill: rgb(38, 50, 56); transform-origin: 168.175px 51.74px;" id="elxu5czqez45b" class="animable"></path><path d="M128.28,54.07a1.64,1.64,0,0,1,.49.2l1.34.69L135,57.49l16.33,8.24,16.37,8.15,5,2.47,1.35.68a2.27,2.27,0,0,1,.45.27,1.7,1.7,0,0,1-.5-.17l-1.38-.6c-1.2-.53-2.92-1.32-5-2.32-4.24-2-10.05-4.82-16.45-8S139,60,134.87,57.82c-2.06-1.11-3.72-2-4.86-2.68l-1.29-.77A2.73,2.73,0,0,1,128.28,54.07Z" style="fill: rgb(38, 50, 56); transform-origin: 151.39px 65.685px;" id="elph4722f5z3j" class="animable"></path><path d="M135.66,42.34s.16.09.43.3l1.18,1c1,.84,2.46,2.09,4.24,3.64,3.55,3.11,8.41,7.47,13.75,12.3L168.91,72,173,75.73l1.12,1c.25.24.38.38.36.39a2.08,2.08,0,0,1-.43-.31c-.32-.25-.71-.57-1.18-1-1-.84-2.46-2.09-4.24-3.64-3.55-3.11-8.41-7.47-13.75-12.3L141.27,47.53l-4.13-3.77-1.12-1A2.26,2.26,0,0,1,135.66,42.34Z" style="fill: rgb(38, 50, 56); transform-origin: 155.071px 59.73px;" id="elbaatpv3lcw" class="animable"></path><path d="M147.22,32.37a2.72,2.72,0,0,1,.32.43l.85,1.27,3.05,4.73c2.54,4,6,9.56,9.81,15.72s7.18,11.79,9.56,15.9c1.2,2,2.14,3.72,2.78,4.89l.71,1.35a1.92,1.92,0,0,1,.21.49,2.1,2.1,0,0,1-.3-.44l-.8-1.3-2.91-4.8L160.81,54.8C157,48.65,153.64,43.09,151.12,39c-1.19-2-2.17-3.61-2.9-4.81l-.77-1.33A1.58,1.58,0,0,1,147.22,32.37Z" style="fill: rgb(38, 50, 56); transform-origin: 160.865px 54.76px;" id="eljnnbobe27f" class="animable"></path><path d="M133.86,109.62c-.09-.11,8.9-7.29,20.08-16S174.25,77.86,174.34,78s-8.9,7.28-20.08,16S134,109.74,133.86,109.62Z" style="fill: rgb(38, 50, 56); transform-origin: 154.1px 93.8097px;" id="elqguda2bhshr" class="animable"></path><path d="M123.51,68.3a2,2,0,0,1,.53,0l1.5.17c1.3.17,3.18.43,5.49.78,4.63.71,11,1.77,18,3s13.39,2.47,18,3.41c2.29.47,4.14.88,5.42,1.18l1.46.36a1.72,1.72,0,0,1,.5.16,1.71,1.71,0,0,1-.52-.06l-1.48-.27-5.45-1L149,72.8l-18-3.17-5.46-.94L124,68.43A2.18,2.18,0,0,1,123.51,68.3Z" style="fill: rgb(38, 50, 56); transform-origin: 148.96px 72.8218px;" id="elvlw11xrw9j" class="animable"></path><path d="M123.51,82.26a1.54,1.54,0,0,1,.51-.11l1.48-.2,5.45-.63c4.61-.5,11-1.16,18-1.84s13.43-1.23,18-1.58c2.31-.17,4.18-.29,5.48-.35l1.49,0a2.59,2.59,0,0,1,.52,0,1.85,1.85,0,0,1-.51.09l-1.49.15-5.46.52L149,80l-18,1.69-5.47.46-1.49.11Z" style="fill: rgb(38, 50, 56); transform-origin: 148.975px 79.8985px;" id="el31m6aaq4cei" class="animable"></path><path d="M127.5,97.78a1.81,1.81,0,0,1,.46-.25l1.35-.64,5-2.23c4.23-1.86,10.08-4.4,16.56-7.18s12.36-5.27,16.62-7l5.07-2.08,1.38-.54a1.82,1.82,0,0,1,.5-.16,1.81,1.81,0,0,1-.46.25l-1.34.63-5,2.23c-4.23,1.87-10.08,4.41-16.56,7.19s-12.36,5.26-16.62,7l-5.07,2.08-1.38.54A2.42,2.42,0,0,1,127.5,97.78Z" style="fill: rgb(38, 50, 56); transform-origin: 150.97px 87.74px;" id="el464h80xx7wf" class="animable"></path><path d="M175.5,24.57a98.93,98.93,0,0,1,.21,10.11,100.83,100.83,0,0,1-.31,10.12,99.06,99.06,0,0,1-.21-10.12A100.72,100.72,0,0,1,175.5,24.57Z" style="fill: rgb(38, 50, 56); transform-origin: 175.45px 34.685px;" id="elasn0qltit19" class="animable"></path><path d="M175.57,78.48a.45.45,0,0,1,.21.61.46.46,0,0,1-.62.21.46.46,0,0,1,.41-.82Z" style="fill: rgb(224, 224, 224); transform-origin: 175.384px 78.898px;" id="elu9y03vkrsrc" class="animable"></path><path d="M175.37,79.37a.42.42,0,0,1-.22-.05.45.45,0,0,1-.24-.28.5.5,0,0,1,0-.36.49.49,0,0,1,.28-.25.48.48,0,0,1,.37,0,.48.48,0,0,1,.22.64.49.49,0,0,1-.28.25Zm0-.91a.42.42,0,0,0-.39.24.43.43,0,0,0,.2.58.44.44,0,0,0,.58-.2.45.45,0,0,0-.2-.58A.43.43,0,0,0,175.37,78.46Z" style="fill: rgb(38, 50, 56); transform-origin: 175.352px 78.8817px;" id="elvnbr2xolv2" class="animable"></path><path d="M177.43,81.18S165.94,80,164.09,81s-1,2.07-1,2.07a30,30,0,0,0,4.53.88c1.1,0,7,2,7.69,3.45s1.41,3.24,4.16,4.4,7.17.53,7.17.53Z" style="fill: rgb(255, 191, 157); transform-origin: 174.768px 86.5493px;" id="elmge2zgle0bc" class="animable"></path><path d="M178.75,57.82s-1.55.32-1.81,3.71.1,9.17,0,9.7a31.45,31.45,0,0,0-.11,5.37c.18,1.52,1.15,3,.81,4.3s1.79,9.34,1.79,9.34l7.18,2.1a3,3,0,0,0,1.09-3.62c-.75-2.57-6.8-14.54-6.86-15.88S178.75,57.82,178.75,57.82Z" style="fill: rgb(255, 191, 157); transform-origin: 182.344px 75.08px;" id="elww43lekydh" class="animable"></path><path d="M171.55,60s.95,6.28,1.87,7.95a23.8,23.8,0,0,0,3.44,4L180,82.7l-7.19-.38s-.08-6.12-1.52-8.35-5.65-3.52-6.68-4.27a3.35,3.35,0,0,1-1.31-3.3l2,.71s-3.18-2.57-2.75-4.36,1-1.29,1-1.29l6.5,4.78s-1.64-4.85-.76-5.78A2.1,2.1,0,0,1,171.55,60Z" style="fill: rgb(255, 191, 157); transform-origin: 171.255px 71.2749px;" id="elgvblca7kitj" class="animable"></path><path d="M191.51,199.43c1.29.15,41.26,12.15,41.26,12.15L224.62,197l-9.28-5.56Z" style="fill: rgb(255, 191, 157); transform-origin: 212.14px 201.51px;" id="elpdrfayxlab" class="animable"></path><path d="M220.22,162.69c.56,1.85.14,3.61-.93,3.93s-2.41-.9-3-2.74-.14-3.6.93-3.93S219.66,160.85,220.22,162.69Z" style="fill: rgb(69, 90, 100); transform-origin: 218.248px 163.284px;" id="el1bijt9m53lh" class="animable"></path><path d="M228,173.43c-1.57-5.15-5.29-8.59-8.3-7.67s-4.19,5.84-2.61,11,5.28,8.59,8.3,7.67S229.59,178.59,228,173.43Zm-4.34,5.37c-2.1.61-4.66-1.59-5.73-4.91s-.22-6.51,1.88-7.12,4.66,1.59,5.73,4.91S225.78,178.19,223.68,178.8Z" style="fill: rgb(69, 90, 100); transform-origin: 222.548px 175.095px;" id="elcauo41ncif" class="animable"></path><path d="M170.66,152.09c-.82-4.73.5-7.74,2.84-11.93a25,25,0,0,1,12.61-10.62c5.4-2,8.66-3.13,14.11-1.21a20.15,20.15,0,0,1,7.7,5.57c5.08,5.37,7.21,12.8,8.78,20s2.4,14.27-1.84,20.34L189.75,179c-5.93-.1-9.8-5.48-13.18-10.36S171.68,157.94,170.66,152.09Z" style="fill: rgb(38, 50, 56); transform-origin: 194.196px 153.17px;" id="elryv9orjn52p" class="animable"></path><path d="M211.79,142.61c-2.23-5.14-14.37-12.21-20.68-9.3l-4.05,5.27a17.84,17.84,0,0,0-8.32,20.64l1.71,5.73,11.28,35.17a182.12,182.12,0,0,0,24.8-4.54l-4.37-15.13s8.81-4.58,6.84-16.12C218,158.59,214.87,149.69,211.79,142.61Z" style="fill: rgb(255, 191, 157); transform-origin: 198.64px 166.375px;" id="elbdbl2gis7wh" class="animable"></path><path d="M211.82,151.92a1.48,1.48,0,0,1-.87,1.88,1.43,1.43,0,0,1-1.88-.78,1.49,1.49,0,0,1,.88-1.87A1.4,1.4,0,0,1,211.82,151.92Z" style="fill: rgb(38, 50, 56); transform-origin: 210.448px 152.471px;" id="elhmi6nowcnsr" class="animable"></path><path d="M211.05,148c-.11.25-1.44-.18-3,.33s-2.36,1.65-2.59,1.52,0-.44.32-1a4,4,0,0,1,2-1.44,3.84,3.84,0,0,1,2.42,0C210.84,147.65,211.11,147.93,211.05,148Z" style="fill: rgb(38, 50, 56); transform-origin: 208.213px 148.537px;" id="elhj4mlo3751" class="animable"></path><path d="M198.48,157.11a1.49,1.49,0,0,1-.88,1.87,1.4,1.4,0,0,1-1.87-.77,1.49,1.49,0,0,1,.87-1.88A1.43,1.43,0,0,1,198.48,157.11Z" style="fill: rgb(38, 50, 56); transform-origin: 197.103px 157.659px;" id="elw14gqb6x9p" class="animable"></path><path d="M196.29,153.35c-.12.25-1.45-.18-3,.34s-2.36,1.64-2.59,1.51,0-.44.33-1a4.07,4.07,0,0,1,2-1.44,3.94,3.94,0,0,1,2.43,0C196.07,153,196.34,153.24,196.29,153.35Z" style="fill: rgb(38, 50, 56); transform-origin: 193.451px 153.889px;" id="el5py9zmm75ki" class="animable"></path><path d="M205.57,162.71a10.81,10.81,0,0,1,2.3-1.27c.38-.18.72-.38.69-.66s-.31-.67-.64-1.06l-2.14-2.55c-3-3.65-5.31-6.7-5.17-6.82s2.7,2.74,5.71,6.39l2.09,2.58a2.36,2.36,0,0,1,.71,1.45,1,1,0,0,1-.44.78,2.55,2.55,0,0,1-.62.31A11,11,0,0,1,205.57,162.71Z" style="fill: rgb(38, 50, 56); transform-origin: 204.862px 156.528px;" id="el3hygoi46apm" class="animable"></path><path d="M212.16,180.45a30.58,30.58,0,0,1-16.38,1.16s6.19,6.47,17.18,1.63Z" style="fill: rgb(255, 154, 108); transform-origin: 204.37px 182.743px;" id="eloo1p0ab88t" class="animable"></path><path d="M206.16,166.57a2.86,2.86,0,0,0-2.78-.19,2.65,2.65,0,0,0-1.41,1.51,1.67,1.67,0,0,0,.49,1.84,1.94,1.94,0,0,0,2.15-.17,5.85,5.85,0,0,0,1.54-1.81,1.91,1.91,0,0,0,.29-.59.52.52,0,0,0-.2-.56" style="fill: rgb(154, 50, 37); transform-origin: 204.165px 168.042px;" id="eliltlxsxcj3l" class="animable"></path><path d="M201.47,165.26c.24-.1.8,1.54,2.6,2.23s3.48-.08,3.58.14-.29.46-1,.73a4.38,4.38,0,0,1-2.95,0,3.73,3.73,0,0,1-2.07-1.91C201.31,165.76,201.36,165.29,201.47,165.26Z" style="fill: rgb(38, 50, 56); transform-origin: 204.526px 166.936px;" id="el73fizobtgub" class="animable"></path><path d="M194.85,148.1c0,.46-1.58.78-3.28,1.59s-3,1.78-3.34,1.49c-.16-.14,0-.61.4-1.2a6.15,6.15,0,0,1,2.25-1.76,6,6,0,0,1,2.79-.59C194.41,147.67,194.85,147.88,194.85,148.1Z" style="fill: rgb(38, 50, 56); transform-origin: 191.509px 149.43px;" id="elg22zjxb2se" class="animable"></path><path d="M208.86,142c-.15.43-1.31.43-2.57.83s-2.24,1-2.6.74c-.17-.14-.12-.54.24-1a3.73,3.73,0,0,1,1.89-1.27,3.78,3.78,0,0,1,2.27,0C208.65,141.44,208.92,141.75,208.86,142Z" style="fill: rgb(38, 50, 56); transform-origin: 206.232px 142.379px;" id="el3gqm05k1ei6" class="animable"></path><path d="M184.21,168.06a3.45,3.45,0,0,0-5.76-1c-.88,1.07-1.24,2.69-.2,5.16,2.79,6.57,8.81,2.42,8.74,2.22S185.39,170.77,184.21,168.06Z" style="fill: rgb(255, 191, 157); transform-origin: 182.303px 170.916px;" id="elmlz05xaysrj" class="animable"></path><path d="M183.93,172.83s-.08.13-.23.3a1.28,1.28,0,0,1-.85.38,3.08,3.08,0,0,1-2.39-2,4,4,0,0,1-.38-1.77,1.42,1.42,0,0,1,.48-1.24.63.63,0,0,1,.81,0c.16.15.18.3.22.29s.09-.17-.08-.42a.76.76,0,0,0-.43-.3.94.94,0,0,0-.7.11,1.74,1.74,0,0,0-.76,1.52,4.13,4.13,0,0,0,.39,2,3.21,3.21,0,0,0,2.88,2.12,1.36,1.36,0,0,0,1-.62C184,173,184,172.83,183.93,172.83Z" style="fill: rgb(255, 154, 108); transform-origin: 181.796px 170.933px;" id="elo47ni7mvdu" class="animable"></path><path d="M194.19,132.22c-2.62-1.46-5.79-.52-8.53.69a24.34,24.34,0,0,0-7.15,5.38c-2.21,2.2-4.35,4.59-5.41,7.51-1.68,4.64-.39,9.78,1,14.51a11.14,11.14,0,0,0,2.07,4.46c1.34,1.52,3.36,2.2,5.28,2.82,1.42.46,3.26.8,4.14-.4a3.65,3.65,0,0,0,.51-1.94,23.55,23.55,0,0,0-.39-7.95,12.12,12.12,0,0,1-.91-4c.15-2.38,2.29-4.06,3.95-5.77A21.07,21.07,0,0,0,194.19,132.22Z" style="fill: rgb(38, 50, 56); transform-origin: 183.262px 149.745px;" id="el5qalz2m3nbx" class="animable"></path><path d="M187,173.2c.56,1.84.14,3.6-.93,3.93s-2.41-.9-3-2.74-.14-3.61.93-3.93S186.44,171.36,187,173.2Z" style="fill: rgb(69, 90, 100); transform-origin: 185.028px 173.796px;" id="elsrd4vtvvgv" class="animable"></path><path d="M194.8,183.94c-1.58-5.16-5.29-8.59-8.3-7.68s-4.19,5.85-2.62,11,5.29,8.59,8.3,7.68S196.37,189.09,194.8,183.94Zm-4.34,5.36c-2.1.61-4.66-1.58-5.73-4.9s-.22-6.51,1.88-7.12,4.66,1.58,5.73,4.91S192.56,188.69,190.46,189.3Z" style="fill: rgb(69, 90, 100); transform-origin: 189.34px 185.6px;" id="elg98ps7e6hdo" class="animable"></path><path d="M267.29,426.55c7.59-1.1,14.15-5.84,16.74-12.07a93.83,93.83,0,0,1-25.45-35.84A21.64,21.64,0,0,0,270,373.57c-12.89-5.47-22.86-16.65-29.63-27.62l-64.26-6.07c-9.34,6.33-22.71,13.42-33.88,17.08,4.11,3.17,10.52,6.79,14.64,10-9.48,7.85-22.31,15.72-35.14,18.59,4.06,8.63,8.46,14.07,15.49,21.2a130.22,130.22,0,0,1-39,28.44,23.36,23.36,0,0,0,13.49,8.42,26,26,0,0,1-5,3.58c1.79,4.44,6.9,6.37,12.24,6.25q-1.56,2.3-3.14,4.58l26.39,8c6.53,2,13.47,4,20,2.69,1.93-.38,4-1,5.83-.24s2,3.76,0,3.76c3.24,2.85,8.59,2.08,12.76.74s8.83-3,13-1.34,7.06,6.23,11.31,5.46c2.82-.51,4.44-3.35,7.3-3.71,2.17-.27,4.23,1,6.13,2,15.17,8.38,36.4,6.62,48.51-4l.81,5.21c4.91-3.32,13-2.09,17.11-6.15,2.42-2.4,2.63-5.89,3.31-9.06s2.44-6.65,6.06-7.34C280.77,449.77,269.92,438.81,267.29,426.55Z" style="fill: rgb(154, 50, 37); transform-origin: 196.275px 410.274px;" id="elzt7jq4ivgji" class="animable"></path><path d="M134.7,434.92a4.67,4.67,0,1,1-4.67-4.66A4.67,4.67,0,0,1,134.7,434.92Z" style="fill: rgb(255, 255, 255); transform-origin: 130.03px 434.93px;" id="elwbqo5kxb2g" class="animable"></path><path d="M201,462.3a4.67,4.67,0,1,1-4.67-4.67A4.66,4.66,0,0,1,201,462.3Z" style="fill: rgb(255, 255, 255); transform-origin: 196.33px 462.3px;" id="elonapq8oncer" class="animable"></path><path d="M177.08,451.14a4.67,4.67,0,1,1-4.67-4.66A4.67,4.67,0,0,1,177.08,451.14Z" style="fill: rgb(255, 255, 255); transform-origin: 172.41px 451.15px;" id="el4dzjsv2nc6o" class="animable"></path><path d="M257.22,378.09a16.07,16.07,0,0,1-1.45,1.49,29.39,29.39,0,0,1-4.75,3.6,34,34,0,0,1-8.65,3.77,36.85,36.85,0,0,1-5.79,1.15,10.68,10.68,0,0,1-3.25,0,2.62,2.62,0,0,1-1.53-.87,1.88,1.88,0,0,1-.25-1.8,3.49,3.49,0,0,1,2.83-2.17,18.68,18.68,0,0,1,3.74-.13,7.09,7.09,0,0,0,3.64-.69,2.17,2.17,0,0,0,1.09-1.39,1.51,1.51,0,0,0-.52-1.6,2.94,2.94,0,0,0-1.79-.56,7.83,7.83,0,0,0-2,.23,36.78,36.78,0,0,0-4.08,1.17c-2.74.93-5.47,2.13-8.41,3.06a25.07,25.07,0,0,1-9.34,1.3,13.07,13.07,0,0,1-4.77-1.21,4,4,0,0,1-1.83-1.82,5.64,5.64,0,0,1-.34-2.56,7.41,7.41,0,0,0-.11-2.41,3.06,3.06,0,0,0-1.32-1.84,2.06,2.06,0,0,0-2.14.1,5.37,5.37,0,0,0-1.42,2,10.86,10.86,0,0,1-1.36,2.26,2.66,2.66,0,0,1-2.59.89,3.07,3.07,0,0,1-2.06-1.83,4.65,4.65,0,0,1-.32-2.72,15.84,15.84,0,0,0,.23-2.32,3.1,3.1,0,0,0-.72-2,4,4,0,0,0-4-1.15,2.81,2.81,0,0,0-2,3.25,5.26,5.26,0,0,1,.4,2.34,1.56,1.56,0,0,1-.81,1,2.35,2.35,0,0,1-1.24.21,4.43,4.43,0,0,1-2.2-.84,5.07,5.07,0,0,1-1.43-1.82,21.39,21.39,0,0,0-1.07-1.9A3.91,3.91,0,0,0,184,371a6,6,0,0,0-4.06-.12,40.06,40.06,0,0,0-3.88,1.59,14.08,14.08,0,0,1-8.17.62,20.13,20.13,0,0,1-7.2-3c-4.24-2.88-7.15-6.78-9.8-10.24l-.17-.23.27-.08a91.44,91.44,0,0,0,14-5.43,53.3,53.3,0,0,0,9.56-6.1,40.73,40.73,0,0,0,5.12-5.05l1.16-1.48.41-.49s-.11.18-.36.53-.61.86-1.12,1.51a39.08,39.08,0,0,1-5.07,5.15,52.11,52.11,0,0,1-9.56,6.21,88.83,88.83,0,0,1-14,5.52l.09-.31c2.67,3.46,5.57,7.31,9.74,10.11a19.63,19.63,0,0,0,7,3,13.65,13.65,0,0,0,7.9-.61,36.66,36.66,0,0,1,3.93-1.61,6.53,6.53,0,0,1,4.4.13A4.41,4.41,0,0,1,186,372a18.17,18.17,0,0,1,1.1,2,4.72,4.72,0,0,0,1.29,1.65,4,4,0,0,0,1.94.74,1.29,1.29,0,0,0,1.51-.85,5,5,0,0,0-.4-2.1,3,3,0,0,1,.42-2.39,3.67,3.67,0,0,1,2-1.47,4.46,4.46,0,0,1,4.54,1.3,3.62,3.62,0,0,1,.84,2.33,16.69,16.69,0,0,1-.23,2.39,4.23,4.23,0,0,0,.27,2.45,2.57,2.57,0,0,0,1.7,1.54,2.19,2.19,0,0,0,2.09-.73,10.29,10.29,0,0,0,1.29-2.16,5.74,5.74,0,0,1,1.58-2.14,2.56,2.56,0,0,1,2.69-.13,3.51,3.51,0,0,1,1.56,2.15,7.76,7.76,0,0,1,.13,2.57,5.12,5.12,0,0,0,.3,2.33,3.36,3.36,0,0,0,1.6,1.58,12.7,12.7,0,0,0,4.57,1.17,24.69,24.69,0,0,0,9.16-1.27c2.9-.91,5.64-2.1,8.4-3a37.19,37.19,0,0,1,4.14-1.18,8.43,8.43,0,0,1,2.13-.23,3.36,3.36,0,0,1,2.05.67,2,2,0,0,1,.66,2,2.65,2.65,0,0,1-1.3,1.65,7.43,7.43,0,0,1-3.86.73,18.44,18.44,0,0,0-3.66.11,3.12,3.12,0,0,0-2.56,1.91,1.52,1.52,0,0,0,.19,1.45,2.25,2.25,0,0,0,1.32.76,10.32,10.32,0,0,0,3.14,0,36.45,36.45,0,0,0,5.75-1.1,34.62,34.62,0,0,0,8.62-3.66,29.92,29.92,0,0,0,4.79-3.51c.52-.44.87-.81,1.13-1.05Z" style="fill: rgb(38, 50, 56); transform-origin: 203.97px 364.607px;" id="el53b49hlg4od" class="animable"></path><path d="M179.73,370.7c-.06-.06,1-1.3,2.44-3.51a68.44,68.44,0,0,0,4.89-9,56,56,0,0,0,3.43-9.68c.63-2.55.79-4.18.89-4.17a5,5,0,0,1,0,1.15,22.73,22.73,0,0,1-.48,3.1,48.53,48.53,0,0,1-3.31,9.82,57,57,0,0,1-5.07,9c-.77,1.08-1.44,1.92-1.93,2.48A4.7,4.7,0,0,1,179.73,370.7Z" style="fill: rgb(38, 50, 56); transform-origin: 185.57px 357.52px;" id="elk43q6lmhv1b" class="animable"></path><circle cx="196.79" cy="358.3" r="4.67" style="fill: rgb(255, 255, 255); transform-origin: 196.79px 358.3px;" id="elepqj31c4axs" class="animable"></circle><path d="M200.78,345.1a4.79,4.79,0,0,1-.07,1.1c-.09.71-.24,1.73-.49,3a84.59,84.59,0,0,1-2.52,9.6,66.67,66.67,0,0,1-3.64,9.24,25.78,25.78,0,0,1-1.5,2.62,4.48,4.48,0,0,1-.68.87c-.07-.05.81-1.35,1.85-3.65a88.25,88.25,0,0,0,3.48-9.24c1.18-3.67,2.08-7.05,2.65-9.51.3-1.23.5-2.24.65-2.93A4.24,4.24,0,0,1,200.78,345.1Z" style="fill: rgb(38, 50, 56); transform-origin: 196.331px 358.315px;" id="el3gn6lf5dm6" class="animable"></path><path d="M209.8,377.8a4.55,4.55,0,0,1-.06-1.1c0-.71,0-1.74.07-3,.1-2.53.32-6,.71-9.87s.88-7.32,1.39-9.81c.25-1.24.51-2.24.71-2.92a5.07,5.07,0,0,1,.37-1,4.12,4.12,0,0,1-.18,1.09c-.14.69-.33,1.69-.53,2.94-.42,2.49-.85,6-1.25,9.79s-.66,7.32-.85,9.84c-.09,1.17-.17,2.17-.23,3A4.16,4.16,0,0,1,209.8,377.8Z" style="fill: rgb(38, 50, 56); transform-origin: 211.36px 363.95px;" id="ell2ljueug63" class="animable"></path><path d="M234.7,352.35a4.67,4.67,0,1,1-4.67-4.67A4.67,4.67,0,0,1,234.7,352.35Z" style="fill: rgb(255, 255, 255); transform-origin: 230.03px 352.35px;" id="els7ref68nbx" class="animable"></path><path d="M242.89,379.39a4.55,4.55,0,0,1-.61-.9c-.36-.6-.86-1.48-1.45-2.58a83.93,83.93,0,0,1-4-8.9,79.58,79.58,0,0,1-3-9.32c-.3-1.22-.52-2.21-.64-2.89a4.79,4.79,0,0,1-.15-1.08,4,4,0,0,1,.35,1c.22.78.48,1.73.8,2.84.69,2.4,1.72,5.68,3.09,9.23s2.8,6.68,3.89,8.92l1.3,2.65A4.29,4.29,0,0,1,242.89,379.39Z" style="fill: rgb(38, 50, 56); transform-origin: 237.965px 366.555px;" id="elh3k87o8dg7u" class="animable"></path><path d="M238,352.35a5.49,5.49,0,0,1,.72,1l1.82,2.79c1.53,2.36,3.69,5.58,6.18,9.06s4.87,6.56,6.6,8.77l2.05,2.62a5.66,5.66,0,0,1,.71,1,5.84,5.84,0,0,1-.86-.87c-.54-.58-1.28-1.44-2.19-2.52-1.81-2.15-4.23-5.2-6.73-8.69s-4.62-6.76-6.08-9.17c-.72-1.2-1.3-2.19-1.67-2.88A5.82,5.82,0,0,1,238,352.35Z" style="fill: rgb(38, 50, 56); transform-origin: 247.04px 364.97px;" id="el7o4txt9pdc" class="animable"></path><path d="M266.39,426.82a12.62,12.62,0,0,1-2.14,1.47,19.09,19.09,0,0,1-7.18,2.35H257l0,0a.93.93,0,0,1-.19-.78,1.45,1.45,0,0,1,.42-.69,4.23,4.23,0,0,1,1.36-.85,4.53,4.53,0,0,0,1.43-.74c.41-.32.81-.87.48-1.3s-1-.51-1.57-.63a10.62,10.62,0,0,0-1.89-.2,15.84,15.84,0,0,0-4,.47,44.56,44.56,0,0,0-8.49,3.43,33.83,33.83,0,0,1-4.74,1.85,17.31,17.31,0,0,1-5.32.69c-3.7-.09-7.41-1.25-11.17-2.44a59.29,59.29,0,0,1-5.71-2.05,20,20,0,0,1-5.38-3.29c-1.62-1.41-2.71-3.45-4.72-4.13a3,3,0,0,0-2.81.61,1,1,0,0,0-.33,1.2c.18.42.67.71,1.08,1.16a2.06,2.06,0,0,1,.46,1.78,2.75,2.75,0,0,1-1,1.56,4.09,4.09,0,0,1-3.47.55,6.86,6.86,0,0,1-3.07-1.73,20.43,20.43,0,0,1-2.26-2.68,6.51,6.51,0,0,0-2.71-2.36,3.22,3.22,0,0,0-1.71-.14,1.84,1.84,0,0,0-1.33.84,2.1,2.1,0,0,0,.13,1.61,4.63,4.63,0,0,1,.25.94,1.66,1.66,0,0,1-.18,1.06,2.08,2.08,0,0,1-1.82.87,3.33,3.33,0,0,1-1.88-.55,6.55,6.55,0,0,1-2-3.11,5.09,5.09,0,0,0-2-2.7,2.35,2.35,0,0,0-1.54-.27,1.55,1.55,0,0,0-1.22.75c-.19.4.09.92.37,1.41a5.11,5.11,0,0,1,.41.81,1.14,1.14,0,0,1-.09,1,1.39,1.39,0,0,1-.86.55,4,4,0,0,1-.9.08l-1.71-.09a30.5,30.5,0,0,1-3.34-.46,32.78,32.78,0,0,1-6.25-1.87,29.28,29.28,0,0,1-10-6.8l-.38-.41.56.05a13.6,13.6,0,0,0,4.37,0,4,4,0,0,0,1.82-.87,2.79,2.79,0,0,0,1-1.66,1.86,1.86,0,0,0-.66-1.65,3,3,0,0,0-1.69-.72,9.83,9.83,0,0,0-3.68.36,47.1,47.1,0,0,1-6.67,1.6,22.15,22.15,0,0,1-5.81.17,14.56,14.56,0,0,1-7.48-2.93,9.83,9.83,0,0,1-1.5-1.51c-.28-.39-.41-.6-.41-.6s0,0,.13.13l.33.43a11.17,11.17,0,0,0,1.53,1.45,14.58,14.58,0,0,0,7.43,2.78,22.1,22.1,0,0,0,5.73-.21,47.71,47.71,0,0,0,6.63-1.64,10.24,10.24,0,0,1,3.82-.4,3.43,3.43,0,0,1,1.9.81,2.28,2.28,0,0,1,.79,2,3.75,3.75,0,0,1-3.08,2.88,14.14,14.14,0,0,1-4.5.06l.17-.36a28.79,28.79,0,0,0,9.89,6.66,31.82,31.82,0,0,0,6.16,1.83,32.32,32.32,0,0,0,3.28.44l1.68.09c.53,0,1.13-.06,1.35-.41s-.06-.85-.34-1.34a5.21,5.21,0,0,1-.4-.82,1.38,1.38,0,0,1,0-1,2,2,0,0,1,1.61-1.06,2.9,2.9,0,0,1,1.87.33,5.56,5.56,0,0,1,2.19,2.94,6,6,0,0,0,1.85,2.89,2.78,2.78,0,0,0,1.58.45,1.54,1.54,0,0,0,1.37-.61,1.94,1.94,0,0,0-.11-1.58,2.58,2.58,0,0,1-.11-2,2.33,2.33,0,0,1,1.7-1.12,3.75,3.75,0,0,1,2,.16,7.12,7.12,0,0,1,2.95,2.53,19.36,19.36,0,0,0,2.19,2.62,6.26,6.26,0,0,0,2.84,1.6,3.56,3.56,0,0,0,3-.45,1.8,1.8,0,0,0,.44-2.59c-.32-.38-.86-.67-1.15-1.29a1.51,1.51,0,0,1,.43-1.78,3.52,3.52,0,0,1,3.33-.72,6.74,6.74,0,0,1,2.72,1.93,30,30,0,0,0,2.18,2.3,19.28,19.28,0,0,0,5.23,3.22,57.49,57.49,0,0,0,5.66,2c3.76,1.19,7.43,2.35,11,2.45s6.93-1.1,9.88-2.46a44.24,44.24,0,0,1,8.58-3.41,15.56,15.56,0,0,1,4.13-.45,12.38,12.38,0,0,1,1.94.21,2.73,2.73,0,0,1,1.75.78.92.92,0,0,1,.06,1,2.29,2.29,0,0,1-.6.7,5,5,0,0,1-1.51.77,4,4,0,0,0-1.29.78.83.83,0,0,0-.22,1.15l-.1,0a19.66,19.66,0,0,0,7.14-2.22c.75-.41,1.3-.77,1.66-1S266.39,426.82,266.39,426.82Z" style="fill: rgb(38, 50, 56); transform-origin: 201.795px 418.863px;" id="ellqdtedq3eb" class="animable"></path><path d="M174.62,375.94c.1.08-1.24,1.6-2.72,4.48l-.56,1.14c-.17.4-.34.83-.52,1.27-.39.86-.68,1.84-1,2.85a58.9,58.9,0,0,0-1.57,6.77c-.82,4.88-1.2,9.36-1.61,12.59-.2,1.61-.38,2.92-.54,3.82a7.55,7.55,0,0,1-.29,1.38,7.08,7.08,0,0,1,.09-1.41c.1-1,.22-2.29.37-3.83.32-3.23.64-7.72,1.46-12.64a56.18,56.18,0,0,1,1.63-6.83c.37-1,.68-2,1.09-2.87l.56-1.27.6-1.14a17.1,17.1,0,0,1,1.14-1.89,11.17,11.17,0,0,1,1-1.35A9.12,9.12,0,0,1,174.62,375.94Z" style="fill: rgb(38, 50, 56); transform-origin: 170.215px 393.09px;" id="elqvhe0g09kkp" class="animable"></path><path d="M189.55,379.91a10.9,10.9,0,0,1-.17,1.61c-.14,1-.37,2.52-.69,4.36-.63,3.67-1.66,8.72-3.06,14.23s-2.91,10.43-4.1,14c-.6,1.76-1.1,3.18-1.48,4.16a10.68,10.68,0,0,1-.62,1.49,10,10,0,0,1,.43-1.56l1.32-4.2c1.1-3.55,2.55-8.48,3.95-14s2.47-10.52,3.2-14.17c.35-1.76.63-3.21.85-4.32A8.87,8.87,0,0,1,189.55,379.91Z" style="fill: rgb(38, 50, 56); transform-origin: 184.49px 399.835px;" id="elaqpeqp6ddmc" class="animable"></path><path d="M190.49,419.59a7.32,7.32,0,0,1,.47-1.28c.33-.8.8-2,1.37-3.41,1.14-2.89,2.59-6.93,3.88-11.49a120.88,120.88,0,0,0,2.67-11.82c.27-1.53.47-2.77.6-3.63a6.3,6.3,0,0,1,.27-1.33,7.21,7.21,0,0,1-.07,1.35c-.07.87-.21,2.12-.43,3.66a95.91,95.91,0,0,1-2.54,11.91,94.71,94.71,0,0,1-4,11.49c-.61,1.43-1.14,2.58-1.53,3.36A7.54,7.54,0,0,1,190.49,419.59Z" style="fill: rgb(38, 50, 56); transform-origin: 195.123px 403.11px;" id="elycnanbm4q1" class="animable"></path><path d="M214.83,386.24a8.35,8.35,0,0,1-.15,1.43c-.13.92-.36,2.24-.67,3.86a123.29,123.29,0,0,1-3.16,12.54,114.05,114.05,0,0,1-4.48,12.12c-.66,1.52-1.23,2.73-1.66,3.55A7,7,0,0,1,204,421a6.73,6.73,0,0,1,.51-1.34c.37-.85.88-2.08,1.5-3.61,1.25-3.06,2.84-7.33,4.33-12.14s2.57-9.23,3.29-12.46c.33-1.53.61-2.82.83-3.82A6.88,6.88,0,0,1,214.83,386.24Z" style="fill: rgb(38, 50, 56); transform-origin: 209.415px 403.62px;" id="elj2uj8gpkbm" class="animable"></path><path d="M242.63,417.3a4.67,4.67,0,1,1-4.67-4.67A4.67,4.67,0,0,1,242.63,417.3Z" style="fill: rgb(255, 255, 255); transform-origin: 237.96px 417.3px;" id="elgfjovx3ar27" class="animable"></path><path d="M236.48,425.56a6.67,6.67,0,0,1,.17-1.35c.16-1,.36-2.19.6-3.66.49-3.09,1.07-7.37,1.45-12.13s.46-9.08.46-12.21c0-1.48,0-2.73,0-3.7a7.35,7.35,0,0,1,0-1.37,6.6,6.6,0,0,1,.16,1.36c.08.87.14,2.14.19,3.71a115.79,115.79,0,0,1-.31,12.25,118,118,0,0,1-1.6,12.15c-.3,1.55-.56,2.79-.77,3.64A7.84,7.84,0,0,1,236.48,425.56Z" style="fill: rgb(38, 50, 56); transform-origin: 238.017px 408.35px;" id="elysgsywfgmoi" class="animable"></path><path d="M260.49,426a9.2,9.2,0,0,1-.85-1.31c-.52-.86-1.23-2.13-2-3.75a132.84,132.84,0,0,1-5.51-12.92c-1.91-5.15-3.46-9.86-4.54-13.29-.55-1.71-1-3.1-1.25-4.07a7.94,7.94,0,0,1-.38-1.51,9.09,9.09,0,0,1,.58,1.45l1.4,4c1.16,3.39,2.77,8.08,4.68,13.22s3.82,9.7,5.35,12.94c.75,1.63,1.41,2.92,1.87,3.81A8.7,8.7,0,0,1,260.49,426Z" style="fill: rgb(38, 50, 56); transform-origin: 253.225px 407.575px;" id="el4r1jjmhiy8x" class="animable"></path><path d="M137,411.8a10.51,10.51,0,0,1-.81,1.47c-.54.92-1.36,2.24-2.42,3.84-2.11,3.21-5.22,7.52-8.91,12.07s-7.26,8.48-9.92,11.25c-1.34,1.38-2.43,2.48-3.21,3.22a10.62,10.62,0,0,1-1.24,1.12,11.06,11.06,0,0,1,1.1-1.26l3.08-3.34c2.59-2.82,6.1-6.78,9.79-11.32s6.82-8.8,9-12c1.1-1.57,2-2.85,2.56-3.74A10.39,10.39,0,0,1,137,411.8Z" style="fill: rgb(38, 50, 56); transform-origin: 123.745px 428.285px;" id="elgwvq5ltne45" class="animable"></path><path d="M139.55,421a10.91,10.91,0,0,1-.68,1.59c-.47,1-1.2,2.45-2.15,4.2-1.9,3.51-4.74,8.23-8,13.33s-6.47,9.61-8.85,12.81c-1.18,1.6-2.17,2.87-2.87,3.74a9.84,9.84,0,0,1-1.14,1.31,12.16,12.16,0,0,1,1-1.43l2.73-3.84c2.3-3.24,5.4-7.78,8.71-12.87s6.18-9.78,8.15-13.23c1-1.72,1.77-3.13,2.3-4.11A10.6,10.6,0,0,1,139.55,421Z" style="fill: rgb(38, 50, 56); transform-origin: 127.705px 439.49px;" id="elgk3xs8wjkmc" class="animable"></path><path d="M169.25,471.3a8.77,8.77,0,0,1,.24-1.59c.2-1.1.47-2.55.8-4.3.68-3.63,1.59-8.65,2.5-14.21s1.61-10.62,2.05-14.28c.21-1.77.38-3.23.51-4.35a8.69,8.69,0,0,1,.23-1.59,11,11,0,0,1,0,1.61c-.05,1-.16,2.53-.34,4.37-.35,3.68-1,8.75-1.91,14.32s-1.88,10.59-2.65,14.2c-.38,1.81-.72,3.27-1,4.28A8.31,8.31,0,0,1,169.25,471.3Z" style="fill: rgb(38, 50, 56); transform-origin: 172.43px 451.14px;" id="elbvsfs5tra3" class="animable"></path><path d="M195.65,472.75c-.14,0,1-8.54,2.47-19s2.83-19,3-18.94-1,8.53-2.47,19S195.79,472.77,195.65,472.75Z" style="fill: rgb(38, 50, 56); transform-origin: 198.387px 453.78px;" id="el1w6yiiyetyj" class="animable"></path><path d="M212.48,473.3a11,11,0,0,1-.08-1.61c0-1,0-2.54,0-4.39,0-3.71.13-8.83.36-14.48s.57-10.77.9-14.46c.16-1.85.33-3.34.46-4.37a8.63,8.63,0,0,1,.26-1.59,10.82,10.82,0,0,1-.06,1.61c-.07,1.13-.17,2.6-.29,4.38-.24,3.69-.51,8.8-.75,14.45s-.38,10.67-.51,14.46c-.06,1.79-.11,3.26-.15,4.39A8.79,8.79,0,0,1,212.48,473.3Z" style="fill: rgb(38, 50, 56); transform-origin: 213.392px 452.85px;" id="el0w8ulxrlyls" class="animable"></path><path d="M267.12,471.3a11.3,11.3,0,0,1-.12-1.44c-.08-.92-.2-2.26-.49-3.88a9.11,9.11,0,0,0-.75-2.53c-.48-.86-1-1.78-1.47-2.77a70,70,0,0,1-6.42-19.09c-.28-1.65-.45-3-.54-3.91a9.22,9.22,0,0,1-.08-1.45,6.77,6.77,0,0,1,.28,1.42c.15.92.38,2.24.71,3.87a78.17,78.17,0,0,0,3.63,12.42c.9,2.36,1.88,4.56,2.85,6.53.48,1,1,1.91,1.41,2.77a8.9,8.9,0,0,1,.74,2.67,28.69,28.69,0,0,1,.33,3.95A5.22,5.22,0,0,1,267.12,471.3Z" style="fill: rgb(38, 50, 56); transform-origin: 262.233px 453.765px;" id="elylpavkmrqe" class="animable"></path><path d="M174.87,361.4a4.67,4.67,0,1,1-4.67-4.66A4.67,4.67,0,0,1,174.87,361.4Z" style="fill: rgb(255, 255, 255); transform-origin: 170.2px 361.41px;" id="eli706xf455p" class="animable"></path><path d="M204.45,411.44a4.67,4.67,0,1,1-4.66-4.67A4.66,4.66,0,0,1,204.45,411.44Z" style="fill: rgb(255, 255, 255); transform-origin: 199.78px 411.44px;" id="ele2hfcv55i3u" class="animable"></path><path d="M181.75,393.09a4.67,4.67,0,1,1-4.67-4.66A4.67,4.67,0,0,1,181.75,393.09Z" style="fill: rgb(255, 255, 255); transform-origin: 177.08px 393.1px;" id="el2ja60ucn17g" class="animable"></path><path d="M194.06,134.79a5.09,5.09,0,0,0-.47,3.38,3.76,3.76,0,0,0,2.09,2.62,3,3,0,0,0,3.24-.52,2.52,2.52,0,0,0,.33-3.18,1.88,1.88,0,0,0-2.35-.6,1.37,1.37,0,0,0-.14,2.21,1.3,1.3,0,0,1-1.4-1,1.71,1.71,0,0,1,.77-1.67,2.49,2.49,0,0,1,1.87-.3,3.31,3.31,0,0,1,2,5.25,4.92,4.92,0,0,1-3.31,1.67,5.7,5.7,0,0,1-3.79-.63,3.29,3.29,0,0,1-1.59-3.31" style="fill: rgb(38, 50, 56); transform-origin: 195.975px 138.766px;" id="eljelryxwep2r" class="animable"></path><path d="M254.41,363.25a6.15,6.15,0,0,1-4.63,2.66,4.67,4.67,0,0,1-4.67-4.67,4.49,4.49,0,0,1,3-4.35s3.42,3.36,4.07,4.2A19.52,19.52,0,0,0,254.41,363.25Z" style="fill: rgb(255, 255, 255); transform-origin: 249.759px 361.4px;" id="eleec2v3mja9t" class="animable"></path><path d="M266.86,394.6a6.11,6.11,0,0,1-5.06,1.68,4.66,4.66,0,0,1-3.65-5.49,5.11,5.11,0,0,1,4.22-3.79s2.27,3.94,2.74,4.89A29.09,29.09,0,0,0,266.86,394.6Z" style="fill: rgb(255, 255, 255); transform-origin: 262.459px 391.666px;" id="elsjdckdyzvpj" class="animable"></path><path d="M147.54,373.85a6.26,6.26,0,0,1,1.73,5.13,4.66,4.66,0,0,1-5.51,3.63,5.12,5.12,0,0,1-3.77-4.23s3.69-2.08,4.59-2.64S147.54,373.85,147.54,373.85Z" style="fill: rgb(255, 255, 255); transform-origin: 144.653px 378.278px;" id="elz3due3du50p" class="animable"></path><path d="M152.12,398.21a4.67,4.67,0,1,1-4.67-4.67A4.66,4.66,0,0,1,152.12,398.21Z" style="fill: rgb(255, 255, 255); transform-origin: 147.45px 398.21px;" id="elftmnanoqj5j" class="animable"></path><circle cx="220.7" cy="375.94" r="4.67" style="fill: rgb(255, 255, 255); transform-origin: 220.7px 375.94px;" id="el5a5jhkoceto" class="animable"></circle><path d="M231.67,398.21a4.67,4.67,0,1,1-4.67-4.67A4.66,4.66,0,0,1,231.67,398.21Z" style="fill: rgb(255, 255, 255); transform-origin: 227px 398.21px;" id="ela7mq77jenze" class="animable"></path><path d="M271.79,411.8a4.67,4.67,0,1,1-4.66-4.66A4.67,4.67,0,0,1,271.79,411.8Z" style="fill: rgb(255, 255, 255); transform-origin: 267.12px 411.81px;" id="elar3igh2gno7" class="animable"></path><circle cx="156.82" cy="428.97" r="4.67" style="fill: rgb(255, 255, 255); transform-origin: 156.82px 428.97px;" id="elud48071mh6k" class="animable"></circle><path d="M252.61,441.58a4.67,4.67,0,1,1-4.67-4.67A4.67,4.67,0,0,1,252.61,441.58Z" style="fill: rgb(255, 255, 255); transform-origin: 247.94px 441.58px;" id="elathahdnhuhl" class="animable"></path><path d="M277.74,456.85a4.67,4.67,0,1,1-4.67-4.67A4.67,4.67,0,0,1,277.74,456.85Z" style="fill: rgb(255, 255, 255); transform-origin: 273.07px 456.85px;" id="el6n8qg5clm7l" class="animable"></path><path d="M227,449.26a4.67,4.67,0,1,1-4.67-4.67A4.67,4.67,0,0,1,227,449.26Z" style="fill: rgb(255, 255, 255); transform-origin: 222.33px 449.26px;" id="elvk6vpeocbk8" class="animable"></path><path d="M247.3,467.82a4.67,4.67,0,1,1-4.67-4.67A4.67,4.67,0,0,1,247.3,467.82Z" style="fill: rgb(255, 255, 255); transform-origin: 242.63px 467.82px;" id="elfwonrdzeibo" class="animable"></path><path d="M146.4,453.77a4.67,4.67,0,1,1-4.66-4.67A4.66,4.66,0,0,1,146.4,453.77Z" style="fill: rgb(255, 255, 255); transform-origin: 141.73px 453.77px;" id="eljadg42vbegj" class="animable"></path><path d="M210.56,386a4.67,4.67,0,1,1-4.67-4.66A4.67,4.67,0,0,1,210.56,386Z" style="fill: rgb(255, 255, 255); transform-origin: 205.89px 386.01px;" id="el0o5bw8lzcccj" class="animable"></path><g id="el67fy50o26qq"><g style="opacity: 0.3; transform-origin: 207.745px 378.819px;" class="animable"><path d="M160.92,369.9c4.07,2.72,9.6,4.21,14.22,2.67,1.59-.53,3-1.38,4.59-1.87a5.94,5.94,0,0,1,4.94.36c1.47,1,1.85,2.75,2.86,4.1s3.68,2.14,4.43.73c.46-.85-.18-1.86-.33-2.81a3.13,3.13,0,0,1,2.61-3.37,4.11,4.11,0,0,1,4.32,2c.73,1.47.13,3.1.06,4.68s1,3.56,2.78,3.54c3.19,0,2.82-5.67,6-5.54,1.7.07,2.61,1.88,2.64,3.35s-.35,3,.53,4.33a5.51,5.51,0,0,0,3.13,1.9c4.24,1.22,8.79.39,12.85-.94s7.88-3.18,12.11-4.07c1.38-.29,3.12-.38,4,.63a2,2,0,0,1-.4,2.84,5.54,5.54,0,0,1-3.31,1c-1.79.06-3.68-.24-5.33.32s-2.77,2.55-1.5,3.7a4.36,4.36,0,0,0,3.26.66c8.5-.68,16.49-4.33,21.81-10l1.48.46a32.58,32.58,0,0,1-20.4,11.83c-2.33.39-4.94.45-6.81-1-1-.76-1.68-1.86-2.68-2.59-1.69-1.24-4-1.23-6.05-.8a46.77,46.77,0,0,1-6.11,1.37,10.33,10.33,0,0,1-8.25-3.25c-1.11-1.19-2.2-2.79-3.83-2.74s-3,1.9-4.59,1.62c-2.5-.42-2.57-5.16-5.11-5.13-1.56,0-2.37,2-3.82,2.54a3.8,3.8,0,0,1-3.62-.92,32.62,32.62,0,0,0-3-2.57c-2.84-1.76-6.49-.63-9.82-.34A18.94,18.94,0,0,1,156.82,367Z" id="el7chqn0boqle" class="animable" style="transform-origin: 207.745px 378.819px;"></path></g></g><path d="M196,432.4a4.67,4.67,0,1,1-4.66-4.67A4.66,4.66,0,0,1,196,432.4Z" style="fill: rgb(255, 255, 255); transform-origin: 191.33px 432.4px;" id="elwdr7m7uvaka" class="animable"></path><g id="ell4t3y5o2mf"><g style="opacity: 0.3; transform-origin: 201.78px 420.457px;" class="animable"><path d="M266.39,426.82a19,19,0,0,1-9.33,3.71c-.69-.91.68-1.84,1.81-2.22s2.43-1.43,1.62-2.27a2,2,0,0,0-1-.47c-4-1-8.12.35-11.69,2s-7.07,3.59-11.11,4c-4.27.46-8.59-.86-12.72-2.16-4.5-1.41-9.24-3-12.34-6.17-1.25-1.29-2.3-2.89-4.1-3.51s-4.32.83-3.39,2.3a12.85,12.85,0,0,0,1.09,1.13c.91,1.13.15,2.8-1.26,3.32a5.15,5.15,0,0,1-4.4-.74,12.49,12.49,0,0,1-3-3.16,7.44,7.44,0,0,0-3-2.76c-1.35-.54-3.27-.1-3.52,1.14-.21,1,.8,2.14.4,3.13s-2.33,1.13-3.39.38a6.27,6.27,0,0,1-2-3.05,5,5,0,0,0-2.25-2.87c-1.19-.58-3,0-3,1.12s1.38,2,.77,2.85a2,2,0,0,1-1.69.47,30.57,30.57,0,0,1-21-9.12,11.22,11.22,0,0,0,5.27-.3c1.59-.64,2.68-2.4,1.79-3.78-1.22-1.88-4.41-1.36-6.68-.66A30.27,30.27,0,0,1,147,410.76c-3.87-.32-7.83-2-9.83-5,0,0,1.91,6.59,7.72,9.18s4.53-1.4,16.16,5.54,17.15,3.53,22.58,5.78,3.59,2.68,8.82,2.68,8.22.09,12.11,1.44,3.21-3.95,6.89-2.59,13,5.35,21.85,7,12.2-5.29,15.64-4.37,1.59,5.51,7.15,4.62S266.39,426.82,266.39,426.82Z" id="eln4ttc1qq9ir" class="animable" style="transform-origin: 201.78px 420.457px;"></path></g></g><path d="M194.44,200.66l3.57-6.39s19.77,10.52,31.79,14.65l-14.46-17.46,9,4.13s19.56,12.77,22.4,20.67c1.76,4.91,1.14,12,.56,16.77-.35,2.89-.56,5-.56,5v28.44l-46.15-4.93,1.27-15.58s-16.11-17.31-18.61-22S194.44,200.66,194.44,200.66Z" style="fill: rgb(154, 50, 37); transform-origin: 215.421px 228.965px;" id="el1xd7n8byslu" class="animable"></path><path d="M199.87,195.59s-6.23-4.38-9.48-7.2-17.7-49.13-17.7-49.13l-15.15,7.11c.29,4.67,7.9,34.08,10.37,42,2.32,7.45,7.3,27.51,16.25,36.43s24.93,0,24.93,0Z" style="fill: rgb(154, 50, 37); transform-origin: 183.315px 184.012px;" id="el2zgsu0wem54" class="animable"></path><path d="M246.76,259.25c-14.07-2.24-30.71-4.07-44.77-6.31-14.18,15.47-25.88,34.38-27.26,54.47-.75,11.07,2.69,22.34,1.29,33.34l64.76,8.13C247.7,320.5,249.4,288.53,246.76,259.25Z" style="fill: rgb(154, 50, 37); transform-origin: 211.281px 300.91px;" id="elkxtckzfdft" class="animable"></path><circle cx="219.57" cy="258.42" r="4.67" style="fill: rgb(255, 255, 255); transform-origin: 219.57px 258.42px;" id="el4sj7q457sk7" class="animable"></circle><path d="M205.45,268.18a4.67,4.67,0,1,1-4.67-4.66A4.67,4.67,0,0,1,205.45,268.18Z" style="fill: rgb(255, 255, 255); transform-origin: 200.78px 268.19px;" id="ellczfo6zqfuh" class="animable"></path><path d="M192.12,328.65a4.67,4.67,0,1,1-4.66-4.67A4.67,4.67,0,0,1,192.12,328.65Z" style="fill: rgb(255, 255, 255); transform-origin: 187.45px 328.65px;" id="elroi1wi5gnq" class="animable"></path><path d="M175.35,147.62s3.88-12.43,8.14-15.67a18,18,0,0,0-13.74-5.61c-2.42.1-5.2,1-5.95,3.35-.41,1.26-.12,2.7-.7,3.89-1,2-3.64,2.18-5.83,2s-4.77-.29-6.11,1.45c-1.54,2-.43,5.31-2.24,7.06-1.54,1.49-4.52,1.07-5.52,3-.71,1.32.06,2.94-.1,4.43-.24,2.25-2.45,3.69-3.61,5.63-2,3.31-.67,7.51.67,11.12,5-4.06,14.9-5.62,21.12-3.82C161.48,164.42,160.7,152.88,175.35,147.62Z" style="fill: rgb(154, 50, 37); transform-origin: 161.08px 147.299px;" id="el63pwnx54aj2" class="animable"></path><path d="M175.35,147.62a1.82,1.82,0,0,1-.36.18l-1.11.48a16.62,16.62,0,0,0-1.77.84,19.88,19.88,0,0,0-2.3,1.35,18.54,18.54,0,0,0-5.23,5,17.19,17.19,0,0,0-2.06,4,14.25,14.25,0,0,0-.85,4.95v.26l-.25-.07a25.11,25.11,0,0,0-10.15-.36,28.86,28.86,0,0,0-5.51,1.38,18.66,18.66,0,0,0-5.25,2.81l-.26.21-.12-.32a27,27,0,0,1-1.57-5.6,8.48,8.48,0,0,1,1.07-6,27.13,27.13,0,0,1,2-2.42,5.8,5.8,0,0,0,1.42-2.6,14.55,14.55,0,0,0-.16-3.11,3.39,3.39,0,0,1,.33-1.69,3,3,0,0,1,1.26-1.19c1.23-.63,2.55-.75,3.62-1.33a3.56,3.56,0,0,0,1.73-2.95,15.38,15.38,0,0,1,.69-3.74,4,4,0,0,1,3-2.3c2.51-.51,4.9.34,7.1-.26a3.33,3.33,0,0,0,2.43-1.91,26.1,26.1,0,0,0,.5-3.27,4.25,4.25,0,0,1,2-2.68,8.06,8.06,0,0,1,3.05-1.06,16.77,16.77,0,0,1,6,.35,18.27,18.27,0,0,1,9.06,5.24l.13.14-.15.12a12.34,12.34,0,0,0-2.54,3,30.37,30.37,0,0,0-1.74,3c-1,2-1.72,3.68-2.29,5.1s-1,2.53-1.25,3.28l-.31.86a1.57,1.57,0,0,1-.12.28,1.59,1.59,0,0,1,.07-.3c.07-.22.15-.51.26-.87.25-.76.63-1.88,1.17-3.32s1.25-3.18,2.22-5.16a33,33,0,0,1,1.73-3.09,12.23,12.23,0,0,1,2.59-3.06l0,.25a18,18,0,0,0-8.9-5.08,16.64,16.64,0,0,0-5.87-.31,7.58,7.58,0,0,0-2.87,1,3.79,3.79,0,0,0-1.79,2.4,22.83,22.83,0,0,1-.51,3.34,3.8,3.8,0,0,1-2.76,2.2c-2.38.64-4.81-.21-7.11.29a3.44,3.44,0,0,0-2.62,2,15.11,15.11,0,0,0-.65,3.61,6,6,0,0,1-.55,1.9,3.37,3.37,0,0,1-1.44,1.43c-1.2.65-2.53.77-3.62,1.34a2.32,2.32,0,0,0-1.05,1,2.82,2.82,0,0,0-.27,1.42,14.18,14.18,0,0,1,.15,3.22,6.33,6.33,0,0,1-1.53,2.84,25.57,25.57,0,0,0-1.92,2.37,8,8,0,0,0-1,5.62,26.48,26.48,0,0,0,1.54,5.5l-.38-.1a19.24,19.24,0,0,1,5.39-2.87,29.07,29.07,0,0,1,5.61-1.38,25.38,25.38,0,0,1,10.32.43l-.25.2a16,16,0,0,1,3-9.16,18.57,18.57,0,0,1,5.38-5A18,18,0,0,1,172,149a13.59,13.59,0,0,1,1.79-.79l1.13-.43A2.17,2.17,0,0,1,175.35,147.62Z" style="fill: rgb(38, 50, 56); transform-origin: 161.098px 147.373px;" id="el9eptujhxj4" class="animable"></path><path d="M165.06,130.27c.15,0,.54,3.08,1.37,6.82s1.76,6.73,1.62,6.78a7.06,7.06,0,0,1-.8-1.89,45.15,45.15,0,0,1-2.13-9.66A7.24,7.24,0,0,1,165.06,130.27Z" style="fill: rgb(38, 50, 56); transform-origin: 166.539px 137.07px;" id="elf3faqpio4g" class="animable"></path><path d="M162.66,138a21.61,21.61,0,0,1,2.27,4.15,21.66,21.66,0,0,1,1.79,4.38,21.92,21.92,0,0,1-2.26-4.15A22.08,22.08,0,0,1,162.66,138Z" style="fill: rgb(38, 50, 56); transform-origin: 164.69px 142.265px;" id="elkab0urlzjw" class="animable"></path><path d="M152.18,140.73a37.45,37.45,0,0,0,4.28,6,37.21,37.21,0,0,0,5.73,4.68,6.61,6.61,0,0,1-2-.95,20,20,0,0,1-4.12-3.37,19.63,19.63,0,0,1-3.09-4.35A6.59,6.59,0,0,1,152.18,140.73Z" style="fill: rgb(38, 50, 56); transform-origin: 157.185px 146.07px;" id="ellkdpqgfvs9n" class="animable"></path><path d="M146.07,150.31a6.54,6.54,0,0,1,2,.29,36.05,36.05,0,0,1,4.66,1.37,35,35,0,0,1,4.45,2,6.8,6.8,0,0,1,1.71,1.07c-.07.13-2.8-1.26-6.33-2.54S146,150.46,146.07,150.31Z" style="fill: rgb(38, 50, 56); transform-origin: 152.479px 152.679px;" id="el181iz9945ij" class="animable"></path><path d="M145.59,153.64a10.35,10.35,0,0,1,4.62.22,10.66,10.66,0,0,1,4.29,1.72c-.07.14-1.95-.68-4.4-1.21S145.59,153.79,145.59,153.64Z" style="fill: rgb(38, 50, 56); transform-origin: 150.045px 154.536px;" id="el43aaloha5e" class="animable"></path><path d="M192.85,215.3a24.78,24.78,0,0,0,1.87-4.33,22.13,22.13,0,0,0,0-11.24,48.24,48.24,0,0,0-4.29-10.56l-1.63-3.08a6.42,6.42,0,0,1-.55-1.16A6.58,6.58,0,0,1,189,186c.43.7,1.05,1.72,1.77,3a42.83,42.83,0,0,1,4.47,10.62,21.22,21.22,0,0,1-.18,11.47,14.1,14.1,0,0,1-1.46,3.19A4.69,4.69,0,0,1,192.85,215.3Z" style="fill: rgb(38, 50, 56); transform-origin: 192.096px 200.115px;" id="el18nlp3uyivp" class="animable"></path><path d="M239.44,228.58c-.09,0-.12-1.31-.44-3.39a27.83,27.83,0,0,0-2.4-7.8,25.28,25.28,0,0,0-2.35-3.83,22.41,22.41,0,0,0-2.45-2.74c-1.54-1.43-2.65-2.13-2.6-2.22a3.3,3.3,0,0,1,.82.44,14.78,14.78,0,0,1,2,1.51,20.08,20.08,0,0,1,2.59,2.71,23.87,23.87,0,0,1,2.44,3.9,24.77,24.77,0,0,1,2.29,8,20.32,20.32,0,0,1,.15,2.51A3,3,0,0,1,239.44,228.58Z" style="fill: rgb(38, 50, 56); transform-origin: 234.351px 218.59px;" id="elmijk4wlkeel" class="animable"></path><path d="M246.76,259.25a13.09,13.09,0,0,1-1.77.08c-1.13,0-2.78,0-4.81-.05a143.93,143.93,0,0,1-15.81-1.44,133.66,133.66,0,0,1-15.56-3.2c-2-.53-3.53-1-4.61-1.38a10,10,0,0,1-1.65-.62,12,12,0,0,1,1.71.43c1.09.3,2.68.73,4.65,1.21,3.93,1,9.41,2.15,15.53,3s11.71,1.36,15.76,1.58c2,.11,3.66.18,4.79.22A10.48,10.48,0,0,1,246.76,259.25Z" style="fill: rgb(38, 50, 56); transform-origin: 224.655px 255.987px;" id="eln3pucslg5x" class="animable"></path><path d="M178.34,175.1a4.67,4.67,0,1,1-4.67-4.67A4.67,4.67,0,0,1,178.34,175.1Z" style="fill: rgb(255, 255, 255); transform-origin: 173.67px 175.1px;" id="elo2rrpyx1zxp" class="animable"></path><path d="M189.26,214.11a4.67,4.67,0,1,1-4.67-4.67A4.67,4.67,0,0,1,189.26,214.11Z" style="fill: rgb(255, 255, 255); transform-origin: 184.59px 214.11px;" id="elemvz8xxujyv" class="animable"></path><path d="M173.92,158.14a4.67,4.67,0,0,0,5.9,3l-3-8.85A4.66,4.66,0,0,0,173.92,158.14Z" style="fill: rgb(255, 255, 255); transform-origin: 176.755px 156.831px;" id="elwvunaw9aj0s" class="animable"></path><path d="M205.92,203.56a4.66,4.66,0,0,0,6.24-2.15l-8.38-4.09A4.67,4.67,0,0,0,205.92,203.56Z" style="fill: rgb(255, 255, 255); transform-origin: 207.734px 200.677px;" id="el2xg2g7q1bzz" class="animable"></path><path d="M242.66,232.7a4.67,4.67,0,0,0,4.1,5.18l1.08-9.27A4.67,4.67,0,0,0,242.66,232.7Z" style="fill: rgb(255, 255, 255); transform-origin: 245.234px 233.229px;" id="el7g4var5ad7" class="animable"></path><path d="M195.29,230.32a5.42,5.42,0,0,0-7.64-.57l7.06,8.2A5.41,5.41,0,0,0,195.29,230.32Z" style="fill: rgb(255, 255, 255); transform-origin: 192.123px 233.194px;" id="els0t7dzxqpw" class="animable"></path><path d="M242.53,290.6a5.41,5.41,0,0,0,5.41,5.41V285.18A5.42,5.42,0,0,0,242.53,290.6Z" style="fill: rgb(255, 255, 255); transform-origin: 245.235px 290.595px;" id="elf1l6kp2trvk" class="animable"></path><path d="M180,306.26a5.42,5.42,0,0,0-4.37-6.29,77.44,77.44,0,0,0-1,10.74C177.57,311.24,179.47,309.2,180,306.26Z" style="fill: rgb(255, 255, 255); transform-origin: 177.358px 305.382px;" id="elpk97s7crplr" class="animable"></path><path d="M173.2,189.69a4.66,4.66,0,0,0-5.79-3.16l2.62,8.95A4.67,4.67,0,0,0,173.2,189.69Z" style="fill: rgb(255, 255, 255); transform-origin: 170.399px 190.91px;" id="eld8lzkqzaf3k" class="animable"></path><circle cx="185.47" cy="195.08" r="4.67" style="fill: rgb(255, 255, 255); transform-origin: 185.47px 195.08px;" id="elj1fu7mkw84" class="animable"></circle><path d="M212.16,215.3a4.67,4.67,0,1,1-4.66-4.66A4.67,4.67,0,0,1,212.16,215.3Z" style="fill: rgb(255, 255, 255); transform-origin: 207.49px 215.31px;" id="eluvmgw7nevbg" class="animable"></path><path d="M245.89,214.47a4.67,4.67,0,0,1-8.68-2.38,4.47,4.47,0,0,1,3-4.35s3.34,3.5,4,4.34S245.89,214.47,245.89,214.47Z" style="fill: rgb(255, 255, 255); transform-origin: 241.549px 212.243px;" id="elwyp0kggtsu" class="animable"></path><path d="M233.87,223.09a4.67,4.67,0,1,1-4.67-4.67A4.67,4.67,0,0,1,233.87,223.09Z" style="fill: rgb(255, 255, 255); transform-origin: 229.2px 223.09px;" id="elibl1vgyo6w" class="animable"></path><path d="M196.79,290.6a4.67,4.67,0,1,1-4.67-4.67A4.67,4.67,0,0,1,196.79,290.6Z" style="fill: rgb(255, 255, 255); transform-origin: 192.12px 290.6px;" id="elpeegkuui6m" class="animable"></path><path d="M217,242.85a4.67,4.67,0,1,1-4.66-4.67A4.67,4.67,0,0,1,217,242.85Z" style="fill: rgb(255, 255, 255); transform-origin: 212.33px 242.85px;" id="elnwzm1z5859m" class="animable"></path><path d="M224,283.56a4.67,4.67,0,1,1-4.66-4.67A4.67,4.67,0,0,1,224,283.56Z" style="fill: rgb(255, 255, 255); transform-origin: 219.33px 283.56px;" id="elcb1th5no38" class="animable"></path><path d="M210.11,312.68a4.67,4.67,0,1,1-4.66-4.67A4.66,4.66,0,0,1,210.11,312.68Z" style="fill: rgb(255, 255, 255); transform-origin: 205.44px 312.68px;" id="el6f9om57f1ln" class="animable"></path><circle cx="232.77" cy="244.2" r="4.67" style="fill: rgb(255, 255, 255); transform-origin: 232.77px 244.2px;" id="elool8uecado" class="animable"></circle><path d="M244,270.07a4.67,4.67,0,1,1-4.67-4.67A4.67,4.67,0,0,1,244,270.07Z" style="fill: rgb(255, 255, 255); transform-origin: 239.33px 270.07px;" id="el3ewayoao59l" class="animable"></path><path d="M231.81,303.34a4.67,4.67,0,1,1-4.66-4.66A4.67,4.67,0,0,1,231.81,303.34Z" style="fill: rgb(255, 255, 255); transform-origin: 227.14px 303.35px;" id="ele3usifcw5ev" class="animable"></path><path d="M217,334.73a4.67,4.67,0,1,1-4.66-4.66A4.67,4.67,0,0,1,217,334.73Z" style="fill: rgb(255, 255, 255); transform-origin: 212.33px 334.74px;" id="eloo54sdtnb0o" class="animable"></path><path d="M239.36,326.68A4.67,4.67,0,1,1,234.7,322,4.66,4.66,0,0,1,239.36,326.68Z" style="fill: rgb(255, 255, 255); transform-origin: 234.69px 326.67px;" id="elcsn791alcn" class="animable"></path><g id="elewca3uzfu9d"><g style="opacity: 0.3; transform-origin: 194.688px 202.61px;" class="animable"><path d="M193,215.15a10.58,10.58,0,0,0,4.88-7.75,17.26,17.26,0,0,0-1.58-9.23,48.51,48.51,0,0,0-4.9-8.1c1.63,3.86,3.27,7.78,3.85,11.93s.26,9.8-2.25,13.15" id="elpweimn7nnz" class="animable" style="transform-origin: 194.688px 202.61px;"></path></g></g><g id="elcmbs7jrm0k7"><g style="opacity: 0.3; transform-origin: 156.764px 145.73px;" class="animable"><path d="M161,149c-.35-1.36-1.69-2.18-2.87-2.93a33.61,33.61,0,0,1-5.62-4.7l.17.57a15.76,15.76,0,0,0,7.31,8,1,1,0,0,0,.52.15C160.94,150.09,161.07,149.46,161,149Z" id="el1vgw08g9brg" class="animable" style="transform-origin: 156.764px 145.73px;"></path></g></g><g id="elp41f8nh5jbo"><g style="opacity: 0.3; transform-origin: 206.119px 250.048px;" class="animable"><path d="M201.89,245.9a12.92,12.92,0,0,0,8.12,7,.72.72,0,0,1,.34.94.89.89,0,0,1-.76.34,7.29,7.29,0,0,1-7.7-8.24" id="el9fianzkey7e" class="animable" style="transform-origin: 206.119px 250.048px;"></path></g></g></g><defs>     <filter id="active" height="200%">         <feMorphology in="SourceAlpha" result="DILATED" operator="dilate" radius="2"></feMorphology>                <feFlood flood-color="#32DFEC" flood-opacity="1" result="PINK"></feFlood>        <feComposite in="PINK" in2="DILATED" operator="in" result="OUTLINE"></feComposite>        <feMerge>            <feMergeNode in="OUTLINE"></feMergeNode>            <feMergeNode in="SourceGraphic"></feMergeNode>        </feMerge>    </filter>    <filter id="hover" height="200%">        <feMorphology in="SourceAlpha" result="DILATED" operator="dilate" radius="2"></feMorphology>                <feFlood flood-color="#ff0000" flood-opacity="0.5" result="PINK"></feFlood>        <feComposite in="PINK" in2="DILATED" operator="in" result="OUTLINE"></feComposite>        <feMerge>            <feMergeNode in="OUTLINE"></feMergeNode>            <feMergeNode in="SourceGraphic"></feMergeNode>        </feMerge>            <feColorMatrix type="matrix" values="0   0   0   0   0                0   1   0   0   0                0   0   0   0   0                0   0   0   1   0 "></feColorMatrix>    </filter></defs></svg>