<svg xmlns="http://www.w3.org/2000/svg" viewBox="0 0 500 500"><g id="freepik--Notes--inject-10"><path d="M360.91,189.29c-1.4-3.63-3.76-8.7-6.5-11.47a8.44,8.44,0,0,0-8.79-1.86,3.93,3.93,0,0,0-2.27,2.72c-.79,2.91-4.47,6-7,7.28-2.9,1.46-6.21,2.35-8.49,4.67-6.6,6.72,0,19.62-6.06,26.85-3.48,4.15-9.68,4.54-15.08,4.11-6.71-.54-14.05-1.72-19.16,4a14.14,14.14,0,0,0-3.35,11.1c1,9,8.29,15.09,16.17,18.36,17.44,7.23,39.06,1.55,51.58-12.59S367.67,206.92,360.91,189.29Z" style="fill:#FEFEFE"></path><g style="opacity:0.8"><path d="M360.91,189.29c-1.4-3.63-3.76-8.7-6.5-11.47a8.44,8.44,0,0,0-8.79-1.86,3.93,3.93,0,0,0-2.27,2.72c-.79,2.91-4.47,6-7,7.28-2.9,1.46-6.21,2.35-8.49,4.67-6.6,6.72,0,19.62-6.06,26.85-3.48,4.15-9.68,4.54-15.08,4.11-6.71-.54-14.05-1.72-19.16,4a14.14,14.14,0,0,0-3.35,11.1c1,9,8.29,15.09,16.17,18.36,17.44,7.23,39.06,1.55,51.58-12.59S367.67,206.92,360.91,189.29Z" style="fill:#fff"></path></g><path d="M347.63,84.38c-8.57-3.4-18.75-3-26.1-8.53-4.21-3.19-6.88-7.94-9.83-12.33s-6.58-8.73-11.62-10.33a11.34,11.34,0,0,0-7.12.21,6.28,6.28,0,0,0-2.84,9.54c2.57,3.6,5.94,9.11,5.68,13.72-.41,7-2.15,14.75,1.66,20.68,5,7.81,16.63,7.93,23.62,14,12.69,11.12,4.68,36,18.5,45.63,8.25,5.78,20.59,2,26.64-6.09S373.2,132,372,122C370.1,106.43,362.21,90.18,347.63,84.38Z" style="fill:#FEFEFE"></path><g style="opacity:0.8"><path d="M347.63,84.38c-8.57-3.4-18.75-3-26.1-8.53-4.21-3.19-6.88-7.94-9.83-12.33s-6.58-8.73-11.62-10.33a11.34,11.34,0,0,0-7.12.21,6.28,6.28,0,0,0-2.84,9.54c2.57,3.6,5.94,9.11,5.68,13.72-.41,7-2.15,14.75,1.66,20.68,5,7.81,16.63,7.93,23.62,14,12.69,11.12,4.68,36,18.5,45.63,8.25,5.78,20.59,2,26.64-6.09S373.2,132,372,122C370.1,106.43,362.21,90.18,347.63,84.38Z" style="fill:#fff"></path></g><path d="M134.45,159.94c-5.89-6.54-12.21-15.08-9.09-23.31,1.9-5,6.92-8.33,8.61-13.39,3.6-10.71-9.33-21.44-6.69-32.44,1.89-7.92,10.71-11.7,16.23-17.68,5.19-5.63,7.46-13.35,12-19.49,6-8.09,16.31-13,26.34-11.92s19.27,8.46,21.94,18.18S202,81,193,85.75c-7.25,3.84-15.94,3.16-24,4.39s-17.1,5.93-18,14.08c-.86,8,6.46,16.22,2.78,23.33-2,3.93-6.65,5.61-10.72,7.37s-8.45,4.62-8.83,9c-.24,2.76,1.2,5.36,2,8s.61,6.11-1.8,7.49" style="fill:#FEFEFE"></path><g style="opacity:0.8"><path d="M134.45,159.94c-5.89-6.54-12.21-15.08-9.09-23.31,1.9-5,6.92-8.33,8.61-13.39,3.6-10.71-9.33-21.44-6.69-32.44,1.89-7.92,10.71-11.7,16.23-17.68,5.19-5.63,7.46-13.35,12-19.49,6-8.09,16.31-13,26.34-11.92s19.27,8.46,21.94,18.18S202,81,193,85.75c-7.25,3.84-15.94,3.16-24,4.39s-17.1,5.93-18,14.08c-.86,8,6.46,16.22,2.78,23.33-2,3.93-6.65,5.61-10.72,7.37s-8.45,4.62-8.83,9c-.24,2.76,1.2,5.36,2,8s.61,6.11-1.8,7.49" style="fill:#fff"></path></g><path d="M252.74,31.53C245,30,236.43,35.21,234.24,42.84s2.14,16.55,9.45,19.65a17.48,17.48,0,0,0,20.89-6.62c2.52-4,2.39-10.24.38-14.5s-6.37-10.12-12.22-9.84" style="fill:#FEFEFE"></path><g style="opacity:0.8"><path d="M252.74,31.53C245,30,236.43,35.21,234.24,42.84s2.14,16.55,9.45,19.65a17.48,17.48,0,0,0,20.89-6.62c2.52-4,2.39-10.24.38-14.5s-6.37-10.12-12.22-9.84" style="fill:#fff"></path></g><path d="M211.9,41.26a4,4,0,1,1-5.05-2.56A4,4,0,0,1,211.9,41.26Z" style="fill:#263238"></path><path d="M210.93,40.17c-.13.21-3.65-2.13-7.36-5.72s-6.65-6.48-6.51-6.65,3.43,2.44,7.11,6S211.07,40,210.93,40.17Z" style="fill:#263238"></path><path d="M202.7,21.29c.23,0,.07,2.25-1.62,4.33s-3.84,2.71-3.89,2.49,1.7-1.16,3.2-3.05S202.44,21.23,202.7,21.29Z" style="fill:#263238"></path><path d="M205.53,24.33c.23,0,.17,2.23-1.62,4.13s-4,2.15-4,1.91,1.8-.81,3.35-2.51S205.27,24.28,205.53,24.33Z" style="fill:#263238"></path><path d="M274.71,88.48a4,4,0,1,1-.61-5.63A4,4,0,0,1,274.71,88.48Z" style="fill:#263238"></path><path d="M275.1,87.07c-.25,0-.2-4.22.79-9.29s1.82-9.1,2-9.08-.19,4.21-1.18,9.24S275.34,87.08,275.1,87.07Z" style="fill:#263238"></path><path d="M286.45,69.88c.12.2-1.85,1.29-4.51,1s-4.36-1.74-4.2-1.9,1.89.8,4.29,1S286.36,69.64,286.45,69.88Z" style="fill:#263238"></path><path d="M285.44,73.91c.15.19-1.77,1.36-4.34.9s-4-2.2-3.79-2.32,1.67,1.07,3.94,1.45S285.35,73.67,285.44,73.91Z" style="fill:#263238"></path><path d="M122.51,263.05a3.18,3.18,0,1,1-4.07-1.9A3.17,3.17,0,0,1,122.51,263.05Z" style="fill:#263238"></path><path d="M121.72,262.21c-.11.17-3-1.6-6-4.36s-5.42-5-5.32-5.12,2.78,1.86,5.79,4.6S121.82,262.05,121.72,262.21Z" style="fill:#263238"></path><path d="M114.72,247.44c.18,0,.11,1.78-1.17,3.46s-3,2.25-3,2.07,1.32-.95,2.47-2.49S114.52,247.4,114.72,247.44Z" style="fill:#263238"></path><path d="M117,249.78c.19,0,.19,1.76-1.18,3.31s-3.13,1.8-3.13,1.62,1.41-.69,2.6-2.08S116.84,249.74,117,249.78Z" style="fill:#263238"></path><path d="M345.47,62.4a3.9,3.9,0,1,0,.54-5.49A3.9,3.9,0,0,0,345.47,62.4Z" style="fill:#263238"></path><path d="M345.09,61c.37,0,.39-4.15-.62-9.09s-2-8.81-2.33-8.77,0,4.15,1,9S344.71,61.05,345.09,61Z" style="fill:#263238"></path><path d="M330.47,48c-.08.31,3.07,1.16,6.83,0a9.22,9.22,0,0,0,4.22-2.62c.86-1,1-1.87.81-1.92s-.58.54-1.48,1.24a12.65,12.65,0,0,1-4,2C333.52,47.76,330.5,47.57,330.47,48Z" style="fill:#263238"></path><path d="M333.8,67.22a3.9,3.9,0,1,0,.54-5.49A3.91,3.91,0,0,0,333.8,67.22Z" style="fill:#263238"></path><path d="M333.41,65.86c.38,0,.39-4.16-.62-9.09s-2-8.82-2.32-8.78,0,4.15,1,9S333,65.87,333.41,65.86Z" style="fill:#263238"></path><path d="M330.88,50.62c-.12.34,2.83,1.35,6.39.37s5.62-3.31,5.35-3.53-2.48,1.38-5.7,2.22S331,50.23,330.88,50.62Z" style="fill:#263238"></path><path d="M174.21,112.83a2.91,2.91,0,1,1,1-4A2.91,2.91,0,0,1,174.21,112.83Z" style="fill:#263238"></path><path d="M174.82,112c-.26-.1.76-3,2.7-6.22s3.59-5.69,3.83-5.58-1,2.92-3,6.09S175.07,112.08,174.82,112Z" style="fill:#263238"></path><path d="M188.33,106.47c0,.24-2.44,0-4.78-1.72a6.65,6.65,0,0,1-2.31-2.89c-.36-.92-.21-1.55-.09-1.55s.27.53.73,1.24a9.24,9.24,0,0,0,2.28,2.4C186.25,105.55,188.42,106.17,188.33,106.47Z" style="fill:#263238"></path><path d="M181.19,119.13a2.9,2.9,0,1,1,1-4A2.9,2.9,0,0,1,181.19,119.13Z" style="fill:#263238"></path><path d="M181.81,118.27c-.26-.1.76-3,2.7-6.22s3.59-5.69,3.83-5.58-1,2.92-3,6.09S182.06,118.38,181.81,118.27Z" style="fill:#263238"></path><path d="M187.39,108.22c0,.26-2.32.23-4.58-1.35s-3.11-3.72-2.87-3.81,1.4,1.59,3.45,3S187.44,107.92,187.39,108.22Z" style="fill:#263238"></path><path d="M103.75,131.33a2,2,0,1,1-1.5-2.39A2,2,0,0,1,103.75,131.33Z" style="fill:#263238"></path><path d="M103.62,130.62c-.18.08-1.13-1.81-1.79-4.3s-1.1-4.47-.94-4.53,1,1.89,1.61,4.35S103.79,130.54,103.62,130.62Z" style="fill:#263238"></path><path d="M107.33,121.33c.1.12-1.14,1.23-3.13,1.55a4.66,4.66,0,0,1-2.52-.24c-.62-.26-.87-.63-.81-.69s.39.12,1,.23a6.51,6.51,0,0,0,2.27,0C105.88,121.92,107.22,121.14,107.33,121.33Z" style="fill:#263238"></path><path d="M110.18,130.88a2,2,0,1,1-1.49-2.39A2,2,0,0,1,110.18,130.88Z" style="fill:#263238"></path><path d="M110.05,130.16c-.17.09-1.12-1.8-1.79-4.29s-1.1-4.48-.93-4.54,1,1.89,1.6,4.36S110.22,130.09,110.05,130.16Z" style="fill:#263238"></path><path d="M107.74,122.63c.13.12-1,1.25-2.84,1.62s-3.32-.23-3.25-.4,1.45.07,3.11-.28S107.62,122.46,107.74,122.63Z" style="fill:#263238"></path><path d="M363.22,259a1.44,1.44,0,1,1,.46-2A1.44,1.44,0,0,1,363.22,259Z" style="fill:#263238"></path><path d="M363.51,258.55a8.17,8.17,0,0,1,1.3-3.09,13.21,13.21,0,0,1,1.86-2.78,10,10,0,0,1-1.43,3A17.8,17.8,0,0,1,363.51,258.55Z" style="fill:#263238"></path><path d="M370.16,255.75a3.38,3.38,0,0,1-2.38-.82,3.33,3.33,0,0,1-1.15-1.42c-.19-.45-.12-.77-.06-.76s.14.26.37.6a4.59,4.59,0,0,0,1.14,1.18C369.13,255.3,370.2,255.6,370.16,255.75Z" style="fill:#263238"></path><path d="M366.71,262.06a1.44,1.44,0,0,1-1.51-2.45,1.44,1.44,0,0,1,1.51,2.45Z" style="fill:#263238"></path><path d="M367,261.63a8.18,8.18,0,0,1,1.3-3.1,13.89,13.89,0,0,1,1.85-2.78,9.4,9.4,0,0,1-1.42,3A19.14,19.14,0,0,1,367,261.63Z" style="fill:#263238"></path><path d="M369.71,256.62a2.89,2.89,0,0,1-2.28-.64c-1.13-.76-1.56-1.82-1.44-1.87s.7.78,1.72,1.46S369.73,256.47,369.71,256.62Z" style="fill:#263238"></path></g><g id="freepik--Character--inject-10"><path d="M381.55,142.11l-1.81-28.24,5-7.31,9.95-11.73s2.07-.48,1.12,3.56-6.28,11.3-6.28,11.3l6.06-4.91,3.28-.13,5.29,9.76s-3.37,1.61-5.2.25l-2.32,3.61,3.47-.34,4.27,1.8-2,5.19-2.2,5.86s-.2,11.91-2.55,13.42l-2.34,1.51Z" style="fill:#ffbe9d"></path><path d="M264.09,191.35s26.16-4.71,28.14-4.46,26.45,10.1,28.79,11,39.81,6.59,39.81,6.59L381.92,141l17.12.43S388.86,205,385.61,214s-3.66,15-7.21,16.78-13.67,4.19-23.25,3.6S306,225.52,306,225.52Z" style="fill:#ffbe9d"></path><path d="M402.42,111s0,.24-.17.58a2.11,2.11,0,0,1-1.38.93,3,3,0,0,1-2.39-.67,7.48,7.48,0,0,1-1.87-2.39l.4.06q-.3.27-.6.57c-1.6,1.65-3,3.22-4.06,4.3A8,8,0,0,1,390.5,116a20.5,20.5,0,0,1,1.58-1.87c1-1.14,2.34-2.74,4-4.42l.62-.59.24-.21.16.28a7.68,7.68,0,0,0,1.7,2.29,2.76,2.76,0,0,0,2.05.68,2.08,2.08,0,0,0,1.29-.69C402.33,111.22,402.38,111,402.42,111Z" style="fill:#eb996e"></path><path d="M398.23,121.85c0-.08.54-.34,1.44-.66l.42-.15-.17.44a6.28,6.28,0,0,0-.54,2.13,2.12,2.12,0,0,0,1.14,2c.58.29,1,.11,1,.19s-.4.4-1.18.15a2.24,2.24,0,0,1-1.07-.8,2.58,2.58,0,0,1-.45-1.58,5.44,5.44,0,0,1,.68-2.3l.25.29A4.3,4.3,0,0,1,398.23,121.85Z" style="fill:#eb996e"></path><path d="M392.13,139.32c-.05,0,.25-.66.52-1.89a12.53,12.53,0,0,0,0-5.26,12.3,12.3,0,0,0-1.26-3.4,13.42,13.42,0,0,0-2.61-3.25,13.22,13.22,0,0,1-3-3.7c-.71-1.54-.81-3.29-1.46-4.81-.57-1.32-1.74-2.5-3.08-2.43l.24-.28c.43,5.79.81,10.89,1.09,14.63.11,1.77.2,3.23.27,4.32a10.25,10.25,0,0,1,0,1.56,9.2,9.2,0,0,1-.21-1.55c-.11-1.09-.25-2.53-.43-4.3-.32-3.74-.76-8.83-1.26-14.61l0-.26.26,0a3.13,3.13,0,0,1,2.2.81,5.35,5.35,0,0,1,1.38,1.91c.71,1.67.79,3.39,1.46,4.82a13,13,0,0,0,2.87,3.57,13.89,13.89,0,0,1,2.65,3.38A12.61,12.61,0,0,1,393,132.1a12.1,12.1,0,0,1-.17,5.38,9.11,9.11,0,0,1-.47,1.39A1.67,1.67,0,0,1,392.13,139.32Z" style="fill:#eb996e"></path><path d="M399,114.12a8.22,8.22,0,0,1-1.51,2.51c-.95,1.29-1.81,2.28-1.93,2.19a16.56,16.56,0,0,1,3.44-4.7Z" style="fill:#eb996e"></path><polygon points="296.45 368.04 288.91 482.77 241.01 482.77 233.75 405.97 296.45 368.04" style="fill:#ffbe9d"></polygon><path d="M171.34,349.52A174.23,174.23,0,0,0,166,406.45c1.6,20.16,12.62,76.32,12.62,76.32h45.55L233.32,409,175.2,380.36Z" style="fill:#ffbe9d"></path><path d="M226.83,199.72c1-8-6.76-26.69-9.06-34.4a15.44,15.44,0,0,1-11.45,3q-1.27,10.23-2.56,20.47c-.24,2-2.51,14.38-3.91,15.8" style="fill:#263238"></path><path d="M205.13,142.84c-.12-.92-1.9-3.77-.69-8.53,1.54-6,3-11.73,7.17-16.32s6.93-7.88,11.51-10.16a21.46,21.46,0,0,1,8.14-2.18,6.87,6.87,0,0,1,2-3.28,25.14,25.14,0,0,0-18.91,4.82c-8.27,6.11-15.78,15.68-17.9,27.31a28.56,28.56,0,0,0,2,16.07Z" style="fill:#FEFEFE"></path><path d="M289.9,326.31l-94.74-18.16s-18.33,12.33-27.87,51.92c-4.18,17.35-.12,77.38-.12,77.38l127.41,1.63S301.48,341.87,289.9,326.31Z" style="fill:#455a64"></path><path d="M251,350.53a2.22,2.22,0,0,0-2.75-.93,5.38,5.38,0,0,0-3.87,2.72,3.35,3.35,0,0,0,1.17,4.29,3.31,3.31,0,0,0,3.21-.2,5.56,5.56,0,0,0,2.1-2.56A3.84,3.84,0,0,0,251,350.53Z" style="fill:#f5f5f5"></path><path d="M250.08,373.11a2.19,2.19,0,0,0-2.74-.93,5.36,5.36,0,0,0-3.87,2.72,3.34,3.34,0,0,0,1.17,4.29,3.3,3.3,0,0,0,3.2-.2,5.5,5.5,0,0,0,2.1-2.56A3.77,3.77,0,0,0,250.08,373.11Z" style="fill:#f5f5f5"></path><path d="M247.93,396.91a2.23,2.23,0,0,0-2.75-.93,5.4,5.4,0,0,0-3.86,2.72,3.05,3.05,0,0,0,4.37,4.09,5.46,5.46,0,0,0,2.1-2.56A3.81,3.81,0,0,0,247.93,396.91Z" style="fill:#f5f5f5"></path><path d="M245.57,419.91a2.23,2.23,0,0,0-2.75-.93A5.41,5.41,0,0,0,239,421.7a3.35,3.35,0,0,0,1.17,4.29,3.31,3.31,0,0,0,3.21-.19,5.61,5.61,0,0,0,2.1-2.56A3.86,3.86,0,0,0,245.57,419.91Z" style="fill:#f5f5f5"></path><path d="M238.41,348.86a6.29,6.29,0,0,1,0-2.51,6,6,0,0,1,.47-2.47,6.31,6.31,0,0,1,0,2.51A5.91,5.91,0,0,1,238.41,348.86Z" style="fill:#263238"></path><path d="M237.57,358.83a6.45,6.45,0,0,1,0-2.52,6.29,6.29,0,0,1,.47-2.46,6,6,0,0,1,0,2.51A6.43,6.43,0,0,1,237.57,358.83Z" style="fill:#263238"></path><path d="M236.73,368.79a6,6,0,0,1,0-2.51,6.37,6.37,0,0,1,.47-2.47,12.1,12.1,0,0,1-.42,5Z" style="fill:#263238"></path><path d="M235.88,378.76a6.37,6.37,0,0,1,0-2.52,6,6,0,0,1,.47-2.47,6.37,6.37,0,0,1,0,2.52A6,6,0,0,1,235.88,378.76Z" style="fill:#263238"></path><path d="M235,388.72a12.1,12.1,0,0,1,.42-5,6,6,0,0,1,0,2.51A6.16,6.16,0,0,1,235,388.72Z" style="fill:#263238"></path><path d="M234.2,398.69a6.26,6.26,0,0,1,0-2.52,6.43,6.43,0,0,1,.47-2.47,6.26,6.26,0,0,1,0,2.52A6.43,6.43,0,0,1,234.2,398.69Z" style="fill:#263238"></path><path d="M233.36,408.65a12.1,12.1,0,0,1,.42-5,12.1,12.1,0,0,1-.42,5Z" style="fill:#263238"></path><path d="M232.51,418.61a12.1,12.1,0,0,1,.42-5,6,6,0,0,1,0,2.52A5.89,5.89,0,0,1,232.51,418.61Z" style="fill:#263238"></path><path d="M231.67,428.58a6.2,6.2,0,0,1,0-2.51,6.31,6.31,0,0,1,.47-2.47,6.17,6.17,0,0,1,0,2.51A6.43,6.43,0,0,1,231.67,428.58Z" style="fill:#263238"></path><path d="M249.09,429.62a5.52,5.52,0,0,1,0-.9l.24-2.55c.23-2.27.55-5.47,1-9.4.79-7.94,1.82-18.92,2.68-31.06s1.41-23.15,1.78-31.12c.19-3.95.34-7.16.44-9.44.06-1.08.11-1.93.14-2.56s.07-.9.08-.9a5.19,5.19,0,0,1,0,.9c0,.63,0,1.49,0,2.57,0,2.23-.13,5.46-.27,9.45-.28,8-.77,19-1.63,31.14s-1.95,23.12-2.83,31.05c-.45,4-.83,7.18-1.12,9.39-.14,1.07-.26,1.92-.34,2.55A7.1,7.1,0,0,1,249.09,429.62Z" style="fill:#263238"></path><path d="M234.17,429.47a5.31,5.31,0,0,1,0-.88c.05-.63.1-1.47.18-2.54.17-2.25.42-5.42.72-9.32.67-7.9,1.59-18.74,2.6-30.72s2-22.81,2.75-30.71c.37-3.89.68-7.06.89-9.3.12-1.06.21-1.91.27-2.53a5.69,5.69,0,0,1,.13-.88,5.45,5.45,0,0,1,0,.89c-.05.62-.1,1.47-.17,2.53-.18,2.25-.43,5.42-.73,9.32-.67,7.91-1.59,18.75-2.6,30.73s-2,22.8-2.75,30.71c-.37,3.89-.68,7.05-.89,9.3-.11,1.06-.2,1.9-.27,2.53A5.38,5.38,0,0,1,234.17,429.47Z" style="fill:#263238"></path><path d="M207.26,341.57a9.69,9.69,0,0,1-.9,1.36,13.77,13.77,0,0,1-1.19,1.51,21.32,21.32,0,0,1-1.71,1.89l-1.05,1.05c-.37.36-.8.68-1.22,1.05a33.84,33.84,0,0,1-2.81,2.16,36.62,36.62,0,0,1-15,6c-1.24.16-2.41.33-3.53.36-.55,0-1.09.07-1.61.06l-1.48,0a23,23,0,0,1-2.54-.19,14.38,14.38,0,0,1-1.9-.3,8.56,8.56,0,0,1-1.59-.37c0-.12,2.3.43,6,.5h1.47c.51,0,1-.06,1.58-.09,1.1,0,2.26-.24,3.49-.4a42.29,42.29,0,0,0,7.72-2.15,40.79,40.79,0,0,0,7.1-3.74c1-.71,2-1.37,2.81-2.09.42-.36.84-.67,1.22-1l1.06-1C205.88,343.45,207.16,341.49,207.26,341.57Z" style="fill:#263238"></path><path d="M169.74,429.29c0,.14-.56.25-1.25.24s-1.25-.13-1.25-.27.56-.26,1.25-.25S169.74,429.14,169.74,429.29Z" style="fill:#263238"></path><path d="M179.5,429.38a5.82,5.82,0,0,1-2.44.24,6,6,0,0,1-2.44-.28,5.85,5.85,0,0,1,2.44-.24A6,6,0,0,1,179.5,429.38Z" style="fill:#263238"></path><path d="M189.27,429.47a5.7,5.7,0,0,1-2.45.24,6,6,0,0,1-2.44-.28,6.12,6.12,0,0,1,2.45-.24A6,6,0,0,1,189.27,429.47Z" style="fill:#263238"></path><path d="M199,429.56a11.58,11.58,0,0,1-4.88,0,5.82,5.82,0,0,1,2.44-.24A6,6,0,0,1,199,429.56Z" style="fill:#263238"></path><path d="M208.79,429.65a6,6,0,0,1-2.44.24,5.91,5.91,0,0,1-2.44-.29,11.8,11.8,0,0,1,4.88,0Z" style="fill:#263238"></path><path d="M218.55,429.75a5.92,5.92,0,0,1-2.44.23,6,6,0,0,1-2.44-.28,11.36,11.36,0,0,1,4.88.05Z" style="fill:#263238"></path><path d="M228.32,429.86a6,6,0,0,1-2.45.23,5.66,5.66,0,0,1-2.43-.29,5.92,5.92,0,0,1,2.44-.23A6.11,6.11,0,0,1,228.32,429.86Z" style="fill:#263238"></path><path d="M238.08,430a6.06,6.06,0,0,1-2.44.22,5.81,5.81,0,0,1-2.44-.3,6,6,0,0,1,2.44-.22A5.81,5.81,0,0,1,238.08,430Z" style="fill:#263238"></path><path d="M247.84,430.16a6.06,6.06,0,0,1-2.44.22,5.91,5.91,0,0,1-2.44-.31,11.8,11.8,0,0,1,4.88.09Z" style="fill:#263238"></path><path d="M257.6,430.36a6.17,6.17,0,0,1-2.44.21,5.82,5.82,0,0,1-2.44-.32,6.09,6.09,0,0,1,2.45-.2A5.7,5.7,0,0,1,257.6,430.36Z" style="fill:#263238"></path><path d="M267.36,430.6a11.81,11.81,0,0,1-4.88-.13,6.13,6.13,0,0,1,2.45-.2A5.8,5.8,0,0,1,267.36,430.6Z" style="fill:#263238"></path><path d="M277.12,430.88a6,6,0,0,1-2.45.19,5.79,5.79,0,0,1-2.43-.34,5.93,5.93,0,0,1,2.45-.18A6,6,0,0,1,277.12,430.88Z" style="fill:#263238"></path><path d="M286.88,431.21a5.74,5.74,0,0,1-2.45.18A6,6,0,0,1,282,431a6,6,0,0,1,2.45-.17A6.15,6.15,0,0,1,286.88,431.21Z" style="fill:#263238"></path><path d="M294.26,431.5c0,.15-.57.24-1.25.21s-1.25-.16-1.24-.31.57-.23,1.26-.21S294.27,431.36,294.26,431.5Z" style="fill:#263238"></path><path d="M295,360.18a4.41,4.41,0,0,1-1.11-.23A28,28,0,0,1,291,359a39.73,39.73,0,0,1-16.44-11.67,26.87,26.87,0,0,1-1.86-2.46,4.47,4.47,0,0,1-.59-1c.08-.05,1,1.26,2.72,3.19a44.34,44.34,0,0,0,16.3,11.56C293.49,359.65,295,360.09,295,360.18Z" style="fill:#263238"></path><path d="M178.62,460.23a3.3,3.3,0,0,1-.3-.87c-.16-.56-.36-1.38-.6-2.4-.47-2-1-4.89-1.46-8.06s-.68-6.06-.78-8.15c0-1.05-.07-1.9-.07-2.48a3.61,3.61,0,0,1,.05-.92,25.26,25.26,0,0,1,.39,3.37c.2,2.08.49,4.95.93,8.11s.93,6,1.3,8.05A23.37,23.37,0,0,1,178.62,460.23Z" style="fill:#263238"></path><path d="M180.37,437.14c.16.05-.85,3.57-1,8.05s.47,8.08.3,8.11a9.09,9.09,0,0,1-.54-2.34,30.17,30.17,0,0,1-.28-5.79,30.66,30.66,0,0,1,.8-5.74A9.05,9.05,0,0,1,180.37,437.14Z" style="fill:#263238"></path><path d="M185.84,460.36c-.09,0,.22-1.27.41-3.32a36.8,36.8,0,0,0-.22-8c-.4-3.12-1-5.91-1.46-7.94a23.94,23.94,0,0,1-.63-3.29,18.66,18.66,0,0,1,1,3.21,62.44,62.44,0,0,1,1.62,8,31.2,31.2,0,0,1,.06,8.13,18.21,18.21,0,0,1-.47,2.42A2.75,2.75,0,0,1,185.84,460.36Z" style="fill:#263238"></path><path d="M190.35,447.28a13,13,0,0,1-2-4.67,12.78,12.78,0,0,1-.51-5c.15,0,.33,2.24,1,4.92S190.49,447.22,190.35,447.28Z" style="fill:#263238"></path><path d="M196,437.83a29.37,29.37,0,0,1,.59,5.87,12.06,12.06,0,0,1-.52,4.19,3.31,3.31,0,0,1-.84,1.53c-.07,0,.24-.62.49-1.64a15.73,15.73,0,0,0,.35-4.07A38.1,38.1,0,0,1,196,437.83Z" style="fill:#263238"></path><path d="M201.71,462.78a3.62,3.62,0,0,1-.38-.92,7.63,7.63,0,0,1-.32-1.11,12.57,12.57,0,0,1-.32-1.52,48.21,48.21,0,0,1-.32-8.89c0-1.73,0-3.37,0-4.86a24.12,24.12,0,0,0-.48-3.92c-.47-2.2-1.12-3.46-1-3.5a3.59,3.59,0,0,1,.48.86,7.2,7.2,0,0,1,.45,1.08,14,14,0,0,1,.45,1.48,21.78,21.78,0,0,1,.6,4c.1,1.51.1,3.17.06,4.91a59.3,59.3,0,0,0,.17,8.82C201.34,461.42,201.81,462.75,201.71,462.78Z" style="fill:#263238"></path><path d="M206,452.05c-.09,0,.15-.79.22-2.05a26.3,26.3,0,0,0-.37-4.94,17.2,17.2,0,0,1-.12-5.06,4.48,4.48,0,0,1,.71-2c.09,0-.21.78-.34,2a21.18,21.18,0,0,0,.27,4.94,20.47,20.47,0,0,1,.22,5A4.79,4.79,0,0,1,206,452.05Z" style="fill:#263238"></path><path d="M210.28,457.53c-.09,0,.28-1.08.5-2.84a42.58,42.58,0,0,0,.09-6.93,34.34,34.34,0,0,1,.19-7,11.62,11.62,0,0,1,.5-2.07c.16-.48.27-.74.31-.73s-.25,1.09-.44,2.85a44.86,44.86,0,0,0,0,6.95,32.37,32.37,0,0,1-.25,7,12.1,12.1,0,0,1-.53,2.07C210.43,457.29,210.32,457.54,210.28,457.53Z" style="fill:#263238"></path><path d="M218.33,455.93a10.76,10.76,0,0,1-.89-2.47,38.07,38.07,0,0,1-1.29-12.57,11,11,0,0,1,.36-2.6,17.07,17.07,0,0,1,0,2.62,53.3,53.3,0,0,0,.27,6.27,54.4,54.4,0,0,0,1,6.19A16.83,16.83,0,0,1,218.33,455.93Z" style="fill:#263238"></path><path d="M222.12,436.72c.15.06-.52,2-.72,4.47s.12,4.49,0,4.52a9.67,9.67,0,0,1-.48-4.57A9.52,9.52,0,0,1,222.12,436.72Z" style="fill:#263238"></path><path d="M224.14,459.19a7.1,7.1,0,0,0,2.14-2.33,8.29,8.29,0,0,0,.94-3.29,14.31,14.31,0,0,0-.41-4.22c-.33-1.49-.76-2.89-1.06-4.19a19,19,0,0,1-.54-3.53,9.33,9.33,0,0,1,.19-2.41,2.23,2.23,0,0,1,.29-.83,17.29,17.29,0,0,0-.11,3.21,21,21,0,0,0,.63,3.44c.33,1.28.77,2.68,1.11,4.2a13.86,13.86,0,0,1,.38,4.37,8.26,8.26,0,0,1-1.1,3.43,5.51,5.51,0,0,1-1.66,1.77C224.46,459.13,224.15,459.22,224.14,459.19Z" style="fill:#263238"></path><path d="M234.06,456.68a12.84,12.84,0,0,1-1.2-2.59,56.84,56.84,0,0,1-2.09-6.56,55.4,55.4,0,0,1-1.28-6.76,13.45,13.45,0,0,1-.18-2.85,18,18,0,0,1,.55,2.79c.3,1.73.76,4.1,1.41,6.7s1.38,4.89,1.94,6.56A20.47,20.47,0,0,1,234.06,456.68Z" style="fill:#263238"></path><path d="M240.88,455.32c-.08,0-.27-.95-.81-2.43s-1.45-3.46-2.45-5.68a21.33,21.33,0,0,1-1.83-6,6.25,6.25,0,0,1,.07-2.59c.09,0,0,1,.3,2.53A25,25,0,0,0,238.1,447a47.39,47.39,0,0,1,2.32,5.77A7.4,7.4,0,0,1,240.88,455.32Z" style="fill:#263238"></path><path d="M246,459.36a28.5,28.5,0,0,0,1-3.16,12.49,12.49,0,0,0-1-7.72c-.64-1.42-1.36-2.74-1.93-4a15.19,15.19,0,0,1-1.13-3.48,7.82,7.82,0,0,1-.06-2.48,2.34,2.34,0,0,1,.24-.87,12.2,12.2,0,0,0,.19,3.28,15.56,15.56,0,0,0,1.2,3.35c.58,1.23,1.31,2.54,2,4a13,13,0,0,1,1.19,4.34,11.66,11.66,0,0,1-.26,3.66,11.23,11.23,0,0,1-.84,2.33A2.43,2.43,0,0,1,246,459.36Z" style="fill:#263238"></path><path d="M252.28,447.77a9.42,9.42,0,0,1-2.23-4.29,9.52,9.52,0,0,1-.33-4.82c.16,0,.11,2.16.83,4.68S252.41,447.68,252.28,447.77Z" style="fill:#263238"></path><path d="M254.89,437.87c.09,0,.12.75.46,1.87a8.87,8.87,0,0,0,.9,1.85,8.41,8.41,0,0,1,1.13,2.39,14.81,14.81,0,0,1,.25,4.74,10.77,10.77,0,0,1-.15,1.94,5.65,5.65,0,0,1-.21-2,18.77,18.77,0,0,0-.39-4.59,9.4,9.4,0,0,0-1-2.29,7.61,7.61,0,0,1-.84-2A4.1,4.1,0,0,1,254.89,437.87Z" style="fill:#263238"></path><path d="M265.75,453.08a4.39,4.39,0,0,0,.21-2.18,6.14,6.14,0,0,0-.9-2.21c-.47-.78-1.09-1.62-1.61-2.59a12.15,12.15,0,0,1-1.51-5.37,4.88,4.88,0,0,1,.33-2.28c.09,0-.08.88,0,2.26a13.52,13.52,0,0,0,1.61,5.14c.49.94,1.09,1.77,1.56,2.6a6.08,6.08,0,0,1,.86,2.4A2.52,2.52,0,0,1,265.75,453.08Z" style="fill:#263238"></path><path d="M274.86,450.88a6,6,0,0,1-1.74-1.24,16.22,16.22,0,0,1-5-8.86,6.11,6.11,0,0,1-.17-2.12,21.16,21.16,0,0,0,6.93,12.22Z" style="fill:#263238"></path><path d="M281.86,453.75a6.63,6.63,0,0,0-.26-2.73,7.69,7.69,0,0,0-1.51-2.56,17.31,17.31,0,0,0-2.77-2.45,29.75,29.75,0,0,1-3-2.36,9.81,9.81,0,0,1-1.94-2.45,5.93,5.93,0,0,1-.66-2,1.66,1.66,0,0,1,0-.77,9.12,9.12,0,0,0,1,2.59,10.28,10.28,0,0,0,1.94,2.29c.84.77,1.88,1.5,2.95,2.3a16,16,0,0,1,2.83,2.55,7.6,7.6,0,0,1,1.49,2.76,4.89,4.89,0,0,1,.15,2.11A1.55,1.55,0,0,1,281.86,453.75Z" style="fill:#263238"></path><path d="M285.86,448.43a9.84,9.84,0,0,1-3.56-4.51,9.6,9.6,0,0,1-.91-5.68,23,23,0,0,0,1.39,5.47A24.41,24.41,0,0,0,285.86,448.43Z" style="fill:#263238"></path><path d="M290.22,454.9a22.32,22.32,0,0,0,1-2.25,8,8,0,0,0-.26-5.71,17,17,0,0,0-1.73-2.76,11.88,11.88,0,0,1-1.4-2.37,3.59,3.59,0,0,1-.35-2.49,7.91,7.91,0,0,0,.69,2.34,13.57,13.57,0,0,0,1.44,2.24,14.52,14.52,0,0,1,1.82,2.83,7.94,7.94,0,0,1,.14,6,6.88,6.88,0,0,1-.89,1.63C290.42,454.75,290.24,454.92,290.22,454.9Z" style="fill:#263238"></path><path d="M300.32,448.49a12.25,12.25,0,0,1-6.85-9.43,18.18,18.18,0,0,0,6.85,9.43Z" style="fill:#263238"></path><path d="M167.4,449.59A16.2,16.2,0,0,0,169,437a4.56,4.56,0,0,1,.73,1.81,12.9,12.9,0,0,1,.29,4.7,12.75,12.75,0,0,1-1.43,4.49A4.68,4.68,0,0,1,167.4,449.59Z" style="fill:#263238"></path><path d="M214.55,201.75l9.59-2.59,34.11-6.3,16.87,4.76s-16.84,17.82-24.06,19.19C235.63,219.72,214.55,201.75,214.55,201.75Z" style="fill:#ffbe9d"></path><path d="M292.48,185.63,263,191s-5.37,36.1-46.56,10.61c0,0-19.49-.9-26.54,8.77-5.13,7-18.66,42.58-18.66,42.58l27.25,22.71,3.41,17.55s-15,13.65-14.27,23.42c0,0,37.32,29.47,63.09,25.87s39.16-16.16,39.16-16.16l11.5-99.89,21.24,6,3.08-34.67Z" style="fill:#FEFEFE"></path><path d="M224.9,309.15a4.94,4.94,0,0,1-1.05-.34c-.67-.24-1.62-.64-2.77-1.17a58.45,58.45,0,0,1-16.27-11.23c-.91-.89-1.62-1.64-2.08-2.17a4.77,4.77,0,0,1-.69-.87c.06-.06,1.15,1.07,3,2.77a72.5,72.5,0,0,0,7.7,6.15,71.51,71.51,0,0,0,8.48,5C223.5,308.45,224.94,309.07,224.9,309.15Z" style="fill:#263238"></path><path d="M244.36,271.27a5.3,5.3,0,0,1-.74,1.11,19.55,19.55,0,0,1-2.48,2.66,21.81,21.81,0,0,1-22.59,4.13,19.43,19.43,0,0,1-3.27-1.61,5.28,5.28,0,0,1-1.08-.77,42.6,42.6,0,0,0,4.48,2,22.41,22.41,0,0,0,22.21-4.06A41.36,41.36,0,0,0,244.36,271.27Z" style="fill:#263238"></path><g style="opacity:0.30000000000000004"><path d="M201.92,293.18c1.92,3.48,5.25,5.47,8.48,7.78,4.86,3.47,10,7,15.86,7.93a6.49,6.49,0,0,0,2.91-.09,2.77,2.77,0,0,0,1.93-2,3,3,0,0,0-1.9-2.92,10,10,0,0,0-3.69-.56c-9-.42-17.37-5.47-23.59-10.11"></path></g><g style="opacity:0.30000000000000004"><path d="M215.92,278.06c3.09,2.73,6.38,5.37,10.24,6.84s8.41,1.63,12-.48,5.65-6.8,4-10.6c-7.23,6.26-16.81,7.15-25.9,4.16"></path></g><path d="M193.23,247.35c.14,0,1.5,6.94,3,15.55s2.68,15.61,2.54,15.64-1.51-6.94-3.05-15.55S193.09,247.37,193.23,247.35Z" style="fill:#263238"></path><path d="M253,265.62a8.6,8.6,0,0,1-2.67,1.37,8.84,8.84,0,0,1-2.87.88,9.13,9.13,0,0,1,2.67-1.36A9,9,0,0,1,253,265.62Z" style="fill:#263238"></path><g style="opacity:0.30000000000000004"><path d="M253.34,208c-1,6.69-2.08,13.44-1.74,20.2s2.17,13.62,6.34,19c3.26,4.17,7.75,7.18,11.82,10.58s7.92,7.51,9.12,12.67c.76,3.28.39,6.71.38,10.08,0,1.34.5,3.14,1.84,3.07a2.58,2.58,0,0,0,1.25-.56,30.67,30.67,0,0,0,7.58-42.22c-7.22-10.64-20.86-16.45-25.69-28.36"></path></g><path d="M303.31,206.33c.14,0-.27,5.17-.92,11.52s-1.29,11.49-1.44,11.48.27-5.18.92-11.53S303.17,206.31,303.31,206.33Z" style="fill:#263238"></path><path d="M301.15,227.23a5.63,5.63,0,0,1-.28.75,7.43,7.43,0,0,1-1.34,1.93,12.41,12.41,0,0,1-8.2,3.4c-3.91.37-8.76-.62-14.18.74a28.25,28.25,0,0,0-21.76,31.05,20.34,20.34,0,0,0,1.57,6A11.1,11.1,0,0,0,260.9,276a9,9,0,0,0,6.25,1.23,14.22,14.22,0,0,0,6.17-2.55A19.09,19.09,0,0,0,280.53,263a19.41,19.41,0,0,0-2.31-14.1,18.9,18.9,0,0,0-5.11-5.44,21.35,21.35,0,0,0-6.9-3.21,19,19,0,0,0-7.69-.45,18.53,18.53,0,0,0-3.78,1,25.29,25.29,0,0,0-3.57,1.69c-4.6,2.66-8.31,6.5-12.07,10.07s-7.83,6.93-12.57,8.84a18,18,0,0,1-7.41,1.4,14.23,14.23,0,0,1-7.06-2.19A19.11,19.11,0,0,1,204,249c-2.33-9.09,1.42-19,8.56-23.41a10.12,10.12,0,0,1,5.9-1.56,8,8,0,0,1,5.27,2.56A5.83,5.83,0,0,1,225,232a8.14,8.14,0,0,1-3,4.46,12.3,12.3,0,0,1-4.74,2.05,21.08,21.08,0,0,1-2.45.38c-.82.07-1.62.07-2.41.1a27.32,27.32,0,0,1-8.8-1.49,31.64,31.64,0,0,1-7-3.42,32.33,32.33,0,0,1-5-4.2,26.06,26.06,0,0,1-5.09-7.42,18.21,18.21,0,0,1-.88-2.18c-.18-.5-.26-.76-.26-.76s.11.25.31.74a22.48,22.48,0,0,0,.92,2.15,26.36,26.36,0,0,0,5.15,7.33,32,32,0,0,0,5,4.13,31.67,31.67,0,0,0,6.93,3.36,26.8,26.8,0,0,0,8.7,1.43c.78,0,1.57,0,2.38-.11a20.43,20.43,0,0,0,2.41-.38,12,12,0,0,0,4.59-2,7.82,7.82,0,0,0,2.89-4.26,5.45,5.45,0,0,0-1.24-5.06,7.57,7.57,0,0,0-5-2.4,9.68,9.68,0,0,0-5.64,1.51c-6.93,4.34-10.62,14-8.31,22.92a18.61,18.61,0,0,0,7.89,11.2,13.67,13.67,0,0,0,6.81,2.11,17.64,17.64,0,0,0,7.2-1.37c4.64-1.88,8.69-5.14,12.4-8.75s7.48-7.43,12.17-10.14a24.84,24.84,0,0,1,3.65-1.73,19.28,19.28,0,0,1,3.89-1,19.76,19.76,0,0,1,7.89.47,21.88,21.88,0,0,1,7.07,3.29,19.54,19.54,0,0,1,5.25,5.59A20,20,0,0,1,281,263.06a19.5,19.5,0,0,1-7.41,12,14.94,14.94,0,0,1-6.39,2.63,9.57,9.57,0,0,1-6.56-1.31,11.57,11.57,0,0,1-4.09-5.07,20.59,20.59,0,0,1-1.6-6.12,28.58,28.58,0,0,1,22.12-31.38c5.49-1.35,10.37-.32,14.24-.67a12.34,12.34,0,0,0,8.14-3.26A7.91,7.91,0,0,0,301.15,227.23Z" style="fill:#fafafa"></path><path d="M310.42,192.75a6.23,6.23,0,0,1-1.08.92,20,20,0,0,1-3.31,2,22.13,22.13,0,0,1-24-3,20.64,20.64,0,0,1-2.72-2.75,6.43,6.43,0,0,1-.81-1.16,39.07,39.07,0,0,0,3.76,3.63,22.63,22.63,0,0,0,23.66,3A38.86,38.86,0,0,0,310.42,192.75Z" style="fill:#fafafa"></path><path d="M325,211.64c0,.09-1.18.54-3,1.63a21.27,21.27,0,0,0-2.92,2.16,24,24,0,0,0-3,3.27,23.44,23.44,0,0,0-2.28,3.8,21.51,21.51,0,0,0-1.26,3.41c-.54,2-.63,3.31-.73,3.3a3.67,3.67,0,0,1,0-.92,8.25,8.25,0,0,1,.11-1.07,13.33,13.33,0,0,1,.26-1.4,19.9,19.9,0,0,1,1.18-3.52,20.23,20.23,0,0,1,5.42-7.23,18.42,18.42,0,0,1,3-2.12,11.64,11.64,0,0,1,1.27-.64,7,7,0,0,1,1-.41A3.34,3.34,0,0,1,325,211.64Z" style="fill:#fafafa"></path><path d="M183.34,263.93c-.09,0-.19-1.28-.56-3.31a38.87,38.87,0,0,0-6-14.83c-1.16-1.71-2-2.7-1.91-2.76s.26.2.65.63a22.81,22.81,0,0,1,1.56,1.92,33.28,33.28,0,0,1,6.07,15c.13,1,.21,1.88.22,2.46A3.69,3.69,0,0,1,183.34,263.93Z" style="fill:#fafafa"></path><path d="M291.18,303.61s-.36-.38-1.14-.94a9.93,9.93,0,0,0-3.83-1.63,13.87,13.87,0,0,0-6.55.35,24.92,24.92,0,0,0-7.67,4.24c-2.61,2-5.23,4.46-8.44,6.66a23.1,23.1,0,0,1-5.34,2.79,15.24,15.24,0,0,1-6.34.82,16,16,0,0,1-11.69-6.56,16.15,16.15,0,0,1-2-14.2,11.49,11.49,0,0,1,4.38-6,6.18,6.18,0,0,1,3.59-1,5,5,0,0,1,3.31,1.6,4.21,4.21,0,0,1,1.25,3.4,3.9,3.9,0,0,1-2.16,2.81c-2.14,1.09-4.46,1-6.6,1.28a65.83,65.83,0,0,1-37.22-8.5c-1.58-.95-2.79-1.7-3.58-2.26l-.91-.63c-.2-.14-.3-.22-.29-.23l.32.19.94.58c.8.54,2,1.26,3.62,2.17a67.28,67.28,0,0,0,14.32,5.88A66.16,66.16,0,0,0,242,296.67c2.12-.26,4.44-.22,6.4-1.24a3.39,3.39,0,0,0,1.89-2.45,3.68,3.68,0,0,0-1.12-3,4.48,4.48,0,0,0-3-1.44,5.59,5.59,0,0,0-3.28,1,11,11,0,0,0-4.17,5.76,15.67,15.67,0,0,0,1.89,13.75,15.45,15.45,0,0,0,11.31,6.37,14.7,14.7,0,0,0,6.15-.77,23.08,23.08,0,0,0,5.25-2.72c3.18-2.15,5.82-4.62,8.46-6.59a24.73,24.73,0,0,1,7.8-4.22,14,14,0,0,1,6.69-.28,9.7,9.7,0,0,1,3.85,1.75,6.73,6.73,0,0,1,.82.74A2.67,2.67,0,0,1,291.18,303.61Z" style="fill:#fafafa"></path><path d="M215.73,331.61a7.67,7.67,0,0,1-.4-1.44c-.24-.92-.6-2.25-1.14-3.86A43.46,43.46,0,0,0,208,314.6a41.77,41.77,0,0,0-4.85-5.46,26.86,26.86,0,0,0-4.68-3.67,10.65,10.65,0,0,0-3.71-1.4c-.94-.14-1.47-.09-1.47-.14s.13,0,.38-.07a5.91,5.91,0,0,1,1.11,0,10,10,0,0,1,3.87,1.28,25.24,25.24,0,0,1,4.83,3.64,40,40,0,0,1,4.94,5.5,40.5,40.5,0,0,1,6.1,11.9,36.6,36.6,0,0,1,1,3.94A9.18,9.18,0,0,1,215.73,331.61Z" style="fill:#fafafa"></path><path d="M287.82,328.23c0,.11-2-.1-5.29.11a40.41,40.41,0,0,0-5.68.78,40.5,40.5,0,0,0-12.94,5.22,42,42,0,0,0-4.64,3.37c-2.49,2.11-3.81,3.67-3.89,3.6a8.39,8.39,0,0,1,.9-1.12,14.54,14.54,0,0,1,1.14-1.23c.47-.46,1-1,1.61-1.53a36.66,36.66,0,0,1,4.62-3.49,40.88,40.88,0,0,1,6.31-3.25,41.79,41.79,0,0,1,6.8-2,37.14,37.14,0,0,1,5.75-.68c.82-.06,1.57,0,2.22,0s1.22.05,1.67.09A7.1,7.1,0,0,1,287.82,328.23Z" style="fill:#fafafa"></path><path d="M147.4,193.76s7.87,6.71,9,12c.5,2.34,4.44,20.16,4.44,20.16l-18,5.94a10.83,10.83,0,0,0-4.38-6.53c-3.56-2.24-12.93-8.78-12.93-8.78l-2.9-22.84,7.94-7,.17-11.71a3.94,3.94,0,0,1,3.61,3.54c.57,3.44,4.07,9.36,4.07,9.36Z" style="fill:#ffbe9d"></path><path d="M142.91,231.85s9.23,69,11.65,77.06c2.52,8.42,9.16,14,16.42,13.36a17.6,17.6,0,0,0,14.94-11.5c2-5.41,11.42-36.1,11.42-36.1L175,255.8l-5.37,15.3-8.74-45.19Z" style="fill:#ffbe9d"></path><path d="M150,214.71a10.68,10.68,0,0,1-3.27-4.87,15.18,15.18,0,0,1-.91-4.08,4.7,4.7,0,0,1,0-1.73c.18,0,.25,2.63,1.36,5.62A28.83,28.83,0,0,0,150,214.71Z" style="fill:#eb996e"></path><polygon points="132.75 173.36 130.32 207.37 143.8 216.36 145.07 215.41 147.24 183.37 135.13 173.26 132.75 173.36" style="fill:#263238"></polygon><polygon points="136.5 177.45 135.83 188.97 144.14 195.25 144.87 184.47 136.5 177.45" style="fill:#fff"></polygon><path d="M134.41,198.68a1.13,1.13,0,0,1,.09-.31,4.42,4.42,0,0,1,.47-.79,5.17,5.17,0,0,1,2.88-1.76,5,5,0,0,1,4.75,1.3,4.82,4.82,0,0,1,1.47,2.64,5.9,5.9,0,0,1-.2,3.24,4.51,4.51,0,0,1-2.19,2.41,5.75,5.75,0,0,1-7.16-2.23,6.19,6.19,0,0,1-.53-3.34,2.14,2.14,0,0,1,.42-1.16,9.54,9.54,0,0,0-.22,1.18,6.36,6.36,0,0,0,.66,3.15,4.9,4.9,0,0,0,3.9,2.36,4.84,4.84,0,0,0,2.71-.42,4,4,0,0,0,1.92-2.14,5.37,5.37,0,0,0,.19-2.94,4.39,4.39,0,0,0-1.3-2.4,4.61,4.61,0,0,0-4.34-1.29,5.19,5.19,0,0,0-2.8,1.53C134.62,198.28,134.46,198.7,134.41,198.68Z" style="fill:#455a64"></path><path d="M145.07,215.42a5.66,5.66,0,0,1-.95-.58l-2.56-1.73-8.87-6.17-.11-.08v-.13c.19-2.86.4-6,.61-9.26.46-6.7.91-12.75,1.26-17.13.18-2.13.32-3.88.43-5.19l.15-1.4a1.58,1.58,0,0,1,.09-.49,2.3,2.3,0,0,1,0,.49c0,.39,0,.85,0,1.42-.07,1.31-.16,3.06-.28,5.19-.25,4.39-.64,10.45-1.1,17.14-.23,3.28-.45,6.4-.65,9.26l-.1-.21,8.76,6.32,2.48,1.84A6.05,6.05,0,0,1,145.07,215.42Z" style="fill:#455a64"></path><path d="M130.64,186.66l10.21-.43s.42,3.94-1.88,4.59l-8.14.33,5.17,1.34,7.63,6.45s-2,2.42-3.8,1.94-5.35-3.22-5.35-3.22l-4.36,2,6.36.84,5.76,7.86s-2.94,1.23-4.43.19a15.39,15.39,0,0,1-3-3.43l-3.75.71-.25,10-5.19.75-3-14.71,1.06-2.6-.94-5.53Z" style="fill:#ffbe9d"></path><path d="M136,192.49a27.35,27.35,0,0,1-4.28-.88l.22-.06c-.94,1-2,2.19-3.1,3.43-1.68,1.83-3.22,3.47-4.36,4.64a13,13,0,0,1-1.92,1.82,13.18,13.18,0,0,1,1.65-2.07c1.06-1.23,2.56-2.91,4.24-4.74l3.16-3.38.09-.1.13,0A27.45,27.45,0,0,1,136,192.49Z" style="fill:#eb996e"></path><path d="M124.49,205.6c-.07,0,.08-.53.46-1.27a20.07,20.07,0,0,1,1.74-2.71,13.52,13.52,0,0,1,1.13-1.4,2.48,2.48,0,0,1,1.33-.77,1.53,1.53,0,0,1,1,.13c.22.13.29.25.27.27a2.33,2.33,0,0,0-1.22,0c-.74.18-1.38,1.11-2.12,2.13C125.59,203.9,124.6,205.64,124.49,205.6Z" style="fill:#eb996e"></path><path d="M169.71,289a11.88,11.88,0,0,1-.25-2.62c-.08-1.62-.09-3.86-.06-6.33s.06-4.53.09-6.33a15.53,15.53,0,0,1,.11-2.62,11.44,11.44,0,0,1,.26,2.62c.07,1.62.09,3.86.06,6.33s-.07,4.52-.09,6.32A14.85,14.85,0,0,1,169.71,289Z" style="fill:#eb996e"></path><path d="M232.18,103.5a2.45,2.45,0,0,1-.61.06l-1.74.09a32.08,32.08,0,0,0-6.26,1.09,26.64,26.64,0,0,0-8.39,4.15,37.72,37.72,0,0,0-4.19,3.65,36.52,36.52,0,0,0-3.93,4.5,52.78,52.78,0,0,0-5.88,9.94,29.1,29.1,0,0,0-1.63,4.75,17.7,17.7,0,0,0-.45,4.34,23.71,23.71,0,0,0,.76,6.29,9.38,9.38,0,0,0,.61,1.61c.17.35.3.52.29.53a4.68,4.68,0,0,1-1.1-2.08,22.21,22.21,0,0,1-.93-6.35,18,18,0,0,1,.4-4.44,28.59,28.59,0,0,1,1.61-4.84,51.22,51.22,0,0,1,5.9-10.06,41.49,41.49,0,0,1,8.26-8.22,26,26,0,0,1,8.58-4.12,29.47,29.47,0,0,1,6.34-1c.76,0,1.35,0,1.75,0A2.63,2.63,0,0,1,232.18,103.5Z" style="fill:#263238"></path><path d="M277.77,136.53c1.08,7.75-2.95,14.72-9,15.56s-11.81-4.77-12.89-12.52,2.95-14.73,9-15.57S276.69,128.77,277.77,136.53Z" style="fill:#FEFEFE"></path><path d="M275,144c-.09,0,.48-1.21.82-3.23a15.39,15.39,0,0,0-.73-7.83,13.23,13.23,0,0,0-4.78-6.19,22.59,22.59,0,0,0-2.94-1.53,2.46,2.46,0,0,1,.89.18,9.64,9.64,0,0,1,2.25,1,12.8,12.8,0,0,1,5.07,6.3,14.74,14.74,0,0,1,.6,8.09,11.87,11.87,0,0,1-.74,2.36A2.86,2.86,0,0,1,275,144Z" style="fill:#fff"></path><path d="M279.5,190.57a18.22,18.22,0,0,1,1-1.55,36.44,36.44,0,0,0,2.53-4.33,19.92,19.92,0,0,0,2.07-7.05,15,15,0,0,0-2-8.64,55.53,55.53,0,0,0-5.35-7.35,45.33,45.33,0,0,1-4.37-6.1,16.89,16.89,0,0,1-1.83-4.72c-.09-.6-.13-1.06-.16-1.37a1.58,1.58,0,0,1,0-.48,13.23,13.23,0,0,1,.38,1.8,18.25,18.25,0,0,0,1.95,4.58,47,47,0,0,0,4.42,6,53.24,53.24,0,0,1,5.44,7.41,15.45,15.45,0,0,1,2,8.93,19.91,19.91,0,0,1-2.22,7.18,30.7,30.7,0,0,1-2.7,4.28c-.35.48-.64.84-.85,1.08S279.52,190.58,279.5,190.57Z" style="fill:#263238"></path><path d="M207.07,193.91c-.62,7.64,5.58,14,8,21.28a22.79,22.79,0,0,1-8.29,25.07c7.5,1.3,15.18-3.47,18.78-10.17s2.72-14.93.78-22.28-2.54-9.84-2.54-9.84" style="fill:#263238"></path><path d="M231.1,106.33s.93-6.44,7.59-5.16,17.15,3.8,22.78,14.75,11.6,39,11.76,40.14,6.74,45.86,10.36,51.41a14.82,14.82,0,0,0,7.69,6.31s-6.7,4.72-14-1.84-21-33.73-21-33.73Z" style="fill:#263238"></path><path d="M207.52,129.91l-1.25-5.11L235.74,112c9.27-3.14,21.67,4.07,24.41,13.46,3.05,10.43,6.36,23.29,6.88,31.47,1.05,16.45-10.67,21.21-10.67,21.21L259.83,194l-35,8.33Z" style="fill:#ffbe9d"></path><path d="M259.42,136.68c-.19.32-2-.47-4.19,0s-3.54,1.95-3.84,1.74c-.15-.1,0-.63.59-1.3a5.71,5.71,0,0,1,3-1.72,5.47,5.47,0,0,1,3.4.31C259.18,136.1,259.52,136.53,259.42,136.68Z" style="fill:#263238"></path><path d="M237.65,143c-.19.32-2-.48-4.18,0s-3.55,2-3.85,1.74c-.14-.09,0-.63.59-1.3a5.75,5.75,0,0,1,3-1.72,5.52,5.52,0,0,1,3.4.31C237.41,142.44,237.75,142.87,237.65,143Z" style="fill:#263238"></path><path d="M248.47,152.71a14.27,14.27,0,0,1,3.41-1.45c.55-.18,1.05-.41,1.06-.81a3,3,0,0,0-.74-1.58L249.58,145c-3.66-5.55-6.44-10.16-6.22-10.31s3.38,4.24,7,9.79l2.55,3.93a3.33,3.33,0,0,1,.78,2.13,1.41,1.41,0,0,1-.73,1,4.13,4.13,0,0,1-.92.35A15,15,0,0,1,248.47,152.71Z" style="fill:#263238"></path><path d="M256.36,178.21a43.11,43.11,0,0,1-23.09-.8s7.86,9.91,24,4.76Z" style="fill:#eb996e"></path><path d="M248.73,158.2a4,4,0,0,0-3.87-.67,3.67,3.67,0,0,0-2.19,1.89,2.33,2.33,0,0,0,.41,2.65,2.72,2.72,0,0,0,3,.08,8.4,8.4,0,0,0,2.42-2.3,2.16,2.16,0,0,0,.48-.79.74.74,0,0,0-.18-.81" style="fill:#FEFEFE"></path><path d="M242.36,155.67c.35-.1.89,2.28,3.31,3.51s4.88.4,5,.73c.06.14-.46.59-1.53.86a6.05,6.05,0,0,1-4.13-.48,5.27,5.27,0,0,1-2.62-3C242.06,156.34,242.19,155.69,242.36,155.67Z" style="fill:#263238"></path><path d="M235.58,131.56c-.08.65-2.33.86-4.83,1.74s-4.43,2.06-4.89,1.6c-.21-.22,0-.86.73-1.63a9,9,0,0,1,7.41-2.54C235,130.9,235.61,131.26,235.58,131.56Z" style="fill:#263238"></path><path d="M256.08,126.83c-.27.58-1.9.4-3.72.79s-3.28,1.09-3.75.65c-.21-.22-.08-.78.49-1.4a5.18,5.18,0,0,1,2.83-1.49,5.3,5.3,0,0,1,3.18.33C255.87,126.08,256.2,126.55,256.08,126.83Z" style="fill:#263238"></path><path d="M217,148.33c8.58-7.05,12.81-21.5,17.32-31.64,1-2.25,2-4.75,1.29-7.1s-3.31-4-5.86-4.24a14.59,14.59,0,0,0-7.39,1.69,37.86,37.86,0,0,0-20.16,23.52c-.93,3.23-.37,10.33,2.35,12.3,3,2.16,6.59.33,9.5,2.59" style="fill:#263238"></path><path d="M263.49,171.89c5.75,6.49,10.27,16.39,10.17,25.06-.09,8-2.78,16.65,1.12,23.65,3.52,6.3,11.19,8.92,16.18,14.13,5.74,6,7.36,15.24,5.36,23.32s-7.21,15.07-13.46,20.57a21.44,21.44,0,0,0-5.9-23.14c-4.06-3.51-9.34-5.35-13.49-8.76-6-5-9-12.8-9.88-20.55s.26-15.57,1.13-23.31,2.11-16.75.39-24.35C258.44,178,261.41,175.32,263.49,171.89Z" style="fill:#263238"></path><path d="M236,107.42a12.64,12.64,0,0,1,.22,1.75,19.58,19.58,0,0,1,.11,2.07c0,.81.05,1.74,0,2.75,0,.51-.06,1.05-.1,1.6s-.14,1.13-.21,1.72c-.12,1.2-.4,2.45-.67,3.78a46.2,46.2,0,0,1-2.81,8.3A46.89,46.89,0,0,1,228,137c-.83,1.07-1.59,2.1-2.42,3-.4.45-.77.9-1.16,1.29l-1.15,1.12c-.71.73-1.44,1.3-2,1.83a17.74,17.74,0,0,1-1.64,1.27,11.51,11.51,0,0,1-1.47,1,12.19,12.19,0,0,1,1.34-1.14c.45-.35,1-.78,1.58-1.33s1.3-1.13,2-1.87l1.11-1.14c.39-.39.74-.84,1.14-1.29.8-.88,1.54-1.91,2.35-3a44.47,44.47,0,0,0,7.18-15.7c.27-1.31.57-2.54.71-3.73.07-.58.18-1.15.23-1.7s.09-1.07.13-1.58c.12-1,.09-1.92.12-2.73a19.17,19.17,0,0,0,0-2.06A10.8,10.8,0,0,1,236,107.42Z" style="fill:#263238"></path><path d="M228.5,231.4a3.62,3.62,0,0,1,.18-.68c.12-.44.36-1.07.58-1.91a49.23,49.23,0,0,0-1.16-30.91,112.73,112.73,0,0,0-5.81-12,72.51,72.51,0,0,1-4.52-9.95,28.18,28.18,0,0,1-1.55-7.21,16.38,16.38,0,0,1-.05-2,3.45,3.45,0,0,1,0-.7s0,1,.21,2.68a30.1,30.1,0,0,0,1.7,7.1,75.59,75.59,0,0,0,4.6,9.85,108,108,0,0,1,5.86,12,47.76,47.76,0,0,1,2.56,24,44.73,44.73,0,0,1-1.69,7.18c-.25.83-.52,1.45-.67,1.88A4,4,0,0,1,228.5,231.4Z" style="fill:#263238"></path><path d="M211.58,142.63a7.62,7.62,0,0,1,1.14-1.11c.38-.34.84-.76,1.36-1.27s1.12-1.06,1.74-1.73a61.84,61.84,0,0,0,4.24-4.79,68,68,0,0,0,4.49-6.41,66.83,66.83,0,0,0,3.65-6.92,60.7,60.7,0,0,0,2.33-6c.32-.86.53-1.65.75-2.34s.38-1.3.51-1.79a8.18,8.18,0,0,1,.46-1.52,9.69,9.69,0,0,1-.27,1.57c-.09.5-.23,1.11-.42,1.81s-.38,1.51-.67,2.38a57.74,57.74,0,0,1-2.25,6A58,58,0,0,1,220.43,134a55,55,0,0,1-4.35,4.75c-.64.66-1.27,1.2-1.81,1.68s-1,.9-1.42,1.21A11.59,11.59,0,0,1,211.58,142.63Z" style="fill:#455a64"></path><path d="M204.76,141.29a1.78,1.78,0,0,1-.07-.43,4.78,4.78,0,0,1,.11-1.25,7.69,7.69,0,0,1,2.33-3.94,37.77,37.77,0,0,1,5.57-3.86,48.12,48.12,0,0,0,6.48-5.06,49.71,49.71,0,0,0,9.27-11.67c1-1.66,1.64-3.06,2.1-4a10.24,10.24,0,0,1,.74-1.5,12.24,12.24,0,0,1-.55,1.58,40.77,40.77,0,0,1-2,4.13,46.59,46.59,0,0,1-15.81,17,40.48,40.48,0,0,0-5.58,3.72,7.88,7.88,0,0,0-2.39,3.72A12.65,12.65,0,0,0,204.76,141.29Z" style="fill:#455a64"></path><path d="M212.91,240a5.31,5.31,0,0,1,.55-.5c.19-.16.43-.34.69-.58s.54-.54.87-.86a20.19,20.19,0,0,0,4.07-6.57,28.4,28.4,0,0,0,1.73-11.32,51.52,51.52,0,0,0-2.91-13.81c-1.58-4.79-3.37-9.26-4.66-13.46a53,53,0,0,1-2.38-11.4,29.21,29.21,0,0,1,.33-7.84,17.89,17.89,0,0,1,.5-2.08,3,3,0,0,1,.23-.7c.06,0-.25,1-.53,2.81a32,32,0,0,0-.17,7.78,55.71,55.71,0,0,0,2.48,11.29c1.31,4.16,3.1,8.63,4.7,13.43a51.38,51.38,0,0,1,2.89,14,28.28,28.28,0,0,1-1.87,11.48,19.35,19.35,0,0,1-4.27,6.57l-.91.83a8.77,8.77,0,0,1-.72.55A3.28,3.28,0,0,1,212.91,240Z" style="fill:#455a64"></path><path d="M203.52,200.81a6.41,6.41,0,0,1,.22-1.21c.2-.88.45-2,.74-3.27.62-2.76,1.44-6.58,2.19-10.82s1.3-8.12,1.66-10.93c.17-1.32.31-2.43.42-3.32A5.56,5.56,0,0,1,209,170a6.27,6.27,0,0,1,0,1.24c0,.79-.13,1.93-.27,3.34-.26,2.83-.75,6.71-1.51,11s-1.63,8.08-2.34,10.82c-.36,1.37-.67,2.47-.9,3.23A5.28,5.28,0,0,1,203.52,200.81Z" style="fill:#455a64"></path><path d="M219.42,154.53c1.08,7.76-2.94,14.73-9,15.56-4.55.64-8.78-2.67-11.13-7.52a23.11,23.11,0,0,1-1.76-5c-1.73-7.63,3-14.72,9-15.56S218.35,146.78,219.42,154.53Z" style="fill:#FEFEFE"></path><path d="M211.82,155.14c1.88,6.91.3,13.34-3.53,14.39s-8.45-3.71-10.33-10.62-.29-13.34,3.53-14.38S209.94,148.24,211.82,155.14Z" style="fill:#FEFEFE"></path><path d="M211.82,155.14c1.88,6.91.3,13.34-3.53,14.39s-8.45-3.71-10.33-10.62-.29-13.34,3.53-14.38S209.94,148.24,211.82,155.14Z" style="opacity:0.30000000000000004"></path><path d="M209.94,142.06a18.72,18.72,0,0,0-2.79-.05,14.08,14.08,0,0,0-6.1,2.59,10.33,10.33,0,0,0-3.32,5.64c-.43,1.67-.47,2.76-.55,2.76a2,2,0,0,1-.06-.77,13.06,13.06,0,0,1,1.23-5,8.57,8.57,0,0,1,2.38-3,13.05,13.05,0,0,1,6.39-2.54,7.19,7.19,0,0,1,2.09.16A1.78,1.78,0,0,1,209.94,142.06Z" style="fill:#263238"></path><path d="M199.93,145.29s.09-.1.29-.23a4.22,4.22,0,0,1,1-.4,5.36,5.36,0,0,1,3.82.39,9.82,9.82,0,0,1,4.15,3.92,24.25,24.25,0,0,1,2.88,6.38,17.63,17.63,0,0,1,.67,7,11.88,11.88,0,0,1-2,5.38,4.56,4.56,0,0,1-3.24,2,2.8,2.8,0,0,1-1.06-.06.86.86,0,0,1-.34-.13,5,5,0,0,0,1.37,0,4.42,4.42,0,0,0,3-2,11.84,11.84,0,0,0,1.78-5.22,17.68,17.68,0,0,0-.69-6.77,24.75,24.75,0,0,0-2.79-6.26,9.75,9.75,0,0,0-3.9-3.85,5.38,5.38,0,0,0-3.61-.52A9.85,9.85,0,0,0,199.93,145.29Z" style="fill:#263238"></path><path d="M217.75,161.68c-.09,0,.32-1.22.51-3.23a16.76,16.76,0,0,0-5.42-14.06c-1.48-1.36-2.59-2-2.54-2.06a3.09,3.09,0,0,1,.81.38,13.48,13.48,0,0,1,2,1.4,16,16,0,0,1,5.54,14.39,14.48,14.48,0,0,1-.53,2.36A2.66,2.66,0,0,1,217.75,161.68Z" style="fill:#fff"></path><path d="M185.48,161a57.12,57.12,0,0,1-7.85.07,57.85,57.85,0,0,1-7.84-.46,60.23,60.23,0,0,1,7.85-.06A61,61,0,0,1,185.48,161Z" style="fill:#263238"></path><path d="M184.21,167.11a24.21,24.21,0,0,1-4,2.95,25,25,0,0,1-4.33,2.51,24.21,24.21,0,0,1,4-2.95A25.41,25.41,0,0,1,184.21,167.11Z" style="fill:#263238"></path><path d="M189.22,168.94a43.37,43.37,0,0,1-2.56,6.24,44.52,44.52,0,0,1-3,6,44,44,0,0,1,2.55-6.24A43.84,43.84,0,0,1,189.22,168.94Z" style="fill:#263238"></path><path d="M310,119.87a22.08,22.08,0,0,1-3,1c-1.89.55-4.5,1.32-7.37,2.22s-5.43,1.79-7.3,2.43a21.68,21.68,0,0,1-3,1,17.52,17.52,0,0,1,2.91-1.31c1.84-.73,4.4-1.66,7.28-2.58s5.5-1.61,7.43-2.07A17.05,17.05,0,0,1,310,119.87Z" style="fill:#263238"></path><path d="M292.32,109.55a47.51,47.51,0,0,1-3.29,6.1,46.09,46.09,0,0,1-3.73,5.84,46.63,46.63,0,0,1,3.28-6.1A45.45,45.45,0,0,1,292.32,109.55Z" style="fill:#263238"></path><path d="M302.6,134.73a30.94,30.94,0,0,1-5.78-.58,33,33,0,0,1-5.71-1.09,30.88,30.88,0,0,1,5.78.58A33,33,0,0,1,302.6,134.73Z" style="fill:#263238"></path></g></svg>