<svg xmlns="http://www.w3.org/2000/svg" viewBox="0 0 500 500"><g id="freepik--Floor--inject-2"><polygon points="38.76 412.82 91.57 412.58 144.38 412.49 250 412.33 355.62 412.49 408.43 412.58 461.24 412.82 408.43 413.07 355.62 413.16 250 413.32 144.38 413.16 91.57 413.07 38.76 412.82" style="fill:#263238"></polygon></g><g id="freepik--Shadow--inject-2"><ellipse cx="250" cy="463.74" rx="101.59" ry="9.79" style="fill:#ebebeb"></ellipse></g><g id="freepik--Plant--inject-2"><path d="M124.14,304.79c-3.71-3.64-8.51-8-14.19-6.47-5.34,1.48-7.38,7.31-8.34,12.16-1.23,6.26-2.19,12.58-3.18,18.89s-2,12.73-2.87,19.11c-.51,3.6-1,7.2-1.53,10.8l-.75,5.4c-.24,1.77-.54,3.53-.64,5.31,0,.57.86.65,1,.11.69-3,1-6.12,1.41-9.17s.89-6.13,1.34-9.2c.89-6.08,1.81-12.17,2.72-18.25s1.87-12.17,2.84-18.25c.83-5.16,1.22-11.56,5.79-15a8.82,8.82,0,0,1,8.54-.8c3,1.15,5.41,3.3,7.76,5.43A.08.08,0,0,0,124.14,304.79Z" style="fill:#263238"></path><path d="M119.06,301.07s-7.59-2.73-11.34,2.81.74,19.62,35.29,27.57a97.49,97.49,0,0,0-8.31-31.24C127.29,284.06,114.09,290.18,119.06,301.07Z" style="fill:#FEFEFE"></path><path d="M141,329.15a29.13,29.13,0,0,0-1.74-2.81l-1.75-2.66c-.45-.66-.9-1.32-1.36-2a4,4,0,0,0,.07-.5l.12-.9c.08-.64.18-1.29.27-1.94s.2-1.28.33-1.92a9.89,9.89,0,0,1,.45-2c0-.1-.14-.15-.15,0a7.7,7.7,0,0,1-.31,1.14c-.08.29-.16.58-.23.87q-.25,1-.48,2c-.13.61-.25,1.22-.35,1.83-.05.3-.1.59-.14.89-.61-.88-1.24-1.75-1.89-2.6-1.83-2.42-3.77-4.75-5.78-7,0,0,0,0,0-.06.18-3.63.09-7.22.9-10.8,0-.09-.13-.15-.15-.05a36.82,36.82,0,0,0-1.29,10.33c-.72-.8-1.45-1.6-2.19-2.39-1.68-1.81-3.39-3.6-5.15-5.34a.08.08,0,0,0-.11.11c2.91,3.13,5.68,6.4,8.37,9.72a60.58,60.58,0,0,0-6.32.23c-2.34.18-4.67.48-7,.8-.1,0-.07.17,0,.15a65.31,65.31,0,0,1,7-.62c2.26-.1,4.5,0,6.75,0q2.19,2.7,4.32,5.45H133c-.53,0-1.06,0-1.59,0-1.05,0-2.11.09-3.15.18a47.2,47.2,0,0,0-6.38.95.08.08,0,0,0,0,.16c2.12-.24,4.25-.44,6.38-.52,1,0,2,0,3.06,0h1.59a1.91,1.91,0,0,0,.87-.08c.93,1.21,1.86,2.41,2.78,3.63.74,1,1.46,1.94,2.17,2.92s1.38,2.1,2.19,3C141,329.31,141.06,329.22,141,329.15Z" style="fill:#263238"></path><path d="M122.36,308.92a22.76,22.76,0,0,0-3.69-.18c-1.23,0-2.47,0-3.7.08a.08.08,0,1,0,0,.15c1.25-.09,2.5-.11,3.75-.09s2.42.13,3.63.1A0,0,0,0,0,122.36,308.92Z" style="fill:#263238"></path><path d="M133.21,311.7c.14-1.18.29-2.36.54-3.52a.08.08,0,1,0-.15,0c-.18,1.16-.4,2.32-.57,3.48-.09.58-.17,1.17-.24,1.75a7.61,7.61,0,0,0-.14,1.65.1.1,0,0,0,.2,0,10,10,0,0,0,.18-1.64C133.08,312.82,133.14,312.26,133.21,311.7Z" style="fill:#263238"></path><path d="M130.94,298.63c-.3,1.14-.6,2.31-.82,3.48-.1.59-.19,1.19-.27,1.78a6.85,6.85,0,0,0-.12,1.75c0,.05.08.05.09,0a9.53,9.53,0,0,0,.27-1.67c.08-.57.17-1.15.27-1.72.21-1.2.42-2.4.73-3.58C131.11,298.58,131,298.53,130.94,298.63Z" style="fill:#263238"></path><path d="M85.94,368.72c-.19-2.18-.4-4.35-.63-6.53q-.69-6.45-1.56-12.89c-.58-4.28-1.13-8.56-1.81-12.82a32.17,32.17,0,0,0-1.32-5.83A5.53,5.53,0,0,0,77.39,327c-4.06-1.41-6.81,2.81-8.45,5.79,0,.09.08.16.14.08,1-1.42,3.7-5.38,6.78-5.2,2.08.13,3.74,1.59,4.73,6.77,2.49,12.89,4.72,39.06,5,40.77.13.91.78.87.78-.1C86.37,373,86.12,370.85,85.94,368.72Z" style="fill:#263238"></path><path d="M70,331.21s3.55-12.55-4.3-6.28C52.66,335.38,52.19,358.1,52.19,358.1s23.25-13.51,26.14-22.41C82.64,322.42,70,331.21,70,331.21Z" style="fill:#FEFEFE"></path><path d="M74.44,337.37c-1.83.37-3.68.61-5.52.87l-2.61.37c-.59.08-1.19.14-1.78.21,1.73-2.38,3.48-4.76,5.14-7.19a.1.1,0,0,0-.16-.12A53.47,53.47,0,0,0,65.63,336l-1-2.91c-.39-1.12-.82-2.24-1.1-3.4,0-.09-.18-.05-.15.05.32,1.15.54,2.32.85,3.47s.63,2.22,1,3.3c-.85,1.11-1.67,2.24-2.46,3.38-.4-1.13-.9-2.23-1.25-3.38a.08.08,0,0,0-.15.05c.42,1.27.64,2.59,1,3.87-.53.78-1.06,1.56-1.57,2.35-.94,1.45-1.83,2.93-2.69,4.42a.34.34,0,0,0-.21.35c-1.46,2.54-2.86,5.12-4.24,7.72,0,.09.09.16.14.07,1.38-2.57,2.91-5.07,4.51-7.52h0a3.65,3.65,0,0,1,.76-.14l.81-.18c.6-.13,1.19-.28,1.79-.43,1.18-.3,2.35-.57,3.54-.78.1,0,.06-.17,0-.15-1.41.27-2.82.43-4.24.59L59,347l-.1,0q1.26-1.9,2.54-3.78c.85-1.23,1.72-2.44,2.59-3.64.81-.12,1.61-.33,2.4-.48l2.7-.53c1.8-.35,3.59-.75,5.4-1.05C74.58,337.5,74.54,337.35,74.44,337.37Z" style="fill:#263238"></path><path d="M60.47,338.6c-.11-.33-.21-.66-.32-1a19.73,19.73,0,0,1-.53-2.11c0-.1-.17-.05-.15.05.15.7.32,1.41.48,2.12a13.76,13.76,0,0,0,.61,2.08.14.14,0,0,0,.27-.08C60.73,339.31,60.58,339,60.47,338.6Z" style="fill:#263238"></path><path d="M76.82,334.46c-1.06.16-2.13.23-3.2.33s-2.13.24-3.19.4c-.06,0-.06.1,0,.09,1.07-.07,2.13-.15,3.2-.29s2.12-.3,3.19-.37C76.92,334.61,76.91,334.45,76.82,334.46Z" style="fill:#263238"></path><path d="M103.05,352.83c-.42-9.24-1-18.46-1.93-27.67-.46-4.58-1-9.16-1.63-13.72a98.11,98.11,0,0,0-2.64-13.28,25.37,25.37,0,0,0-4.43-9.37,10.05,10.05,0,0,0-8.93-3.9c-4,.5-7.3,3.05-10.11,5.82-3.16,3.1-6.06,6.49-9,9.81-.74.84-1.48,1.69-2.21,2.54a.08.08,0,0,0,.12.11c2.86-3.29,5.83-6.48,8.94-9.53,2.87-2.83,5.84-5.91,9.82-7.08a10.06,10.06,0,0,1,5.7-.13,9,9,0,0,1,3.9,2.47,20.38,20.38,0,0,1,4.39,8.54c2.49,8.49,3.38,17.4,4.3,26.17s1.57,17.84,2,26.79.8,18,1.67,27c.1,1.11.25,2.21.39,3.31.09.75,1.24.75,1.18,0C103.89,371.39,103.46,362.11,103.05,352.83Z" style="fill:#263238"></path><path d="M72.87,291.71s5.27-9.77-1-12.9S44.81,299,38.71,333c0,0,33.7-14.91,45.15-29.77S82.33,285.13,72.87,291.71Z" style="fill:#FEFEFE"></path><path d="M77.82,299.65c-3.79,0-7.56-.29-11.35-.26L68.6,297a35.8,35.8,0,0,0,3-3.44c.06-.08-.06-.19-.13-.13a26.91,26.91,0,0,0-2.87,2.88c-1,1-1.89,2-2.83,3-1.45,1.57-2.87,3.16-4.28,4.76,0-.16,0-.31,0-.46v-2c0-1.29,0-2.57,0-3.86,0-2.6,0-5.22.2-7.82,0-.1-.15-.09-.15,0-.18,2.61-.45,5.21-.58,7.83-.06,1.28-.1,2.57-.11,3.85,0,.66,0,1.33,0,2,0,.36,0,.74,0,1.12l-.67.74c-3,3.45-5.89,7-8.69,10.66,0-.2,0-.4,0-.6,0-.4-.09-.8-.13-1.2-.1-.87-.22-1.74-.35-2.6s-.25-1.63-.39-2.44-.37-1.83-.44-2.75a.08.08,0,1,0-.16,0,23.25,23.25,0,0,1,.32,2.77c.08.83.16,1.67.23,2.5s.15,1.67.24,2.5l.12,1.2c0,.2,0,.4.07.6a1.28,1.28,0,0,0,.16.48l-1.44,1.88c-1.91,2.53-3.78,5.09-5.66,7.64-.06.08,0,.19.11.11,1.78-2.32,3.61-4.59,5.46-6.85,1.39.06,2.8,0,4.19-.06s2.92,0,4.38,0c.1,0,.1-.16,0-.15l-4.38.05c-1.34,0-2.7-.06-4,0,1.63-2,3.28-3.95,4.93-5.91l1.81-2.15a8,8,0,0,0,1.69.06h2l3.74-.05c2.57,0,5.14-.13,7.71-.14a.08.08,0,1,0,0-.15c-2.57,0-5.15-.14-7.72-.21l-3.74-.09-2,0c-.37,0-.76,0-1.15,0,1.42-1.68,2.83-3.36,4.25-5a.24.24,0,0,0,.08-.09c1.38-1.63,2.76-3.26,4.16-4.88l.57-.66c3.93.13,7.85-.13,11.78-.05C77.93,299.81,77.92,299.65,77.82,299.65Z" style="fill:#263238"></path><path d="M75.88,306.35H75a.07.07,0,0,0,0,.14h.92C76,306.5,76,306.35,75.88,306.35Z" style="fill:#263238"></path><path d="M73.84,306.36l-3.64-.08-1.82-.06a6.82,6.82,0,0,0-1.69,0,.06.06,0,0,0,0,.11,6.47,6.47,0,0,0,1.7.13l1.82,0c1.21,0,2.43,0,3.64,0C74,306.51,73.94,306.36,73.84,306.36Z" style="fill:#263238"></path><path d="M63.25,317.73a49.12,49.12,0,0,0-7.45-.67s0,.05,0,.05c2.47.24,5,.37,7.41.77C63.31,317.9,63.35,317.74,63.25,317.73Z" style="fill:#263238"></path><path d="M53.12,306.89c0-.22,0-.44-.08-.65-.06-.49-.14-1-.21-1.46-.15-.93-.31-1.85-.49-2.77,0-.09-.16-.06-.15,0,.12,1,.22,1.91.31,2.87l.12,1.4a4,4,0,0,0,.19,1.34.18.18,0,0,0,.32-.05A1.65,1.65,0,0,0,53.12,306.89Z" style="fill:#263238"></path><path d="M102.71,279.17c-1.2-2.25-2.74-5.21-5.75-5-2.48.15-3.6,2.69-4.14,4.78-1.64,6.49-1.75,13.33-2.07,20-.68,14-1.29,28.1-1.37,42.17q0,5.85,0,11.69c0,4,0,8,.28,12a.29.29,0,0,0,.58,0c0-3.4-.09-6.8-.11-10.2s0-6.64.07-10q.16-10.08.54-20.16c.24-6.68.54-13.35.82-20q.21-5,.43-10c.15-3.23.29-6.46.66-9.68.21-1.8.47-3.6.85-5.37a7.42,7.42,0,0,1,1.55-3.61,3.41,3.41,0,0,1,4.4-.32,9.42,9.42,0,0,1,3.11,3.89C102.63,279.34,102.76,279.26,102.71,279.17Z" style="fill:#263238"></path><path d="M101.9,278.1s-2.48-8.74,3-4.37c9.1,7.27,9.43,23.1,9.43,23.1s-16.19-9.41-18.21-15.61C93.12,272,101.9,278.1,101.9,278.1Z" style="fill:#FEFEFE"></path><path d="M110.92,290.34l-.46-.72a4.57,4.57,0,0,0,0-.74v-1.13q0-1.11.09-2.22c0-.1-.16-.09-.16,0,0,.72-.07,1.45-.09,2.17,0,.36,0,.73,0,1.09,0,.14,0,.3,0,.47-.63-1-1.29-2-2-2.93l-.6-.82a17.08,17.08,0,0,1,0-2.86c0-1,0-2,.06-3.05,0-.1-.15-.09-.15,0,0,1.05-.09,2.11-.14,3.17a18.9,18.9,0,0,0-.06,2.26c-1.57-2.13-3.22-4.18-4.9-6.22-.06-.07-.18,0-.12.1,1,1.31,2,2.67,3,4-1.91-.44-3.84-.7-5.78-1-.1,0-.14.14,0,.15,2,.31,4.06.83,6.09,1.27,0,0,0,0,0,0,.77,1.09,1.54,2.19,2.3,3.29l.92,1.35h-.09l-.63-.09c-.44-.05-.89-.09-1.34-.12-.94-.07-1.87-.12-2.81-.17-.1,0-.09.15,0,.15.92,0,1.83.09,2.75.19l1.45.18.63.07.18,0,1.56,2.29c.92,1.35,1.73,2.8,2.71,4.11.06.08.16,0,.12-.08A41.94,41.94,0,0,0,110.92,290.34Z" style="fill:#263238"></path><path d="M106.89,280.47c0-.34,0-.68,0-1a14,14,0,0,1,.08-2.15.08.08,0,1,0-.15,0c0,.7-.08,1.41-.11,2.12,0,.35,0,.71,0,1.06V281a1.45,1.45,0,0,0,0,.51.07.07,0,0,0,.13,0,1.24,1.24,0,0,0,0-.47Z" style="fill:#263238"></path><path d="M104.89,284.09c-.61-.11-1.22-.14-1.83-.19s-1.33-.11-2-.2c-.11,0-.13.15,0,.15,1.28.09,2.55.31,3.83.36C104.94,284.21,105,284.1,104.89,284.09Z" style="fill:#263238"></path><path d="M110,284.14c0,.07,0,.26,0,.34v.89c0,.2,0,.41,0,.61a1.4,1.4,0,0,0,0,.54,0,0,0,0,0,.06,0,.52.52,0,0,0,0-.25v-.89c0-.21,0-.41,0-.61v-.29c0-.08,0-.26,0-.33S109.87,284,110,284.14Z" style="fill:#263238"></path><path d="M103.09,325.81c-3.41-2.56-6.47-6.23-11-6.41-3.78-.15-6.43,2.7-7.94,5.87a32.06,32.06,0,0,0-1.85,5.22q-1,3.58-1.93,7.21-1.78,7.13-3,14.37c-.46,2.69-.89,5.38-1.23,8.09a68,68,0,0,0-.79,8.29.43.43,0,0,0,.84.09c.47-2.26.66-4.6,1-6.89s.69-4.6,1.08-6.89q1.15-6.88,2.71-13.7c1-4.28,1.93-8.63,3.32-12.8,1-3,2.58-6.49,5.81-7.56,4.91-1.64,9.38,2.52,13,5.22C103.06,326,103.17,325.87,103.09,325.81Z" style="fill:#263238"></path><path d="M99.56,323.36s-3.13-9,1.41-10.72c6.8-2.63,24.61,17.43,21.13,48.16,0,0-13.77-7.58-23.93-16.1S85.41,325,89.89,322.15,99.56,323.36,99.56,323.36Z" style="fill:#FEFEFE"></path><path d="M120,354.22a23.08,23.08,0,0,0-1.66-3.1c-.58-1.05-1.17-2.1-1.77-3.14-1.19-2-2.36-4.05-3.57-6.06l-.6-1c0-.12,0-.24.08-.36.06-.29.13-.59.2-.89.15-.66.27-1.34.39-2,.25-1.31.48-2.65.83-3.94,0-.09-.13-.13-.15,0-.28,1.32-.7,2.61-1.09,3.9-.19.63-.39,1.26-.56,1.9-.06.22-.11.44-.17.66-1.46-2.4-3-4.78-4.56-7.09a2.9,2.9,0,0,0,.16-1c.05-.44.1-.89.16-1.34.12-1,.23-2,.38-3a58.65,58.65,0,0,1,1.08-5.89.08.08,0,0,0-.15,0c-.49,1.94-1,3.87-1.39,5.84-.18,1-.35,1.92-.48,2.89-.07.49-.12,1-.17,1.46,0,.15,0,.3-.06.44-.49-.69-1-1.39-1.5-2.07-1.57-2.07-3.2-4.09-4.84-6.1-.07-.07-.2,0-.13.09a109.63,109.63,0,0,1,7.74,11.31l1.34,2.17-.45-.06c-.57-.07-1.16-.11-1.73-.16l-3.48-.3c-2.32-.19-4.64-.33-7-.58-.1,0-.13.15,0,.16,2.34.27,4.68.64,7,1,1.15.17,2.3.32,3.45.47a13.45,13.45,0,0,0,2.65.27c.91,1.48,1.83,3,2.73,4.44-.2,0-.41,0-.61,0h-3.31c-1.5,0-3,0-4.48,0-.1,0-.09.15,0,.15,1.51,0,3,.1,4.53.18.72,0,1.44.08,2.15.13l1.08.07a2.28,2.28,0,0,0,.94,0c.77,1.26,1.55,2.51,2.33,3.77s1.43,2.32,2.16,3.47a28.56,28.56,0,0,0,2.34,3.51C120,354.36,120.08,354.31,120,354.22Z" style="fill:#263238"></path><path d="M113.48,329.37a22.41,22.41,0,0,1-.61,2.93c-.26,1-.55,2-.87,2.95a.1.1,0,1,0,.19.06c.3-1,.57-1.94.81-2.93s.4-2,.64-3C113.66,329.3,113.49,329.27,113.48,329.37Z" style="fill:#263238"></path><path d="M103.37,335.38a1.1,1.1,0,0,0-.75-.28l-1.3-.18c-.8-.11-1.61-.2-2.42-.29-1.67-.2-3.35-.36-5-.57-.1,0-.13.14,0,.15,1.59.19,3.16.43,4.74.64l2.32.3,1.12.13a4,4,0,0,1,1.28.21C103.37,335.53,103.43,335.43,103.37,335.38Z" style="fill:#263238"></path><path d="M113.46,348.89c-.79-.06-1.59-.09-2.38-.11l-1.21,0-.57,0a3.09,3.09,0,0,1-.75,0c-.11,0-.12.17,0,.15a3.29,3.29,0,0,1,.7,0l.63,0,1.2.08c.79,0,1.59.09,2.38.09C113.55,349.07,113.55,348.9,113.46,348.89Z" style="fill:#263238"></path><path d="M118.31,345.46c.09-.45.18-.9.26-1.36.16-.88.32-1.77.49-2.65,0-.1-.13-.13-.16,0-.19.86-.39,1.73-.58,2.59-.1.43-.19.86-.28,1.29-.05.2-.09.4-.13.6a1.73,1.73,0,0,0-.07.64c0,.07.12.13.17,0A3.1,3.1,0,0,0,118.31,345.46Z" style="fill:#263238"></path><polygon points="71.72 365.01 72.67 375.91 75.93 412.7 104.74 412.7 108.81 375.91 110.01 365.01 71.72 365.01" style="fill:#455a64"></polygon><polygon points="71.72 365.01 72.67 375.91 108.81 375.91 110.01 365.01 71.72 365.01" style="fill:#263238"></polygon><rect x="68.86" y="362.04" width="44" height="8.84" transform="translate(181.73 732.92) rotate(180)" style="fill:#455a64"></rect></g><g id="freepik--Character--inject-2"><path d="M207.88,376.78s-21,42.05-21,42.09c-1.74,8.68-3.1,16.33-3.44,20.35a.15.15,0,0,0,0,.07,6.07,6.07,0,0,0,.11,2.81s0,0,0,.06c2.23,2.27,71.25,18.16,73.84,17.9s2.07-7.66-.12-10.42S231.43,429,231.43,429L252,386.86Z" style="fill:#ad6359"></path><path d="M256.41,460.07c-2.59.25-70.57-15.64-72.8-17.91l0-.06a6.22,6.22,0,0,1-.11-2.81.17.17,0,0,1,0-.07c.34-4,1.7-11.67,3.43-20.36,0,0,2.7-5.39,5-10.07l43.54,11.94-4,8.25s22.65,17.91,24.85,20.66S259,459.82,256.41,460.07Z" style="fill:#ebebeb"></path><path d="M257.35,459c-2.63.2-71.8-17.44-74-19.78-.85-.88,1.13-11.11,3.88-23.4l.09-.38,44.76,10.88-.21.75s23.46,18.59,25.61,21.43S260,458.77,257.35,459Z" style="fill:#263238"></path><path d="M257.25,456.08c-11.59-3.26-58.64-15.31-70.34-17.65-.1,0-.11,0,0,.07,11.42,3.48,58.56,15.15,70.31,17.77C257.45,456.33,257.49,456.15,257.25,456.08Z" style="fill:#fff"></path><path d="M235.57,428.12c-4.37-2-10.16-2.75-14.5-.38-.17.09,0,.33.13.32a66.94,66.94,0,0,1,14.21.63A.3.3,0,0,0,235.57,428.12Z" style="fill:#fff"></path><path d="M238.38,431c-4.37-2-10.17-2.75-14.51-.38-.16.09,0,.33.13.32a66.94,66.94,0,0,1,14.21.63A.3.3,0,0,0,238.38,431Z" style="fill:#fff"></path><path d="M241.18,433.8c-4.37-2-10.16-2.75-14.5-.38-.17.09,0,.33.12.32a66.26,66.26,0,0,1,14.21.64A.31.31,0,0,0,241.18,433.8Z" style="fill:#fff"></path><path d="M259,456.75c1.11.79-.21,4.88-1.19,5s-76.32-19.46-77.53-20.07.43-5.1,2-4.95S259,456.75,259,456.75Z" style="fill:#FEFEFE"></path><path d="M196.76,426.06c-4.38-3.79-10.27,3-5.89,6.8S201.14,429.85,196.76,426.06Z" style="fill:#fff"></path><path d="M192.08,405.43l50.47,12.73s47.05-84.91,46-106.49c-1.45-29.8-36.4-121.3-36.4-121.3H210.3s27.77,98.95,28.13,115.6C238.62,314.68,192.08,405.43,192.08,405.43Z" style="fill:#37474f"></path><path d="M244.71,407.92c-2.69-1.07-26.72-8-44.64-11.8a.09.09,0,1,0,0,.18c5.64,2,41.26,11.36,44.6,11.82C244.74,408.14,244.83,408,244.71,407.92Z" style="fill:#263238"></path><path d="M241.91,284.72c-3.32-14-6.83-27.9-10.63-41.75s-7.76-27.8-12.15-41.54c-.54-1.67-1.1-3.35-1.64-5a.21.21,0,0,0-.41.12c3.92,13.68,7.9,27.34,11.62,41.07s7.29,27.5,10.64,41.32q1.24,5.15,2.45,10.28a91,91,0,0,1,2.14,10.71,27.77,27.77,0,0,1-.69,10.31,58.18,58.18,0,0,1-3.72,9.59q-9,19.65-18.1,39.31c-6,13.15-7,16.14-12.77,29.39-.72,1.65-1.43,3.29-2.12,4.95-.05.11.11.2.16.09,6.6-13,7.62-16.12,13.75-29.33s12.31-26.59,18.43-39.91c2.76-6,6-12.13,6.42-18.85C245.72,298.47,243.52,291.44,241.91,284.72Z" style="fill:#263238"></path><path d="M240.46,393.41s1.62,46.29,1.62,46.33c.26,8.85.65,16.61,1.23,20.6a.17.17,0,0,0,0,.07,6.35,6.35,0,0,0,.73,2.71s0,.05.06.06c2.69,1.7,73.51,1.66,76,.83s.29-7.94-2.46-10.13-29.89-14.3-29.89-14.3l-2.05-46.26Z" style="fill:#ad6359"></path><path d="M241.75,430.23s.33,9.47.33,9.51c.26,8.85.65,16.61,1.23,20.6a.17.17,0,0,0,0,.07,12.11,12.11,0,0,0,.73,2.71s0,.05.06.06c2.69,1.7,73.51,1.66,76,.83s.29-7.94-2.46-10.13-29.89-14.3-29.89-14.3l-.2-9.65Z" style="fill:#ebebeb"></path><path d="M320.12,463.92c-2.5.81-73.89-.3-76.58-2.07-1-.66-1.48-11.07-1.65-23.66v-.4L288,438l0,.78s27.13,12.65,29.89,14.91S322.63,463.13,320.12,463.92Z" style="fill:#263238"></path><path d="M319.36,461.14c-12-.48-60.59-1.29-72.52-.85-.1,0-.1.07,0,.07,11.91.74,60.48,1.16,72.51,1C319.61,461.34,319.61,461.15,319.36,461.14Z" style="fill:#fff"></path><path d="M291.79,439c-4.73-1-10.53-.32-14.2,3-.14.13,0,.33.2.28a66.85,66.85,0,0,1,14-2.68A.31.31,0,0,0,291.79,439Z" style="fill:#fff"></path><path d="M295.17,441.09c-4.72-1-10.52-.32-14.19,3-.15.13,0,.33.19.29a67.11,67.11,0,0,1,14-2.69A.3.3,0,0,0,295.17,441.09Z" style="fill:#fff"></path><path d="M298.56,443.2c-4.72-1-10.53-.32-14.2,3-.14.12,0,.32.2.28a66.21,66.21,0,0,1,14-2.68A.3.3,0,0,0,298.56,443.2Z" style="fill:#fff"></path><path d="M321.25,461.38c1.27.51.93,4.8,0,5.13s-78.75-1.22-80.07-1.54-.76-5.06.78-5.27S321.25,461.38,321.25,461.38Z" style="fill:#FEFEFE"></path><path d="M253.55,446c-5.14-2.67-9.29,5.31-4.15,8S258.69,448.64,253.55,446Z" style="fill:#fff"></path><path d="M247.88,190.33v0c-.18.86-10.61,42.1-11.92,42.88-1.47.87,37.91,53.86,42.58,79.87,3,16.64,9.8,113.62,9.8,113.62H238.17s-4.91-82.36-6.56-109.5c-.64-10.53-41.67-55.73-45.05-90.49-1-10.25,7.32-36.42,7.32-36.42Z" style="fill:#37474f"></path><path d="M236.9,387.47c-.59-13.64-1.14-27.31-2.13-40.94-.56-7.71-1.67-15.19-2.43-22.89,0-.4-.37-.5-.36-.08.36,13.7,1.49,27.25,2.22,40.94s1.43,16.89,2.2,30.53c.44,7.72.82,15.45,1.42,23.16a.1.1,0,0,0,.19,0C238,404.48,237.5,401.16,236.9,387.47Z" style="fill:#263238"></path><path d="M278.59,313.7A72.9,72.9,0,0,0,276.5,303a54.17,54.17,0,0,0-4.07-9.8c-3.42-6.56-7.31-12.91-11.06-19.28s-7.66-12.89-11.62-19.25q-3.34-5.35-6.72-10.7c-2.27-3.61-4.69-7.13-7.05-10.67-.09-.14-.31,0-.22.13,3.84,6.44,7.64,12.9,11.48,19.34s7.62,12.9,11.41,19.37,7.46,12.73,11,19.18a65.91,65.91,0,0,1,4.52,9.58,58.56,58.56,0,0,1,2.54,10.55c1.33,8.34,2.43,16.73,4.11,25,0,.11.19.08.18,0C280.5,328.86,279.6,321.25,278.59,313.7Z" style="fill:#263238"></path><path d="M283.94,418.05c-2.87-.37-24.75-1.13-43.05-.35a.1.1,0,0,0,0,.19c6,.53,39.66.76,43,.37C284,418.25,284.07,418.07,283.94,418.05Z" style="fill:#263238"></path><path d="M242.52,230.35a94,94,0,0,0-14.81,6.89.17.17,0,0,0,.13.31c5-2.14,10.08-4.19,14.95-6.61A.32.32,0,0,0,242.52,230.35Z" style="fill:#263238"></path><path d="M244,196.17c0-.17-.32-.21-.32,0a166.46,166.46,0,0,1-.83,16.68c-.23,2.57-2.3,16.77-6.76,15.73-.74-.17-1.13-.9-1.24-2a18,18,0,0,1,.59-4.35c.49-3,.89-6,1.15-9a82.12,82.12,0,0,0-.18-16.81.15.15,0,0,0-.29,0,154.92,154.92,0,0,1-1.36,23.19c-.56,3.7-2.42,9.26,1.45,9.83s6.48-8.74,7-11.29A85.16,85.16,0,0,0,244,196.17Z" style="fill:#263238"></path><path d="M236.23,228.94a23.12,23.12,0,0,0-1,2.94,6.53,6.53,0,0,0-.42,2.42c0,.16.23.17.31.07a8.93,8.93,0,0,0,1-2.36c.33-.91.69-1.81,1-2.73A.5.5,0,0,0,236.23,228.94Z" style="fill:#263238"></path><path d="M238.32,330.4c-.46-7-.44-14.41-3.42-20.92a70,70,0,0,0-5.46-9.1q-3.06-4.65-6-9.38c-7.92-12.58-15.49-25.41-22.42-38.57-3.33-6.34-6.41-12.87-8.08-19.87a63.29,63.29,0,0,1-.92-22.42c.23-1.86.49-3.71.8-5.56,0-.13-.18-.19-.21-.05a74,74,0,0,0-1.65,21.7,60.56,60.56,0,0,0,5.79,20c3.05,6.62,6.69,13,10.27,19.32q5.53,9.8,11.42,19.41c3.9,6.36,8,12.6,12.07,18.86a36.13,36.13,0,0,1,4.8,9.65,52.44,52.44,0,0,1,1.53,10.95c1,15.51,4.94,67.05,6.32,82.48.18,2,.35,3.92.53,5.87,0,.18.28.17.27,0C243.35,397.28,239.35,345.85,238.32,330.4Z" style="fill:#263238"></path><path d="M210.66,203.89c0-.11-.18-.07-.19,0-.14,4.31,0,8.75-1.68,12.82-1.52,3.73-4.57,6.35-8,8.31a63.25,63.25,0,0,1-6.13,3c-.15.06-.09.3.07.25,4-1.26,8-2.63,11.31-5.27,3.53-2.83,5.07-6.94,5.25-11.38A38.16,38.16,0,0,0,210.66,203.89Z" style="fill:#263238"></path><path d="M245.81,137c3.22,8.14,23.86,37.41,37.34,38.79,13.74,1.42,43.48-18.62,46.63-20.7,2.06-1.35-11.88-25.35-15.08-23.34-8.62,5.43-28.9,19.07-32.78,17.21-8.15-3.89-14.43-9.31-26.16-17C247.58,126.59,242.26,128,245.81,137Z" style="fill:#ad6359"></path><path d="M347.41,143.44c-6.68,6.87-17.23,12.14-20.61,12.56s-14.58-19-13.26-22.22,15.06-20.71,21.07-21.85S351.75,139,347.41,143.44Z" style="fill:#ad6359"></path><path d="M338.31,116.68s-6.45,2.88-8.53,4c-1.78.93-5.34,3.09-4.62,6.53s5.47,1.72,5.81,1.61c-.28.16-5.11,3.13-4,6.51s5.63,1.08,5.92.93c-.12.13,9.77-7,12.21-5.41,2.75,1.83.6,13.93.63,14s21.57-17.14,20.1-21.06c-1.75-4.69-16.18,6.28-16.18,6.28s2.83-3.21,2.07-5.9c-.4-1.38-2.95-2-2.95-2a4.16,4.16,0,0,0,1.17-4.16c-.66-1.88-3.12-2.19-3.12-2.19s17.71-6,13.45-10.79c-2.61-2.94-20.7,5.17-25.63,6.9C334.61,111.93,338.82,113.6,338.31,116.68Z" style="fill:#ad6359"></path><path d="M346.41,115.72a0,0,0,0,0,0-.09,29.53,29.53,0,0,0-16.85,5.06c-.15.11,0,.41.16.32A60.11,60.11,0,0,1,346.41,115.72Z" style="fill:#263238"></path><path d="M348.81,122.12c.07,0,.05-.12,0-.12a27.69,27.69,0,0,0-18,6.66c-.17.16-.17.47,0,.31C334.34,126.21,343.36,122.93,348.81,122.12Z" style="fill:#263238"></path><path d="M333.12,136.64c4.95-4.15,7.54-4.88,13.8-6.24.08,0,.05-.13,0-.14a14.8,14.8,0,0,0-6.9.94,15.86,15.86,0,0,0-7,5.27C332.9,136.56,333,136.73,333.12,136.64Z" style="fill:#263238"></path><path d="M329.78,120.65a15.67,15.67,0,0,0-2.92,2.08,6.72,6.72,0,0,0-2.1,3,2.67,2.67,0,0,0,.18,1.94,3.81,3.81,0,0,0,1.29,1.47,3.9,3.9,0,0,0,2.21.6c.36-.36.75-.71,1.15-1l.46.8a5.19,5.19,0,0,1-1.61.24A11,11,0,0,0,327,131.5a4.85,4.85,0,0,0-.77,3.88,3.53,3.53,0,0,0,1.13,1.77,3.22,3.22,0,0,0,2,.69,6.22,6.22,0,0,0,1.91-.34,9.45,9.45,0,0,1,1.15-1.63l.66.78.07-.08,2.06-2.32-2.68,1.53a6.73,6.73,0,0,1-3.16,1,2.19,2.19,0,0,1-2.17-1.68,3.84,3.84,0,0,1,.61-3.06,10.78,10.78,0,0,1,2.29-2.57l2-1.67-2.46.86a3.78,3.78,0,0,1-3.09-.13,3.06,3.06,0,0,1-1.11-1.12,2.15,2.15,0,0,1-.21-1.52,6.54,6.54,0,0,1,1.77-2.91A19.28,19.28,0,0,1,329.78,120.65Z" style="fill:#263238"></path><path d="M332.48,135.87a9.45,9.45,0,0,0-1.15,1.63,10.63,10.63,0,0,0,1.81-.85Z" style="fill:#263238"></path><path d="M329.59,128.7c-.4.33-.79.68-1.15,1a5.19,5.19,0,0,0,1.61-.24Z" style="fill:#263238"></path><path d="M315.55,130.91s7.6-24.29,15.64-16.67c2.39,2.27,9.49,14.42,7.08,15.89-3.12,1.91-7-2.61-9-5.84,0,0-1.42,8.63-7.72,9.43A6.31,6.31,0,0,1,315.55,130.91Z" style="fill:#ad6359"></path><path d="M330.48,113.65a13.47,13.47,0,0,1,2.74,2.75,30.41,30.41,0,0,1,2.19,3.22,45,45,0,0,1,3.44,7,7.19,7.19,0,0,1,.47,2,2.69,2.69,0,0,1-.17,1.17,1.94,1.94,0,0,1-.32.57,2.1,2.1,0,0,1-.5.41,3.23,3.23,0,0,1-2.23.4,6.22,6.22,0,0,1-2-.76,11.89,11.89,0,0,1-3-2.68,26.36,26.36,0,0,1-2.27-3.22l.83-.17a16.31,16.31,0,0,1-.87,2.86,14.52,14.52,0,0,1-1.37,2.62,10.12,10.12,0,0,1-2,2.18,7.58,7.58,0,0,1-2.56,1.38,8.7,8.7,0,0,0,2.36-1.62,10.68,10.68,0,0,0,1.72-2.24,15.35,15.35,0,0,0,1.17-2.58,14.86,14.86,0,0,0,.66-2.73l.16-1.15.67,1a27.26,27.26,0,0,0,2.28,3,11.47,11.47,0,0,0,2.76,2.42,3.19,3.19,0,0,0,3.1.38c.78-.4.5-1.79.13-2.93s-.91-2.36-1.42-3.53-1.06-2.34-1.65-3.47A24.82,24.82,0,0,0,330.48,113.65Z" style="fill:#263238"></path><path d="M326.76,158.12l-16.4-24.72a16.81,16.81,0,0,0-7.67,1.84c-7.14,3.38-19.34,13-21.16,12.32-2.95-1-13.79-8.62-23.33-15.49s-23-10-11.7,9.08,27.87,34,35,36c4.68,1.31,28.83-5.19,40.35-12.46A11.13,11.13,0,0,0,326.76,158.12Z" style="fill:#FEFEFE"></path><path d="M319.09,163.53a35.34,35.34,0,0,1-2.2-3.32c-.64-1-1.31-2-1.94-3-1.39-2.18-2.79-4.36-4.17-6.55s-2.75-4.36-4.11-6.56-2.76-4.34-4-6.59a.09.09,0,0,1,.15-.1c1.64,2,3.08,4.13,4.54,6.25s2.82,4.21,4.17,6.35,2.7,4.4,4,6.63c.63,1.07,1.22,2.17,1.81,3.26a29.77,29.77,0,0,1,1.85,3.54C319.22,163.53,319.14,163.59,319.09,163.53Z" style="fill:#263238"></path><path d="M278.58,175.88c-8.1-4.38-22.15-17.95-32.08-34.73-4.89-8.26-5.14-12.35-3.07-13.79Z" style="opacity:0.1"></path><path d="M187.59,214.87l74.65,3.1c.32-.3,3.12-1.4,2.69-11.61-1-23.24-8.56-64.8-13.22-73.78a15.09,15.09,0,0,0-20.34-7c-4.23,2.43-8.16,5.67-13.22,12.63-12.42,17.12-26.2,47.66-31,64.54C185.11,209.74,187.44,214.66,187.59,214.87Z" style="fill:#FEFEFE"></path><path d="M238.49,210.46c7.32.3,14.58.6,21.85,1l-.41.45-1.64-11.31.24.32a9,9,0,0,1-3.3-2.9,14.09,14.09,0,0,1-1.86-3.92,23.25,23.25,0,0,1-.93-4.19,28.81,28.81,0,0,1-.28-4.27l.38.42-17.21-.94.37-.29-.66,2.65c-.24.88-.58,1.74-.86,2.6s-.73,1.68-1.11,2.52l-.7,1.18c-.11.2-.23.4-.35.59l-.42.55a10.84,10.84,0,0,1-4.18,3.56A8.39,8.39,0,0,1,222,199l.2-.09-5.8,10.62Zm-16.6-11.69.05-.11.15,0a8.13,8.13,0,0,0,5.13-.66,10.21,10.21,0,0,0,3.94-3.47l.39-.53c.12-.19.23-.38.34-.58l.66-1.15c.35-.82.74-1.63,1-2.47s.58-1.69.8-2.56l.61-2.61.07-.31.3,0,17.22.84.39,0v.4a28.83,28.83,0,0,0,.3,4.14,23.16,23.16,0,0,0,.91,4,13.84,13.84,0,0,0,1.75,3.68,8.1,8.1,0,0,0,2.95,2.63l.21.11,0,.22,1.57,11.32.07.47-.48,0c-7.37-.39-14.75-.85-22.08-1.3l-21.82-1.37Z" style="opacity:0.1"></path><path d="M226.11,127.29c-18.31,2.4-43.56,9.58-51.64,15.16-5.66,3.92-18.5,31.09-20.81,39.21-1,3.5,24.52,15.63,26.56,12.32,2.44-4,13.8-35.28,15-35.42s21.83-11.24,34.62-20.16C243.88,128.63,233.29,126.35,226.11,127.29Z" style="fill:#ad6359"></path><path d="M152.37,181.05l32.49,9.3a20.4,20.4,0,0,0,4-7.74c2-7.63,3.14-18.55,4.42-20,2.08-2.34,24.81-14.8,34.77-21.05s17.31-18.39-4.6-15.11S177.24,138,171.67,142.07c-3.92,2.88-13.12,18-18.31,28.25C151.18,174.62,152.37,181.05,152.37,181.05Z" style="fill:#FEFEFE"></path><path d="M208.71,153c1.94-1.14,3.9-2.26,5.86-3.36q3.3-1.86,6.66-3.61c2.18-1.14,4.4-2.17,6.61-3.24.16-.08.3.19.14.28-2.85,1.53-5.67,3.13-8.49,4.73,1.51-.53,3-1,4.56-1.51a.1.1,0,0,1,.07.19c-1.82.65-3.66,1.24-5.51,1.82l-2,1.15C212.78,151.6,206.89,154.07,208.71,153Z" style="fill:#263238"></path><path d="M155.38,173a34.17,34.17,0,0,1,3.82,1.14c1.13.35,2.27.68,3.4,1,2.46.79,4.93,1.56,7.39,2.36s4.91,1.59,7.36,2.41,4.9,1.55,7.29,2.5c.09,0,0,.18,0,.17-2.53-.47-5-1.2-7.49-1.89s-4.86-1.42-7.27-2.2-4.89-1.65-7.32-2.53c-1.16-.43-2.32-.89-3.47-1.35a31.47,31.47,0,0,1-3.69-1.53C155.28,173.08,155.31,173,155.38,173Z" style="fill:#263238"></path><path d="M243.43,142.46s-8.72-14.49-16.36-16.2l-11.37,1.52s-2.29.14-2.59-1.37c-.76-3.73,4.45-9.3,12.69-12.71,7.54-3.11,20.23,1.23,28.25,5.74,7.71,4.34,11,10.39,7.05,15.13S243.43,142.46,243.43,142.46Z" style="fill:#FEFEFE"></path><path d="M244.92,140.14s11.25-4.3,13.28-8.07-5-9.7-9.82-12.55c-7.43-4.42-13-5.33-18.66-2.21S244.92,140.14,244.92,140.14Z" style="opacity:0.1"></path><path d="M237.88,108.41a29.69,29.69,0,0,1-2,5c-.81,1.18-4.23,1.48-4.23,1.48s2.91,2.39,3.94,2.51,3.43-1.76,3.43-1.76-2.81,3.38-4.24,3.09c-.89-.18,2,.91,2,.91a4.19,4.19,0,0,0,3-.26C241.14,118.61,237.88,108.41,237.88,108.41Z" style="fill:#263238"></path><path d="M258.76,110c-.46,4,2,7.5,5.45,7.91s6.67-2.47,7.13-6.43-2-7.5-5.44-7.91S259.23,106,258.76,110Z" style="fill:#455a64"></path><path d="M256.69,110c-.51,4.4,2.2,8.34,6.06,8.8s7.42-2.75,7.94-7.16-2.19-8.34-6.06-8.8S257.21,105.57,256.69,110Z" style="fill:#c7c7c7"></path><path d="M246.27,139.61c-4.45.25-10-6.37-11-11.85-.06-.37,1.56-3.54,3.35-7.49,1.08-2.4,2.22-5.09,3.09-7.63l14.58,9.29a42.58,42.58,0,0,0-4.86,9.21,6.44,6.44,0,0,0-.25,1.08C250.09,135.65,248.27,139.49,246.27,139.61Z" style="fill:#ad6359"></path><path d="M256.33,121.93a42.76,42.76,0,0,0-4.85,9.21,5.59,5.59,0,0,0-.25,1.08l-.06.17a10.1,10.1,0,0,1-1.64-.47c-9.2-3.43-8.21-14.6-7.41-19Z" style="fill:#263238"></path><path d="M240.71,95c-2.75,5.59-2.38,23.08,1.19,27.54,5.17,6.47,15,8.6,20.86,2.07,5.66-6.34,4.78-29.12.67-33.32C257.37,85.12,244.76,86.76,240.71,95Z" style="fill:#ad6359"></path><path d="M253.1,104.87a14.39,14.39,0,0,0,1.49-.48,2.55,2.55,0,0,0,1.42-.79.8.8,0,0,0-.11-1,2,2,0,0,0-2-.26,3,3,0,0,0-1.72,1.23A.86.86,0,0,0,253.1,104.87Z" style="fill:#263238"></path><path d="M265.05,105.12a13,13,0,0,1-1.51-.43,2.54,2.54,0,0,1-1.45-.72.81.81,0,0,1,.07-1,2,2,0,0,1,2-.33,2.91,2.91,0,0,1,1.76,1.16A.85.85,0,0,1,265.05,105.12Z" style="fill:#263238"></path><path d="M254.29,118.76c.28.29.55.67,1,.72a3.12,3.12,0,0,0,1.27-.27s.08,0,0,.06a1.58,1.58,0,0,1-1.51.61,1.26,1.26,0,0,1-.9-1.06C254.16,118.75,254.25,118.72,254.29,118.76Z" style="fill:#263238"></path><path d="M255.61,115.27a4,4,0,0,0,2.64,1.84,4.63,4.63,0,0,0,1.44.1l.28,0,.26,0a.29.29,0,0,0,.24-.25h0a.45.45,0,0,0,0-.12h0v-.11c.05-.9,0-2.28,0-2.28.33.17,2,1,2,.49a60.31,60.31,0,0,0-1.27-12.17.11.11,0,0,0-.22,0c0,3.78.64,7.53.69,11.33a6.78,6.78,0,0,0-1.88-.62c-.13,0,.16,2.67.11,3.08v0a5.54,5.54,0,0,1-4.12-1.39C255.64,115.09,255.54,115.17,255.61,115.27Z" style="fill:#263238"></path><path d="M259.17,116.74a4.71,4.71,0,0,1-1.94,1.43,2.09,2.09,0,0,1-1.31,0c-.93-.27-.93-1.13-.74-1.86a4.93,4.93,0,0,1,.44-1.12A6.23,6.23,0,0,0,259.17,116.74Z" style="fill:#263238"></path><path d="M257.23,118.17a2.09,2.09,0,0,1-1.31,0c-.93-.27-.93-1.13-.74-1.86A2.21,2.21,0,0,1,257.23,118.17Z" style="fill:#ff97b8"></path><path d="M252.39,107.43a3.51,3.51,0,0,1,1-.1,3.45,3.45,0,0,1,1,.18,3.05,3.05,0,0,1,.92.53,2.55,2.55,0,0,1,.62.9l.24.62-.65-.15a7.35,7.35,0,0,0-1.42-.17,2.88,2.88,0,0,0-1.42.31,2.12,2.12,0,0,1,1.36-.83,4.12,4.12,0,0,1,1.64,0l-.41.47a2.44,2.44,0,0,0-1.12-1.15A7.84,7.84,0,0,0,252.39,107.43Z" style="fill:#263238"></path><path d="M254,110.3a6,6,0,0,0,1.51-.37c.11-.05.55-.3.54-.38a2.72,2.72,0,0,0-.18-.75,1.91,1.91,0,0,1,.33.74,1.05,1.05,0,0,1-.6.61A3.09,3.09,0,0,1,254,110.3Z" style="fill:#263238"></path><path d="M265.34,107.78a2.42,2.42,0,0,0-.85-.09,2.7,2.7,0,0,0-.87.18,2.38,2.38,0,0,0-1.35,1.44l-.22.62.58-.15a5.62,5.62,0,0,1,1.23-.18,2.29,2.29,0,0,1,1.25.3,1.84,1.84,0,0,0-1.19-.82,3.14,3.14,0,0,0-1.43,0l.35.47a2.36,2.36,0,0,1,1-1.16A6.47,6.47,0,0,1,265.34,107.78Z" style="fill:#263238"></path><path d="M264,110.66a4.73,4.73,0,0,1-1.31-.36c-.09,0-.48-.3-.47-.38a3.06,3.06,0,0,1,.16-.75,2.17,2.17,0,0,0-.29.75,1,1,0,0,0,.52.59A2.35,2.35,0,0,0,264,110.66Z" style="fill:#263238"></path><path d="M242,109.54s-3.06-6.06-5.75-5.05-.95,9.42,1.83,10.93a3,3,0,0,0,4.23-1Z" style="fill:#ad6359"></path><path d="M236.81,106.89a0,0,0,0,0,0,.07c1.94,1.13,2.75,3.2,3.22,5.28a1.66,1.66,0,0,0-2.4-.8c-.06,0,0,.12,0,.12a1.85,1.85,0,0,1,1.93.93,8.57,8.57,0,0,1,.73,1.77c.07.2.42.15.38-.07v0C241.1,111.52,239.59,107.56,236.81,106.89Z" style="fill:#263238"></path><path d="M238.86,109.17c3.14-.24,6.67-9.89,6.67-9.89l-.54,5.58a13.3,13.3,0,0,0,4.23-3.61,9.85,9.85,0,0,0,1.34-5.36,23.75,23.75,0,0,0,6.52,5.24c1.32.65,10.31,2.66,10.44,2,.39-1.9-1-9-3.27-11.25-2.56-2.63-9-6.73-15.63-5.63-5.29.89-5.59,4.78-7.2,7.21,0,0-4.15,2.15-4.63,3.58C235.77,100.15,237.71,109.26,238.86,109.17Z" style="fill:#263238"></path><path d="M239.46,105s0-8.72,2.93-13.33c3.22-5.12,13.16-6,17.23-3.15,0,0-7.2-3.17-13.82,3.78-2.79,2.93-3.46,13.14-3.46,13.14Z" style="fill:#c7c7c7"></path><path d="M247.27,110c-.27,4.42-3.64,7.82-7.53,7.58s-6.81-4-6.53-8.46,3.64-7.82,7.53-7.58S247.55,105.54,247.27,110Z" style="fill:#c7c7c7"></path><path d="M245.24,109.59c-.25,4-3.28,7-6.77,6.81s-6.12-3.62-5.87-7.6,3.28-7,6.77-6.81S245.49,105.61,245.24,109.59Z" style="fill:#455a64"></path><path d="M241.79,109.45a3.92,3.92,0,1,1-3.6-4.67A4.18,4.18,0,0,1,241.79,109.45Z" style="fill:#37474f"></path><path d="M244.92,140.14s-5.24-18.32-16.55-22.94l-1.3,9.06s7,1.83,16.36,16.2Z" style="fill:#FEFEFE"></path><path d="M223.87,125.59a15.59,15.59,0,0,1,6.06,2.48,28.61,28.61,0,0,1,5.06,4.19,51,51,0,0,1,4.3,5l1.91,2.7,1.79,2.78.21.31.33-.07a55.67,55.67,0,0,0,7.3-2.17,29.24,29.24,0,0,0,3.5-1.5,19.1,19.1,0,0,0,3.24-2,33.64,33.64,0,0,1-6.95,2.85c-1.2.37-2.41.69-3.63,1s-2.44.59-3.66.82l.54.24-1.78-2.86c-.63-.92-1.28-1.84-1.94-2.75s-1.4-1.76-2.14-2.6-1.51-1.67-2.35-2.42a26.63,26.63,0,0,0-5.41-4c-.49-.28-1-.52-1.51-.76s-1-.43-1.58-.6A10.05,10.05,0,0,0,223.87,125.59Z" style="fill:#263238"></path><path d="M216,127.74c2-.07,3.93-.28,5.79-.52a49,49,0,0,0,5.3-1c-2,.07-3.93.27-5.79.51A51,51,0,0,0,216,127.74Z" style="fill:#263238"></path><path d="M240.79,136.79a67.51,67.51,0,0,0-2.9,11.14c-.46,2.64-.92,12.31,2.07,12.42s-.84-6.76-.9-11.91,1.85-8.6,2.49-11.58Z" style="fill:#FEFEFE"></path><g style="opacity:0.1"><path d="M240.79,136.79a67.51,67.51,0,0,0-2.9,11.14c-.46,2.64-.92,12.31,2.07,12.42s-.84-6.76-.9-11.91,1.85-8.6,2.49-11.58Z"></path></g><path d="M251.65,137.85a61.12,61.12,0,0,1,.63,10.42c-.05,2.44-1.34,11.11-4,10.69s1.94-5.87,2.9-10.44-.13-8-.19-10.74Z" style="fill:#FEFEFE"></path><g style="opacity:0.1"><path d="M251.65,137.85a61.12,61.12,0,0,1,.63,10.42c-.05,2.44-1.34,11.11-4,10.69s1.94-5.87,2.9-10.44-.13-8-.19-10.74Z"></path></g><path d="M187.4,220.7c-5.3,0-19.65-7.41-20.3-7.75l.23-.44c.17.08,16.64,8.59,20.83,7.62,1.89-.45,3.82-1.88,6.06-3.54,5.44-4,12.21-9.05,23.91-4.78,1,.36,2,.76,3.1,1.17,9.85,3.75,23.33,8.88,28-2.42,2-4.85.33-9.92-1.43-15.29-1.14-3.47-2.32-7.06-2.39-10.56-.06-2.92,1.15-7.1,2.54-12,2.6-9,5.55-19.27,1.42-25a193.4,193.4,0,0,1-11-17.41c-2.4-4.58.81-17.37,1-17.91l.48.12c0,.13-3.3,13.15-1,17.55a190.54,190.54,0,0,0,10.91,17.35c4.28,5.94,1.3,16.3-1.34,25.45-1.32,4.61-2.57,9-2.52,11.8.06,3.42,1.23,7,2.36,10.42,1.72,5.21,3.49,10.61,1.43,15.63-4.83,11.75-18.58,6.51-28.61,2.69-1.08-.41-2.11-.8-3.1-1.16-11.45-4.18-18.1.75-23.44,4.71-2.28,1.69-4.26,3.16-6.25,3.62A3.75,3.75,0,0,1,187.4,220.7Z" style="fill:#263238"></path><path d="M249.63,148.05c-.33-3.58,4-7.61,7.88-11.17a45.6,45.6,0,0,0,4.73-4.78c2.47-3.18,4.26-13.73,4.27-13.84l.5.08c-.08.44-1.82,10.78-4.38,14.07a44.7,44.7,0,0,1-4.78,4.83c-3.76,3.48-8,7.43-7.72,10.76Z" style="fill:#263238"></path><path d="M143.48,192l34.34,13.17c1,.3,1.62,1.17,1.28,2l-6,13.89a2.11,2.11,0,0,1-2.51.87l-34.33-13.18c-1.05-.29-1.62-1.17-1.29-1.94l6-13.89A2.08,2.08,0,0,1,143.48,192Z" style="fill:#37474f"></path><path d="M142.75,193.63l34.33,13.17c1,.3,1.63,1.17,1.29,1.95l-6,13.89a2.11,2.11,0,0,1-2.51.86l-34.33-13.17c-1-.3-1.63-1.17-1.29-1.94l6-13.89A2.1,2.1,0,0,1,142.75,193.63Z" style="fill:#455a64"></path><path d="M142.53,198.35c.77.47,1.61.31,1.87-.35a1.82,1.82,0,0,0-.91-2.05c-.76-.47-1.6-.31-1.86.35A1.82,1.82,0,0,0,142.53,198.35Z" style="fill:#263238"></path><rect x="174.79" y="216.68" width="7.96" height="2.28" transform="translate(252.79 489.71) rotate(-155.85)" style="fill:#FEFEFE"></rect><path d="M165.08,228a4.53,4.53,0,0,1-4-3.24,6.72,6.72,0,0,1-4.5.81c-2.7-.6-3-5.1-3-5.1a8.3,8.3,0,0,1-4.88.09c-2.53-.83-3.43-5.33-3.43-5.33a7.29,7.29,0,0,1-4.35-2.62c-2.75-3.77-.11-10.39,1.54-14.62s10.25-14.67,11.69-16.82l27.21,10.29s-2,21-4.61,25.74C174.54,221.19,168.62,228.16,165.08,228Z" style="fill:#ad6359"></path><path d="M161.18,224.8c3.36-3.64,5.47-8.07,7.83-12.38a.09.09,0,0,0-.15-.08c-2.29,4.31-5.41,8.11-7.88,12.32A.12.12,0,0,0,161.18,224.8Z" style="fill:#263238"></path><path d="M153.69,220.58a13.13,13.13,0,0,0,1.67-2.94c.53-1.08,1-2.16,1.51-3.26q1.47-3.28,2.76-6.64c0-.1-.11-.19-.15-.08-1,2.18-2,4.35-3,6.49-.53,1.07-1.07,2.13-1.62,3.2a15,15,0,0,0-1.41,3.07A.17.17,0,0,0,153.69,220.58Z" style="fill:#263238"></path><path d="M145.32,215.18a9,9,0,0,0,1.37-2.72c.42-1,.85-2,1.29-3,.86-2,1.73-4,2.67-6,0-.1-.1-.18-.15-.08-1,2-1.95,4-2.9,6-.46,1-.92,2-1.37,3a8.34,8.34,0,0,0-1,2.8A.06.06,0,0,0,145.32,215.18Z" style="fill:#263238"></path></g><g id="freepik--musical-notes--inject-2"><path d="M232.35,61.52a3.83,3.83,0,1,1-3-4.47A3.82,3.82,0,0,1,232.35,61.52Z" style="fill:#455a64"></path><rect x="231.25" y="42.14" width="2.92" height="19.24" transform="translate(13.77 -42.57) rotate(10.77)" style="fill:#455a64"></rect><path d="M245.56,58.37a3.83,3.83,0,1,1-3.05-4.48A3.83,3.83,0,0,1,245.56,58.37Z" style="fill:#455a64"></path><rect x="244.46" y="38.98" width="2.92" height="19.24" transform="translate(13.41 -45.09) rotate(10.77)" style="fill:#455a64"></rect><polygon points="249.15 39.46 232.6 44.56 233.08 42.03 249.63 36.94 249.15 39.46" style="fill:#455a64"></polygon><polygon points="248.25 44.23 231.69 49.32 232.17 46.8 248.73 41.7 248.25 44.23" style="fill:#455a64"></polygon><circle cx="214.87" cy="99.41" r="2.13" transform="translate(-15.83 46.22) rotate(-11.84)" style="fill:#455a64"></circle><rect x="218.1" y="90.26" width="1.63" height="10.72" transform="translate(87.99 -104.2) rotate(33.17)" style="fill:#455a64"></rect><path d="M224.13,101.76a2.13,2.13,0,1,1-.62-3A2.13,2.13,0,0,1,224.13,101.76Z" style="fill:#455a64"></path><rect x="225.58" y="91.44" width="1.63" height="10.72" transform="translate(89.87 -108.1) rotate(33.17)" style="fill:#455a64"></rect><polygon points="230 92.78 220.38 91.89 221.17 90.69 230.78 91.58 230 92.78" style="fill:#455a64"></polygon><polygon points="228.52 95.04 218.91 94.15 219.69 92.95 229.31 93.84 228.52 95.04" style="fill:#455a64"></polygon><path d="M206.84,86.1a2.81,2.81,0,1,1-2.23-3.28A2.81,2.81,0,0,1,206.84,86.1Z" style="fill:#455a64"></path><rect x="206.04" y="71.88" width="2.14" height="14.12" transform="translate(18.39 -37.3) rotate(10.77)" style="fill:#455a64"></rect><rect x="214.81" y="69.76" width="2.14" height="4.08" transform="translate(17.22 -39.07) rotate(10.77)" style="fill:#455a64"></rect><polygon points="217.22 70.53 207.02 73.66 207.38 71.8 217.57 68.67 217.22 70.53" style="fill:#455a64"></polygon><polygon points="216.55 74.02 206.36 77.15 206.71 75.3 216.91 72.17 216.55 74.02" style="fill:#455a64"></polygon></g></svg>